<svg id="Layer_2" data-name="Layer 2" xmlns="http://www.w3.org/2000/svg" viewBox="0 0 228.08 231.4"><defs><clipPath id="clippath"><path style="fill:none" d="M16.74 100.01h51.41v31.38H16.74z"/></clipPath><style>.cls-1{fill:#cee4ef}.cls-3{fill:#87c846}.cls-4{fill:#1b1a1f}</style></defs><g id="Layer_1-2" data-name="Layer 1"><path class="cls-1" d="M34.35 164.41h156.54v66.77H34.35z"/><path class="cls-4" d="M190.89 231.4H34.35c-.12 0-.22-.1-.22-.22v-66.77c0-.12.1-.22.22-.22h156.54c.12 0 .22.1.22.22v66.77c0 .12-.1.22-.22.22Zm-156.32-.43h156.1v-66.34H34.57v66.34Z"/><path class="cls-4" d="M190.89 178.31H34.35c-.12 0-.22-.1-.22-.22v-13.68c0-.12.1-.22.22-.22h156.54c.12 0 .22.1.22.22v13.68c0 .12-.1.22-.22.22Zm-156.32-.43h156.1v-13.25H34.57v13.25Z"/><path class="cls-3" d="M52.88 188.81h31.38v31.38H52.88z"/><path class="cls-4" d="M171.28 192.85h-65.5c-.12 0-.22-.1-.22-.22s.1-.22.22-.22h65.5c.12 0 .22.1.22.22s-.1.22-.22.22ZM171.28 204.71h-65.5c-.12 0-.22-.1-.22-.22s.1-.22.22-.22h65.5c.12 0 .22.1.22.22s-.1.22-.22.22ZM171.28 216.57h-65.5c-.12 0-.22-.1-.22-.22s.1-.22.22-.22h65.5c.12 0 .22.1.22.22s-.1.22-.22.22ZM163.54 174.59a3.55 3.55 0 1 1 .002-7.102 3.55 3.55 0 0 1-.002 7.102Zm0-6.66c-1.72 0-3.11 1.4-3.11 3.11s1.4 3.11 3.11 3.11 3.11-1.4 3.11-3.11-1.4-3.11-3.11-3.11ZM173.16 174.59a3.55 3.55 0 1 1 .002-7.102 3.55 3.55 0 0 1-.002 7.102Zm0-6.66c-1.72 0-3.11 1.4-3.11 3.11s1.4 3.11 3.11 3.11 3.11-1.4 3.11-3.11-1.4-3.11-3.11-3.11ZM182.79 174.59a3.55 3.55 0 1 1 .002-7.102 3.55 3.55 0 0 1-.002 7.102Zm0-6.66c-1.72 0-3.11 1.4-3.11 3.11s1.4 3.11 3.11 3.11 3.11-1.4 3.11-3.11-1.4-3.11-3.11-3.11Z"/><path class="cls-1" d="M35.34.22h156.54v66.77H35.34z"/><path class="cls-4" d="M191.88 67.21H35.34c-.12 0-.22-.1-.22-.22V.22c0-.12.1-.22.22-.22h156.54c.12 0 .22.1.22.22v66.77c0 .12-.1.22-.22.22Zm-156.32-.43h156.1V.43H35.56v66.34Z"/><path class="cls-4" d="M191.88 14.12H35.34c-.12 0-.22-.1-.22-.22V.22c0-.12.1-.22.22-.22h156.54c.12 0 .22.1.22.22V13.9c0 .12-.1.22-.22.22Zm-156.32-.43h156.1V.43H35.56v13.25Z"/><path class="cls-3" d="M45.61 24.62h61.15V56H45.61z"/><path class="cls-4" d="M185.85 28.66h-65.49c-.12 0-.22-.1-.22-.22s.1-.22.22-.22h65.5c.12 0 .22.1.22.22s-.1.22-.22.22ZM185.85 40.52h-65.49c-.12 0-.22-.1-.22-.22s.1-.22.22-.22h65.5c.12 0 .22.1.22.22s-.1.22-.22.22ZM185.85 52.38h-65.49c-.12 0-.22-.1-.22-.22s.1-.22.22-.22h65.5c.12 0 .22.1.22.22s-.1.22-.22.22ZM51.95 48.47a.24.24 0 0 1-.15-.06c-.09-.08-.09-.22-.01-.31l10.56-11.52s.1-.07.16-.07.12.03.16.07l7.71 8.84 11.16-11.98s.1-.07.16-.07.12.02.16.06l7.15 7.18 10.6-9.81c.09-.08.23-.08.31.01.08.09.08.23-.01.31l-10.75 9.95c-.09.08-.22.08-.3 0l-7.14-7.17-11.17 11.99s-.1.07-.16.07-.12-.03-.16-.07l-7.71-8.84-10.39 11.34s-.1.07-.16.07Z"/><path class="cls-4" d="M52.91 48.38a1.34 1.34 0 1 1-2.68 0 1.34 1.34 0 0 1 2.68 0ZM63.72 36.99a1.34 1.34 0 1 1-2.68 0 1.34 1.34 0 0 1 2.68 0Z"/><circle class="cls-4" cx="70.31" cy="45.2" r="1.34"/><path class="cls-4" d="M83.19 33.92a1.34 1.34 0 1 1-2.68 0 1.34 1.34 0 0 1 2.68 0ZM90.16 40.47a1.34 1.34 0 1 1-2.68 0 1.34 1.34 0 0 1 2.68 0ZM101.09 30.9a1.34 1.34 0 1 1-2.68 0 1.34 1.34 0 0 1 2.68 0ZM175.97 22.81h47.42v18.87h-47.42z"/><path style="fill:#cbd941" d="M180.45 18.12h47.42v18.87h-47.42z"/><path class="cls-4" d="M175.97 51.09h47.42v18.87h-47.42z"/><path class="cls-1" d="M180.45 46.4h47.42v18.87h-47.42z"/><path class="cls-4" d="M227.87 65.48h-47.42c-.12 0-.22-.1-.22-.22V46.39c0-.12.1-.22.22-.22h47.42c.12 0 .22.1.22.22v18.87c0 .12-.1.22-.22.22Zm-47.2-.43h46.99V46.62h-46.99v18.43ZM164.53 10.4a3.55 3.55 0 1 1 .002-7.102 3.55 3.55 0 0 1-.002 7.102Zm0-6.66c-1.72 0-3.11 1.4-3.11 3.11s1.4 3.11 3.11 3.11 3.11-1.4 3.11-3.11-1.4-3.11-3.11-3.11ZM174.15 10.4a3.55 3.55 0 1 1 .002-7.102 3.55 3.55 0 0 1-.002 7.102Zm0-6.66c-1.72 0-3.11 1.4-3.11 3.11s1.4 3.11 3.11 3.11 3.11-1.4 3.11-3.11-1.4-3.11-3.11-3.11ZM183.78 10.4a3.55 3.55 0 1 1 .002-7.102 3.55 3.55 0 0 1-.002 7.102Zm0-6.66c-1.72 0-3.11 1.4-3.11 3.11s1.4 3.11 3.11 3.11 3.11-1.4 3.11-3.11-1.4-3.11-3.11-3.11Z"/><path class="cls-1" d="M34.85 82.31h156.54v66.77H34.85z"/><path class="cls-4" d="M191.38 149.3H34.85c-.12 0-.22-.1-.22-.22V82.31c0-.12.1-.22.22-.22h156.53c.12 0 .22.1.22.22v66.77c0 .12-.1.22-.22.22Zm-156.32-.43h156.11V82.53H35.06v66.34Z"/><path class="cls-4" d="M191.38 96.21H34.85c-.12 0-.22-.1-.22-.22V82.31c0-.12.1-.22.22-.22h156.53c.12 0 .22.1.22.22v13.68c0 .12-.1.22-.22.22Zm-156.32-.43h156.11V82.53H35.06v13.25ZM23.65 106.71h51.41v31.38H23.65zM171.77 110.76h-19.16c-.12 0-.22-.1-.22-.22s.1-.22.22-.22h19.16c.12 0 .22.1.22.22s-.1.22-.22.22ZM142.24 110.76h-14.97c-.12 0-.22-.1-.22-.22s.1-.22.22-.22h14.97c.12 0 .22.1.22.22s-.1.22-.22.22ZM120.17 110.76h-13.9c-.12 0-.22-.1-.22-.22s.1-.22.22-.22h13.9c.12 0 .22.1.22.22s-.1.22-.22.22ZM171.77 122.62h-14.84c-.12 0-.22-.1-.22-.22s.1-.22.22-.22h14.84c.12 0 .22.1.22.22s-.1.22-.22.22ZM152.99 122.62h-31.48c-.12 0-.22-.1-.22-.22s.1-.22.22-.22h31.48c.12 0 .22.1.22.22s-.1.22-.22.22ZM116.14 122.62h-9.87c-.12 0-.22-.1-.22-.22s.1-.22.22-.22h9.87c.12 0 .22.1.22.22s-.1.22-.22.22ZM171.77 134.48h-37.49c-.12 0-.22-.1-.22-.22s.1-.22.22-.22h37.49c.12 0 .22.1.22.22s-.1.22-.22.22ZM130.25 134.48h-23.97c-.12 0-.22-.1-.22-.22s.1-.22.22-.22h23.97c.12 0 .22.1.22.22s-.1.22-.22.22Z"/><g style="clip-path:url(#clippath)"><path style="fill:#0055ad" d="M16.74 100.01h51.41v31.38H16.74z"/><path class="cls-3" d="M39.3 142.02c-.42 0-.81-.06-1.18-.2-.65-.23-1.12-.69-1.39-1.37-1.67-4.14 4.15-15.91 9.79-27.29 4.54-9.18 8.83-17.85 7.87-20.19-.1-.25-.26-.41-.49-.49-2.5-.86-10.54 10.13-18.31 20.77-9.07 12.4-18.44 25.23-22.9 25.44-.64.03-1.18-.19-1.59-.66-3.32-3.73 4.86-14.48 12.76-24.87 5.72-7.52 11.13-14.63 10.44-17.13-.1-.35-.32-.59-.67-.74C27.07 92.65.6 123.24.33 123.55l-.33-.28C1.1 122 26.95 92.14 33.78 94.9c.48.2.8.54.93 1.02.74 2.7-4.48 9.56-10.52 17.51-7.44 9.77-15.86 20.85-12.78 24.32.33.37.74.54 1.25.51 4.26-.2 13.99-13.52 22.57-25.26 8.59-11.75 16-21.89 18.81-20.92.35.12.6.37.75.73 1.03 2.52-3.1 10.88-7.88 20.55-5.33 10.77-11.37 22.98-9.77 26.94.23.56.6.93 1.14 1.12 8.3 2.98 30.3-32.29 30.52-32.64l.37.23c-.87 1.4-20.6 33.02-29.85 33.02Z"/></g><path class="cls-4" d="M164.03 92.49a3.55 3.55 0 1 1 .002-7.102 3.55 3.55 0 0 1-.002 7.102Zm0-6.66c-1.72 0-3.11 1.4-3.11 3.11s1.4 3.11 3.11 3.11 3.11-1.4 3.11-3.11-1.4-3.11-3.11-3.11ZM173.66 92.49a3.55 3.55 0 1 1 .002-7.102 3.55 3.55 0 0 1-.002 7.102Zm0-6.66c-1.72 0-3.11 1.4-3.11 3.11s1.4 3.11 3.11 3.11 3.11-1.4 3.11-3.11-1.4-3.11-3.11-3.11ZM183.28 92.49a3.55 3.55 0 1 1 .002-7.102 3.55 3.55 0 0 1-.002 7.102Zm0-6.66c-1.72 0-3.11 1.4-3.11 3.11s1.4 3.11 3.11 3.11 3.11-1.4 3.11-3.11-1.4-3.11-3.11-3.11Z"/></g></svg>