<svg id="Layer_2" data-name="Layer 2" xmlns="http://www.w3.org/2000/svg" viewBox="0 0 309.81 412.06"><defs><style>.cls-1{fill:#cee4ef}.cls-2,.cls-3{fill-rule:evenodd}.cls-2{fill:#b8735f}.cls-3,.cls-5{fill:#fd9f84}.cls-6{fill:#87c846}.cls-7{fill:#1b1a1f}</style></defs><g id="Layer_1-2" data-name="Layer 1"><path class="cls-1" d="M144.81 109.66c10.77 5.05 16.46 17.01 13.6 28.56l-52.88 220.6-53.76-6.56 58.37-226.46c4-15.01 20.61-22.74 34.67-16.14Z"/><path class="cls-7" d="M105.41 358.99c-.2 1.63-5.53 2.42-13.33 2.25-4.11-.09-8.91-.44-14.01-1.07-6.68-.83-12.74-2-17.34-3.26-5.6-1.53-9.06-3.2-8.89-4.57.18-1.47 4.55-2.26 11.16-2.27 4.55 0 10.16.34 16.19 1.09 6.19.77 11.85 1.83 16.31 2.98 6.2 1.6 10.1 3.39 9.92 4.84Z"/><path class="cls-3" d="m95.49 354.15-3.35 6.95s-.04.09-.07.14a16.613 16.613 0 0 0-1.58 7v2.7c-.03 2.8-.59 5.57-1.67 8.15-4.42 10.61-8.79 21.54-11.55 22.78-1.11.5-3.05.42-2.73-2.87.66-6.71 4.44-19.33-.22-15.24-6.94 6.1-16.83 25.97-19.53 27.36-1.66.85-2.93-.1-3.38-1.98-2.64 4.31-6.1 2.47-5.83-4.11h-.01c-3.42 1.13-4.3-5.87-3.03-11.69-1.28.05-2.38-.61-2.68-2.82-.84-6.2 11.11-21.13 11.11-21.13.01-.01 3.34-4.03 8.18-9.6a7.62 7.62 0 0 0 1.47-2.58l.1-.3 2.27-6.84c4.55 0 10.16.34 16.19 1.09 6.19.77 11.85 1.83 16.31 2.98Z"/><path class="cls-7" d="M51.4 409.36h-.02c-.12 0-.21-.11-.2-.23.83-10.25 11.1-26.56 11.2-26.72.06-.1.2-.13.3-.07.1.06.13.2.07.3-.1.16-10.32 16.39-11.14 26.53 0 .11-.1.2-.22.2ZM45.55 405.67c-.12 0-.22-.1-.21-.22.18-10.89 10.33-26.94 10.43-27.1.06-.1.2-.13.3-.07.1.06.13.2.07.3-.1.16-10.18 16.11-10.37 26.87 0 .12-.1.21-.22.21ZM42.49 393.56h-.05a.215.215 0 0 1-.16-.26c2.21-8.71 9.33-17.95 9.41-18.05a.22.22 0 0 1 .3-.04c.09.07.11.21.04.3s-7.14 9.27-9.33 17.89c-.02.1-.11.16-.21.16Z"/><path class="cls-2" d="m92.14 361.1-16.89-3.06 15.22 12.91s.63-7.68 1.67-9.84Z"/><path class="cls-7" d="m111 290.1-.02.34c-.01-.11 0-.23.02-.34ZM146.38 57.93l-4.51 55.84 54.91 3.23 2.86-36.95-18.91-59.66-34.35 37.54z"/><path class="cls-7" d="M229.04 76.46c-14.18-52.34-23.45-68.12-39.47-73.75-15.05-5.29-23.76-1.19-23.76-1.19l6.91 26.23 11.07 80.28 64.82 31.9-19.57-63.48Z"/><path class="cls-5" d="M163.17 102.32c7.23 2.28 32.93-2.19 32.93-2.19l1.37-69.37-41.15 33.55v33.06s-.38 2.67 6.85 4.95Z"/><path style="fill:#b8735f" d="M156.38 66.35v16.41l22.88-10.65-22.88-5.76z"/><path class="cls-5" d="M149.71 14.68s-12.25 33.72-6.13 52.41c6.13 18.69 39.48 4.76 42.78 0 3.3-4.76 21.99-26.76 12.46-48.01-7.74-17.26-38.95-27.82-49.11-4.4Z"/><path class="cls-7" d="M163.4 41.32c.27.52.32 1.12.23 1.7-.12.78-.46 1.85-1.36 1.74-1.4-.17-1.33-2.71-.41-3.61.79-.77 1.26-.36 1.54.17ZM148.59 41.32c.27.52.32 1.12.23 1.7-.12.78-.46 1.85-1.36 1.74-1.4-.17-1.33-2.71-.41-3.61.79-.77 1.26-.36 1.54.17ZM150.36 54.55s-.07 0-.1-.02c-2.42-1.21-2.94-2.63-2.63-3.55.28-.81 1.2-1.25 2.24-1.05.14.03.28-.01.43-.12 1.34-.93 2.54-6.22 2.89-8.19.02-.12.13-.2.25-.18.12.02.2.13.18.25-.05.3-1.31 7.25-3.07 8.47-.25.17-.51.23-.76.19-.82-.16-1.54.16-1.74.76-.24.71.25 1.94 2.42 3.02.11.05.15.18.1.29-.04.08-.11.12-.19.12ZM158.57 37.95c-.07 0-.15-.04-.19-.11-.06-.1-.03-.24.08-.3.13-.07 3.16-1.8 9.52-.54a.214.214 0 0 1-.08.42c-6.19-1.22-9.18.47-9.21.49-.03.02-.07.03-.11.03ZM151.76 37.43a.24.24 0 0 1-.2-.12c-.02-.03-1.24-2.39-7.39-2.39-.12 0-.22-.1-.22-.22s.1-.22.22-.22c6.48 0 7.73 2.53 7.78 2.64.05.11 0 .24-.1.29-.03.01-.06.02-.09.02Z"/><path class="cls-1" d="M154.91 60.97c1.08-.37 1.97-.6 2.95-1.24.97-.63 1.9-1.35 3.01-1.7 1.38-.44 1.69.85 1.19 1.89-1.37 2.82-4.86 4.61-7.84 3.19-.26-.12-.53-.28-.68-.53-.48-.78.39-1.27 1.37-1.61Z"/><path class="cls-7" d="M277.59 271.3c.54 4.81-36.5 13.88-82.86 19.1-46.36 5.22-83.21 4.86-83.75.05-.54-4.81 35.43-12.24 81.79-17.46 46.36-5.22 84.28-6.5 84.82-1.69Z"/><path class="cls-6" d="m127.08 261.45-15.36 150.61h81l23.42-113.44-33.05-43.69-56.01 6.52z"/><path class="cls-7" d="M192.72 412.06v-73.71l8.37 29.11-8.37 44.6z"/><path class="cls-6" d="m253.26 250.32 56.55 161.45h-94.44l-56.43-155.26 94.32-6.19z"/><path class="cls-1" d="m214.12 97.21-18.39-5.28c-12.65 7.22-20.8 9.03-39.11 4.68L124 109.29 111 290.1c1.13-4.81 36.49-12.02 81.77-17.11 46.19-5.2 84-6.49 84.81-1.74-.29-2.38-18.29-93.91-31.55-142.66a44.354 44.354 0 0 0-31.91-31.37Z"/><path class="cls-7" d="M111 290.32h-.02c-.12 0-.21-.11-.2-.23l9.62-133.73c0-.12.11-.21.23-.2.12 0 .21.11.2.23l-9.62 133.73c0 .11-.1.2-.22.2Z"/><path class="cls-1" d="m191.44 120.39-43.92 93.28c-6.64 15.21 1.12 32.86 16.83 38.24 14.17 4.85 30.31-2.99 36.06-16.82l41.45-93.2c5.38-12.93.15-27.82-12.12-34.56-14.12-7.75-31.85-1.7-38.3 13.06Z"/><path class="cls-1" d="m68.97 163.68-16.96 51.43 102.7 38.64c18.33 6.98 38.88-1.93 46.32-20.08l7.27-17.75-139.34-52.23Z"/><path class="cls-7" d="M69.83 173.02c-.05.37-.1.76-.16 1.15-.72 4.7-2.14 10.58-4.18 16.83-1.88 5.78-4 11-6.04 15.09-.28.56-.55 1.09-.82 1.6-2.66 5-5.11 7.9-6.62 7.4-1.74-.57-1.84-5.48-.57-12.52.11-.62.24-1.27.37-1.92.8-3.9 1.97-8.33 3.48-12.97 1.25-3.84 2.6-7.43 3.96-10.6.97-2.27 1.96-4.33 2.91-6.12 2.65-4.98 5.09-7.86 6.61-7.37 1.48.48 1.78 4.08 1.06 9.43Z"/><path class="cls-7" d="M174.94 203.61s-.05 0-.08-.01L68.7 163.79a.223.223 0 0 1-.13-.28c.04-.11.17-.17.28-.13l106.16 39.81c.11.04.17.17.13.28-.03.09-.12.14-.2.14Z"/><path class="cls-7" d="M168.05 256.52c-4.26 0-8.58-.75-12.79-2.34L51.93 215.3a.223.223 0 0 1-.13-.28c.04-.11.17-.17.28-.13l103.33 38.88c17.86 6.72 37.84-1.7 45.51-19.18l37.28-85.03a.22.22 0 0 1 .4.18l-37.28 85.03c-5.95 13.57-19.24 21.74-33.27 21.74Z"/><path class="cls-7" d="M155.75 196.42s-.06 0-.09-.02c-.11-.05-.15-.18-.1-.29l29.05-61.7c.05-.11.18-.16.29-.1.11.05.15.18.1.29l-29.05 61.7a.21.21 0 0 1-.2.12ZM180.86 31.94c-7.27-3.08-14.23-3.6-20.26-3.99-.02-5.89 2.27-11.96 2.27-11.96-3.72 2.63-5.64 8.52-6.56 11.56-9.53.02-15.06 1.63-15.06 1.63.62-3.74 1.96-7.51 3.58-11.01 1.98-4.3 4.17-8.19 7.86-11.12 6.38-5.07 13.55-7.22 21.49-5.6.11.02.22.05.34.07 11.3 2.39 6.34 30.42 6.34 30.42Z"/><path class="cls-7" d="M178.04 20.8s3.67 20.62 11.53 21.95c0 0-9.79 49.28 11.93 51.18 28.89 2.52 34.49 6.25 34.49 6.25l-29.16-75.89S191.11 2.94 181.79 1.51c-9.31-1.42-13.26.14-13.26.14l9.51 19.15Z"/><path class="cls-5" d="M176.01 43.66s6.61-11.78 15.38-10.21 4.2 16.3-4.87 21.51L176 43.66Z"/><path class="cls-7" d="M183.79 46.17a.22.22 0 0 1-.15-.06.199.199 0 0 1-.07-.16c0-.05.02-.11.06-.15l5.78-6.13c.08-.09.22-.09.31 0 .05.04.07.1.07.16 0 .05-.02.11-.06.15l-5.78 6.13s-.1.07-.16.07Z"/><path class="cls-3" d="M69.67 174.17c-.72 4.7-2.14 10.58-4.18 16.83-1.88 5.78-4 11-6.04 15.09-.28.56-.55 1.09-.82 1.6l-1.45-1.03-5.74-4.09-4.54-3.23 12.36-22.27 2.76-4.97 6.6 1.78 1.06.29Z"/><path class="cls-3" d="M39.55 149.37c-.54-.54-1.19-.95-1.92-1.19-4.6-1.49-20.62-4.55-25.54-5.41-3.11-.54-6.63 3.02-4.05 5.98 1.33 1.52 4.03 1.77 8.62 2.82 5.7 1.31 12.57 4.35 16.64 6.17L19.79 180.6l27.11 18.75 15.12-27.24-22.46-22.74Z"/><path class="cls-3" d="M35.34 157.78s-20.42-8.14-28.94-11.22c-5.18-1.87-8.82 4.7-4.44 7.36 3.12 1.89 29.01 14.46 29.01 14.46l4.37-10.6Z"/><path class="cls-3" d="M33.06 166.69S8.72 154.4 6.04 154.54c-2.67.14-6.74 1.41-5.47 6.07 1.27 4.66 29.84 17.8 29.84 17.8l2.64-11.72Z"/><path class="cls-3" d="M19.79 180.6s-14.22-7.82-15.78-8.99c-2.83-2.13-.72-8.8 5.16-6.68 5.88 2.12 20.96 9.32 20.96 9.32l-10.33 6.36Z"/><path class="cls-7" d="M31.81 156.6s-.05 0-.08-.01l-25.42-9.82a.21.21 0 0 1-.12-.28.21.21 0 0 1 .28-.12l25.42 9.82c.11.04.17.17.12.28-.03.09-.12.14-.2.14ZM27.76 164.73s-.05 0-.08-.02l-23.75-9.47a.21.21 0 0 1-.12-.28.21.21 0 0 1 .28-.12l23.75 9.47c.11.04.17.17.12.28-.03.08-.12.14-.2.14ZM24.37 173.51s-.06 0-.09-.02l-19.25-8.36a.22.22 0 0 1 .18-.4l19.25 8.36c.11.05.16.18.11.29a.23.23 0 0 1-.2.13Z"/><path class="cls-2" d="m49.56 201.24 8.72-11.89-1.1 17.32-7.62-5.43z"/></g></svg>