<?xml version="1.0" encoding="UTF-8"?>
<svg id="Layer_2" data-name="Layer 2" xmlns="http://www.w3.org/2000/svg" xmlns:xlink="http://www.w3.org/1999/xlink" viewBox="0 0 228.08 231.4">
  <defs>
    <style>
      .cls-1 {
        fill: #cee4ef;
      }

      .cls-2 {
        fill: #cbd941;
      }

      .cls-3 {
        fill: #87c846;
      }

      .cls-4 {
        fill: #1b1a1f;
      }

      .cls-5 {
        fill: #0055ad;
      }

      .cls-6 {
        clip-path: url(#clippath);
      }

      .cls-7 {
        fill: none;
      }
    </style>
    <clipPath id="clippath">
      <rect class="cls-7" x="16.74" y="100.01" width="51.41" height="31.38"/>
    </clipPath>
  </defs>
  <g id="Layer_1-2" data-name="Layer 1">
    <g>
      <g>
        <g>
          <rect class="cls-1" x="34.35" y="164.41" width="156.54" height="66.77"/>
          <path class="cls-4" d="M190.89,231.4H34.35c-.12,0-.22-.1-.22-.22v-66.77c0-.12,.1-.22,.22-.22H190.89c.12,0,.22,.1,.22,.22v66.77c0,.12-.1,.22-.22,.22Zm-156.32-.43H190.67v-66.34H34.57v66.34Z"/>
        </g>
        <path class="cls-4" d="M190.89,178.31H34.35c-.12,0-.22-.1-.22-.22v-13.68c0-.12,.1-.22,.22-.22H190.89c.12,0,.22,.1,.22,.22v13.68c0,.12-.1,.22-.22,.22Zm-156.32-.43H190.67v-13.25H34.57v13.25Z"/>
        <g>
          <rect class="cls-3" x="52.88" y="188.81" width="31.38" height="31.38"/>
          <g>
            <path class="cls-4" d="M171.28,192.85H105.78c-.12,0-.22-.1-.22-.22s.1-.22,.22-.22h65.5c.12,0,.22,.1,.22,.22s-.1,.22-.22,.22Z"/>
            <path class="cls-4" d="M171.28,204.71H105.78c-.12,0-.22-.1-.22-.22s.1-.22,.22-.22h65.5c.12,0,.22,.1,.22,.22s-.1,.22-.22,.22Z"/>
            <path class="cls-4" d="M171.28,216.57H105.78c-.12,0-.22-.1-.22-.22s.1-.22,.22-.22h65.5c.12,0,.22,.1,.22,.22s-.1,.22-.22,.22Z"/>
          </g>
        </g>
        <g>
          <path class="cls-4" d="M163.54,174.59c-1.96,0-3.55-1.59-3.55-3.55s1.59-3.55,3.55-3.55,3.55,1.59,3.55,3.55-1.59,3.55-3.55,3.55Zm0-6.66c-1.72,0-3.11,1.4-3.11,3.11s1.4,3.11,3.11,3.11,3.11-1.4,3.11-3.11-1.4-3.11-3.11-3.11Z"/>
          <path class="cls-4" d="M173.16,174.59c-1.96,0-3.55-1.59-3.55-3.55s1.59-3.55,3.55-3.55,3.55,1.59,3.55,3.55-1.59,3.55-3.55,3.55Zm0-6.66c-1.72,0-3.11,1.4-3.11,3.11s1.4,3.11,3.11,3.11,3.11-1.4,3.11-3.11-1.4-3.11-3.11-3.11Z"/>
          <path class="cls-4" d="M182.79,174.59c-1.96,0-3.55-1.59-3.55-3.55s1.59-3.55,3.55-3.55,3.55,1.59,3.55,3.55-1.59,3.55-3.55,3.55Zm0-6.66c-1.72,0-3.11,1.4-3.11,3.11s1.4,3.11,3.11,3.11,3.11-1.4,3.11-3.11-1.4-3.11-3.11-3.11Z"/>
        </g>
      </g>
      <g>
        <g>
          <rect class="cls-1" x="35.34" y=".22" width="156.54" height="66.77"/>
          <path class="cls-4" d="M191.88,67.21H35.34c-.12,0-.22-.1-.22-.22V.22c0-.12,.1-.22,.22-.22H191.88c.12,0,.22,.1,.22,.22V66.99c0,.12-.1,.22-.22,.22Zm-156.32-.43H191.66V.43H35.56V66.77Z"/>
        </g>
        <path class="cls-4" d="M191.88,14.12H35.34c-.12,0-.22-.1-.22-.22V.22c0-.12,.1-.22,.22-.22H191.88c.12,0,.22,.1,.22,.22V13.9c0,.12-.1,.22-.22,.22Zm-156.32-.43H191.66V.43H35.56V13.68Z"/>
        <g>
          <rect class="cls-3" x="45.61" y="24.62" width="61.15" height="31.38"/>
          <g>
            <path class="cls-4" d="M185.85,28.66H120.36c-.12,0-.22-.1-.22-.22s.1-.22,.22-.22h65.5c.12,0,.22,.1,.22,.22s-.1,.22-.22,.22Z"/>
            <path class="cls-4" d="M185.85,40.52H120.36c-.12,0-.22-.1-.22-.22s.1-.22,.22-.22h65.5c.12,0,.22,.1,.22,.22s-.1,.22-.22,.22Z"/>
            <path class="cls-4" d="M185.85,52.38H120.36c-.12,0-.22-.1-.22-.22s.1-.22,.22-.22h65.5c.12,0,.22,.1,.22,.22s-.1,.22-.22,.22Z"/>
          </g>
          <path class="cls-4" d="M51.95,48.47c-.05,0-.1-.02-.15-.06-.09-.08-.09-.22-.01-.31l10.56-11.52s.1-.07,.16-.07c.06,0,.12,.03,.16,.07l7.71,8.84,11.16-11.98s.1-.07,.16-.07c.06,0,.12,.02,.16,.06l7.15,7.18,10.6-9.81c.09-.08,.23-.08,.31,.01,.08,.09,.08,.23-.01,.31l-10.75,9.95c-.09,.08-.22,.08-.3,0l-7.14-7.17-11.17,11.99s-.1,.07-.16,.07c-.06,0-.12-.03-.16-.07l-7.71-8.84-10.39,11.34s-.1,.07-.16,.07Z"/>
          <path class="cls-4" d="M52.91,48.38c0,.74-.6,1.34-1.34,1.34s-1.34-.6-1.34-1.34,.6-1.34,1.34-1.34,1.34,.6,1.34,1.34Z"/>
          <path class="cls-4" d="M63.72,36.99c0,.74-.6,1.34-1.34,1.34s-1.34-.6-1.34-1.34,.6-1.34,1.34-1.34,1.34,.6,1.34,1.34Z"/>
          <circle class="cls-4" cx="70.31" cy="45.2" r="1.34"/>
          <path class="cls-4" d="M83.19,33.92c0,.74-.6,1.34-1.34,1.34s-1.34-.6-1.34-1.34,.6-1.34,1.34-1.34,1.34,.6,1.34,1.34Z"/>
          <path class="cls-4" d="M90.16,40.47c0,.74-.6,1.34-1.34,1.34s-1.34-.6-1.34-1.34,.6-1.34,1.34-1.34,1.34,.6,1.34,1.34Z"/>
          <path class="cls-4" d="M101.09,30.9c0,.74-.6,1.34-1.34,1.34s-1.34-.6-1.34-1.34,.6-1.34,1.34-1.34,1.34,.6,1.34,1.34Z"/>
          <g>
            <rect class="cls-4" x="175.97" y="22.81" width="47.42" height="18.87"/>
            <rect class="cls-2" x="180.45" y="18.12" width="47.42" height="18.87"/>
          </g>
          <g>
            <rect class="cls-4" x="175.97" y="51.09" width="47.42" height="18.87"/>
            <g>
              <rect class="cls-1" x="180.45" y="46.4" width="47.42" height="18.87"/>
              <path class="cls-4" d="M227.87,65.48h-47.42c-.12,0-.22-.1-.22-.22v-18.87c0-.12,.1-.22,.22-.22h47.42c.12,0,.22,.1,.22,.22v18.87c0,.12-.1,.22-.22,.22Zm-47.2-.43h46.99v-18.43h-46.99v18.43Z"/>
            </g>
          </g>
        </g>
        <g>
          <path class="cls-4" d="M164.53,10.4c-1.96,0-3.55-1.59-3.55-3.55s1.59-3.55,3.55-3.55,3.55,1.59,3.55,3.55-1.59,3.55-3.55,3.55Zm0-6.66c-1.72,0-3.11,1.4-3.11,3.11s1.4,3.11,3.11,3.11,3.11-1.4,3.11-3.11-1.4-3.11-3.11-3.11Z"/>
          <path class="cls-4" d="M174.15,10.4c-1.96,0-3.55-1.59-3.55-3.55s1.59-3.55,3.55-3.55,3.55,1.59,3.55,3.55-1.59,3.55-3.55,3.55Zm0-6.66c-1.72,0-3.11,1.4-3.11,3.11s1.4,3.11,3.11,3.11,3.11-1.4,3.11-3.11-1.4-3.11-3.11-3.11Z"/>
          <path class="cls-4" d="M183.78,10.4c-1.96,0-3.55-1.59-3.55-3.55s1.59-3.55,3.55-3.55,3.55,1.59,3.55,3.55-1.59,3.55-3.55,3.55Zm0-6.66c-1.72,0-3.11,1.4-3.11,3.11s1.4,3.11,3.11,3.11,3.11-1.4,3.11-3.11-1.4-3.11-3.11-3.11Z"/>
        </g>
      </g>
      <g>
        <g>
          <rect class="cls-1" x="34.85" y="82.31" width="156.54" height="66.77"/>
          <path class="cls-4" d="M191.38,149.3H34.85c-.12,0-.22-.1-.22-.22V82.31c0-.12,.1-.22,.22-.22H191.38c.12,0,.22,.1,.22,.22v66.77c0,.12-.1,.22-.22,.22Zm-156.32-.43H191.17V82.53H35.06v66.34Z"/>
        </g>
        <path class="cls-4" d="M191.38,96.21H34.85c-.12,0-.22-.1-.22-.22v-13.68c0-.12,.1-.22,.22-.22H191.38c.12,0,.22,.1,.22,.22v13.68c0,.12-.1,.22-.22,.22Zm-156.32-.43H191.17v-13.25H35.06v13.25Z"/>
        <g>
          <rect class="cls-4" x="23.65" y="106.71" width="51.41" height="31.38"/>
          <g>
            <path class="cls-4" d="M171.77,110.76h-19.16c-.12,0-.22-.1-.22-.22s.1-.22,.22-.22h19.16c.12,0,.22,.1,.22,.22s-.1,.22-.22,.22Z"/>
            <path class="cls-4" d="M142.24,110.76h-14.97c-.12,0-.22-.1-.22-.22s.1-.22,.22-.22h14.97c.12,0,.22,.1,.22,.22s-.1,.22-.22,.22Z"/>
            <path class="cls-4" d="M120.17,110.76h-13.9c-.12,0-.22-.1-.22-.22s.1-.22,.22-.22h13.9c.12,0,.22,.1,.22,.22s-.1,.22-.22,.22Z"/>
            <path class="cls-4" d="M171.77,122.62h-14.84c-.12,0-.22-.1-.22-.22s.1-.22,.22-.22h14.84c.12,0,.22,.1,.22,.22s-.1,.22-.22,.22Z"/>
            <path class="cls-4" d="M152.99,122.62h-31.48c-.12,0-.22-.1-.22-.22s.1-.22,.22-.22h31.48c.12,0,.22,.1,.22,.22s-.1,.22-.22,.22Z"/>
            <path class="cls-4" d="M116.14,122.62h-9.87c-.12,0-.22-.1-.22-.22s.1-.22,.22-.22h9.87c.12,0,.22,.1,.22,.22s-.1,.22-.22,.22Z"/>
            <path class="cls-4" d="M171.77,134.48h-37.49c-.12,0-.22-.1-.22-.22s.1-.22,.22-.22h37.49c.12,0,.22,.1,.22,.22s-.1,.22-.22,.22Z"/>
            <path class="cls-4" d="M130.25,134.48h-23.97c-.12,0-.22-.1-.22-.22s.1-.22,.22-.22h23.97c.12,0,.22,.1,.22,.22s-.1,.22-.22,.22Z"/>
          </g>
          <g class="cls-6">
            <rect class="cls-5" x="16.74" y="100.01" width="51.41" height="31.38"/>
            <path class="cls-3" d="M39.3,142.02c-.42,0-.81-.06-1.18-.2-.65-.23-1.12-.69-1.39-1.37-1.67-4.14,4.15-15.91,9.79-27.29,4.54-9.18,8.83-17.85,7.87-20.19-.1-.25-.26-.41-.49-.49-2.5-.86-10.54,10.13-18.31,20.77-9.07,12.4-18.44,25.23-22.9,25.44-.64,.03-1.18-.19-1.59-.66-3.32-3.73,4.86-14.48,12.76-24.87,5.72-7.52,11.13-14.63,10.44-17.13-.1-.35-.32-.59-.67-.74C27.07,92.65,.6,123.24,.33,123.55l-.33-.28c1.1-1.27,26.95-31.13,33.78-28.37,.48,.2,.8,.54,.93,1.02,.74,2.7-4.48,9.56-10.52,17.51-7.44,9.77-15.86,20.85-12.78,24.32,.33,.37,.74,.54,1.25,.51,4.26-.2,13.99-13.52,22.57-25.26,8.59-11.75,16-21.89,18.81-20.92,.35,.12,.6,.37,.75,.73,1.03,2.52-3.1,10.88-7.88,20.55-5.33,10.77-11.37,22.98-9.77,26.94,.23,.56,.6,.93,1.14,1.12,8.3,2.98,30.3-32.29,30.52-32.64l.37,.23c-.87,1.4-20.6,33.02-29.85,33.02Z"/>
          </g>
        </g>
        <g>
          <path class="cls-4" d="M164.03,92.49c-1.96,0-3.55-1.59-3.55-3.55s1.59-3.55,3.55-3.55,3.55,1.59,3.55,3.55-1.59,3.55-3.55,3.55Zm0-6.66c-1.72,0-3.11,1.4-3.11,3.11s1.4,3.11,3.11,3.11,3.11-1.4,3.11-3.11-1.4-3.11-3.11-3.11Z"/>
          <path class="cls-4" d="M173.66,92.49c-1.96,0-3.55-1.59-3.55-3.55s1.59-3.55,3.55-3.55,3.55,1.59,3.55,3.55-1.59,3.55-3.55,3.55Zm0-6.66c-1.72,0-3.11,1.4-3.11,3.11s1.4,3.11,3.11,3.11,3.11-1.4,3.11-3.11-1.4-3.11-3.11-3.11Z"/>
          <path class="cls-4" d="M183.28,92.49c-1.96,0-3.55-1.59-3.55-3.55s1.59-3.55,3.55-3.55,3.55,1.59,3.55,3.55-1.59,3.55-3.55,3.55Zm0-6.66c-1.72,0-3.11,1.4-3.11,3.11s1.4,3.11,3.11,3.11,3.11-1.4,3.11-3.11-1.4-3.11-3.11-3.11Z"/>
        </g>
      </g>
    </g>
  </g>
</svg>