<?xml version="1.0" encoding="UTF-8"?>
<svg id="Layer_2" data-name="Layer 2" xmlns="http://www.w3.org/2000/svg" xmlns:xlink="http://www.w3.org/1999/xlink" viewBox="0 0 812.06 568.46">
  <defs>
    <style>
      .cls-1, .cls-2, .cls-3 {
        fill: #ffb28c;
      }

      .cls-4, .cls-5, .cls-6, .cls-7, .cls-8, .cls-9, .cls-10, .cls-11, .cls-12, .cls-13, .cls-14, .cls-15, .cls-16, .cls-3 {
        fill-rule: evenodd;
      }

      .cls-4, .cls-17 {
        fill: #d7cef4;
      }

      .cls-18 {
        fill: #3788dc;
      }

      .cls-19, .cls-20, .cls-2, .cls-21, .cls-22 {
        clip-rule: evenodd;
      }

      .cls-19, .cls-10 {
        fill: #6fd9f8;
      }

      .cls-23 {
        clip-path: url(#clippath-2);
      }

      .cls-24 {
        fill: #498ee8;
      }

      .cls-25, .cls-9 {
        fill: #de8458;
      }

      .cls-26 {
        clip-path: url(#clippath-6);
      }

      .cls-20, .cls-16, .cls-27 {
        fill: #bbd5ea;
      }

      .cls-5 {
        fill: rgba(129, 173, 243, .6);
      }

      .cls-6, .cls-21 {
        fill: #0cf3f7;
      }

      .cls-28, .cls-15 {
        fill: #303032;
      }

      .cls-29 {
        clip-path: url(#clippath-7);
      }

      .cls-30 {
        clip-path: url(#clippath-1);
      }

      .cls-31 {
        clip-path: url(#clippath-4);
      }

      .cls-7, .cls-32 {
        fill: #3282e3;
      }

      .cls-8 {
        fill: #81adf3;
      }

      .cls-33, .cls-11 {
        fill: #abc6ed;
      }

      .cls-34 {
        fill: #fab74e;
      }

      .cls-35 {
        clip-path: url(#clippath);
      }

      .cls-36 {
        clip-path: url(#clippath-3);
      }

      .cls-37 {
        clip-path: url(#clippath-8);
      }

      .cls-12 {
        fill: rgba(213, 235, 247, .71);
      }

      .cls-13, .cls-22 {
        fill: #9ec6ee;
      }

      .cls-38 {
        clip-path: url(#clippath-5);
      }

      .cls-14 {
        fill: rgba(187, 225, 242, .48);
      }

      .cls-39 {
        opacity: .71;
      }
    </style>
    <clipPath id="clippath">
      <path class="cls-1" d="M563.25,320.78l6.72,14.27s79.37-72.66,92.2-71.49c2.49,.23,8.75,1.69,4,10.5-1.96,3.63-7.69,8.17-13.32,14.91-19.32,23.07,8.33-19,15.04-20.21,4.09-.73,8.21,2.59,6.72,8.19-.96,3.61-4.87,7.76-10.62,13.77-14.65,15.34-14.52,15.51-14.52,15.51,0,0,16.83-26.38,23.9-26.5,3.71-.06,11.83,4.5,1.7,17.04s-17.02,15.33-17.02,15.33c0,0,17.17-27.07,21.02-11.1,2.51,10.46-87.51,99.8-109.8,114.21-22.29,14.41-51.99-20.41-61.5-63.42l55.48-31.02Z"/>
    </clipPath>
    <clipPath id="clippath-1">
      <path class="cls-22" d="M347.32,333.94c-85.41-6.61-147.88-27.55-147.88-52.33s61.38-45.37,145.63-52.17l2.25,104.5Z"/>
    </clipPath>
    <clipPath id="clippath-2">
      <polygon class="cls-2" points="415.39 173.7 462.26 175.96 459.5 234.77 412.63 232.51 415.39 173.7"/>
    </clipPath>
    <clipPath id="clippath-3">
      <path class="cls-2" d="M480.14,126.92c3.29,7.9,2.92,23.71,1.21,37.47-1.82,14.64-5.07,23.99-10.88,28.57-7.74,6.1-20.23,8.35-36.92-4.39-7.79-5.95-15.88-15.59-25.96-28.86-9.29-12.24-11.19-42.08,16.46-51.6,27.64-9.51,49.87,3.88,56.09,18.82Z"/>
    </clipPath>
    <clipPath id="clippath-4">
      <path class="cls-1" d="M210.76,313.22c26.69,30.71,76.9,78.96,92.78,89.22,22.29,14.41,51.99-20.41,61.5-63.42l-55.48-31.02-6.72,14.27s-10.33-9.46-24.14-21.49c-17.59-15.32-41.31-21.57-64.16-16.9h0s-3.77,29.34-3.77,29.34Z"/>
    </clipPath>
    <clipPath id="clippath-5">
      <path class="cls-20" d="M199.36,275.42c4.63,29.02,94.82,52.19,205.24,52.19,11.6,0,22.97-.26,34.05-.75v180.27s-16.19-1.01-34.05-2.28c-49.95-3.55-205.42-24.43-205.42-54.52v-174.95l.19,.03Z"/>
    </clipPath>
    <clipPath id="clippath-6">
      <path class="cls-21" d="M420.79,440.78c132.32,0,240.05-25.91,242.6-58.06,.11,7.79,.54,38.18,.54,51.47,0,32.69-108.72,59.22-242.64,59.22l-.49-52.63Z"/>
    </clipPath>
    <clipPath id="clippath-7">
      <path class="cls-19" d="M174.52,315.68c-33.18,7.06-57.46,16.46-68.26,27.12-10.25-19.78-10.16-44.98-10.16-53.03,0-16.27,30.66-30.84,78.89-40.57l-.47,66.48Z"/>
    </clipPath>
    <clipPath id="clippath-8">
      <path class="cls-21" d="M149.46,394.35c-32.51-9.23-52.11-21.15-52.11-34.16,0-18.43,.13-59.19,.16-69.61,2.03,12.79,23.03,24.43,56.45,33.35l-4.5,70.42Z"/>
    </clipPath>
  </defs>
  <g id="Layer_1-2" data-name="Layer 1">
    <g>
      <path class="cls-33" d="M643.25,300.95c-.12,0-.23-.03-.34-.1-29.24-19.36-90.26-37.2-167.4-48.96-.3-.05-.52-.3-.52-.6v-36.15c0-.18,.08-.34,.21-.46,.13-.12,.31-.17,.49-.14,36.74,5.4,69.81,12.03,98.28,19.72,30.12,8.13,53.53,17.04,69.58,26.48,.19,.11,.3,.31,.3,.52v39.08c0,.22-.12,.43-.32,.54-.09,.05-.19,.07-.29,.07Zm-167.03-50.19c37.43,5.72,70.81,12.77,99.24,20.94,29.44,8.46,52.03,17.72,67.19,27.52v-37.61c-30.9-18.05-91.49-34.71-166.42-45.77v34.92Z"/>
      <path class="cls-11" d="M607.45,347.29c31.39,9.99,55.9,22.47,55.9,36.03,0,7.97-6.49,15.59-18.25,22.55-9.39-5.55-22.15-10.69-37.65-15.25v-43.34Z"/>
      <g>
        <path class="cls-1" d="M563.25,320.78l6.72,14.27s79.37-72.66,92.2-71.49c2.49,.23,8.75,1.69,4,10.5-1.96,3.63-7.69,8.17-13.32,14.91-19.32,23.07,8.33-19,15.04-20.21,4.09-.73,8.21,2.59,6.72,8.19-.96,3.61-4.87,7.76-10.62,13.77-14.65,15.34-14.52,15.51-14.52,15.51,0,0,16.83-26.38,23.9-26.5,3.71-.06,11.83,4.5,1.7,17.04s-17.02,15.33-17.02,15.33c0,0,17.17-27.07,21.02-11.1,2.51,10.46-87.51,99.8-109.8,114.21-22.29,14.41-51.99-20.41-61.5-63.42l55.48-31.02Z"/>
        <g class="cls-35">
          <g>
            <path class="cls-25" d="M661.62,315.4c-.23,0-.45-.13-.55-.36-9.12-20.32-23.28-26.09-23.42-26.14-.31-.12-.47-.48-.34-.79,.12-.31,.47-.47,.79-.34,.15,.06,3.75,1.49,8.54,5.52,4.4,3.7,10.67,10.39,15.54,21.25,.14,.31,0,.67-.31,.8-.08,.04-.17,.05-.25,.05Z"/>
            <path class="cls-25" d="M647.54,295.32c-.13,0-.27-.04-.38-.14-.26-.21-.3-.59-.09-.85l21.25-26.09c.21-.26,.59-.3,.85-.09,.26,.21,.3,.59,.09,.85l-21.25,26.09c-.12,.15-.3,.22-.47,.22Z"/>
            <path class="cls-25" d="M660.38,312.32c-.17,0-.34-.07-.46-.21-.22-.25-.2-.64,.05-.86,.1-.09,9.95-8.82,15.18-15.55,.21-.27,.59-.31,.85-.11,.27,.21,.31,.59,.11,.85-5.29,6.82-15.23,15.62-15.33,15.71-.12,.1-.26,.15-.4,.15Z"/>
            <path class="cls-25" d="M653.59,302.29c-.15,0-.31-.06-.43-.17-.24-.24-.24-.62,0-.86,.15-.16,15.35-15.66,19.72-21.88,.19-.27,.57-.34,.85-.15,.27,.19,.34,.57,.15,.85-4.43,6.3-19.22,21.39-19.85,22.03-.12,.12-.28,.18-.43,.18Z"/>
            <path class="cls-25" d="M651.51,314.01c-.07,0-.15-.01-.22-.04-6.95-2.75-15.3-1.49-15.39-1.47-.21,.03-.42-.05-.56-.21-.14-.16-.18-.39-.11-.59,2.83-8.33-.26-15.47-.29-15.54-.14-.31,0-.67,.31-.8,.31-.14,.67,0,.8,.31,.13,.3,3.09,7.14,.62,15.51,2.46-.26,9.14-.68,15.06,1.67,.31,.12,.46,.48,.34,.79-.09,.24-.32,.38-.57,.38Z"/>
            <path class="cls-9" d="M519.31,354.36l48.65-23.58-8.36-18.66-43.78,26.83,3.49,15.4Z"/>
          </g>
        </g>
      </g>
      <path class="cls-3" d="M612.34,304.22s.52-23.15,5.36-32.32c4.85-9.16,10.51,1.76,12.91,7.28,2.39,5.52,7.31,5.16,7.31,5.16l-25.58,19.88Z"/>
      <path class="cls-12" d="M318.17,111.7c133.28,0,254.31,10.74,343.2,28.19l-1.44,41.2c-87.25-15.74-215.43-25.32-341.24-25.32l-.52-44.07Z"/>
      <g>
        <g>
          <path class="cls-13" d="M347.32,333.94c-85.41-6.61-147.88-27.55-147.88-52.33s61.38-45.37,145.63-52.17l2.25,104.5Z"/>
          <g class="cls-30">
            <path class="cls-27" d="M346.87,367.1s-.03,0-.05,0c-41.85-3.24-79.53-10.12-106.12-19.38-27.69-9.64-42.32-21.25-42.32-33.55s14.39-23.73,41.63-33.33c26.13-9.21,63.27-16.12,104.56-19.44,.34-.03,.63,.22,.65,.56,.03,.33-.22,.63-.56,.65-41.19,3.32-78.22,10.2-104.26,19.38-13.06,4.6-23.2,9.68-30.14,15.09-7.08,5.52-10.67,11.27-10.67,17.09s3.65,11.66,10.86,17.22c7.07,5.45,17.38,10.56,30.65,15.18,26.49,9.23,64.07,16.09,105.82,19.32,.33,.03,.58,.32,.56,.65-.02,.32-.29,.56-.61,.56Z"/>
          </g>
        </g>
        <path class="cls-7" d="M523.23,381.27l18.61,104.56h-191.21l16.66-117.75,155.93,13.19Z"/>
        <g>
          <path class="cls-15" d="M480.94,134.65s5.28,39.59,6.93,76.59h-34.43l-7.34-85.7,34.84,9.12Z"/>
          <g>
            <g>
              <polygon class="cls-3" points="415.39 173.7 462.26 175.96 459.5 234.77 412.63 232.51 415.39 173.7"/>
              <g class="cls-23">
                <path class="cls-9" d="M469.5,201.2c2.59-1.61-12.79,7.37-28.72-4.59-12.22-9.18-18-24.82-16.61-25.22,1.47-.43-3.1,1.91-3.1,1.91l43.63,24.23,4.8,3.67Z"/>
              </g>
            </g>
            <g>
              <path class="cls-3" d="M480.14,126.92c3.29,7.9,2.92,23.71,1.21,37.47-1.82,14.64-5.07,23.99-10.88,28.57-7.74,6.1-20.23,8.35-36.92-4.39-7.79-5.95-15.88-15.59-25.96-28.86-9.29-12.24-11.19-42.08,16.46-51.6,27.64-9.51,49.87,3.88,56.09,18.82Z"/>
              <g class="cls-36">
                <g>
                  <path class="cls-28" d="M456.81,155.33c-.08,0-.15-.01-.23-.04-6.57-2.64-11.94-.44-11.99-.42-.31,.13-.67-.01-.8-.32-.13-.31,.01-.66,.32-.8,.24-.1,5.86-2.42,12.92,.41,.31,.12,.46,.48,.34,.79-.1,.24-.32,.38-.56,.38Z"/>
                  <path class="cls-15" d="M415.34,199.33l9.41-43.13s12.62-1.82,34.84-24.53c0,0,16.13,19.71,36.62,19.17l-24.92-50.18-37.37-4.34-26.92,8.92-17.22,23.38,5.89,25.53,19.67,45.17Z"/>
                  <path class="cls-28" d="M485.36,159.84c-.08,0-.17-.02-.25-.06-7.71-3.55-10.94-1.8-10.97-1.79-.29,.17-.66,.06-.83-.23-.17-.29-.06-.66,.23-.83,.15-.09,3.81-2.06,12.08,1.74,.3,.14,.44,.5,.3,.81-.1,.22-.32,.35-.55,.35Z"/>
                </g>
              </g>
            </g>
            <path class="cls-25" d="M464.55,179.57c-1.22,0-2.54-.22-3.09-.32-.33-.06-.55-.38-.49-.71,.06-.33,.38-.55,.71-.49,1.71,.31,3.84,.43,4.28,.1,.8-.62,.19-2.39-.35-3.96-.07-.22-.15-.43-.22-.64-1.13-3.37-2.38-6.92-2.39-6.95-.11-.32,.05-.66,.37-.78,.32-.11,.66,.05,.78,.37,.01,.04,1.27,3.59,2.4,6.97,.07,.2,.14,.41,.21,.62,.68,1.96,1.44,4.17-.06,5.32-.45,.34-1.27,.45-2.14,.45Z"/>
            <path class="cls-4" d="M455.66,186.16c-.73,.67-3.92,2.64-6.65,.13-3.14-2.9-1.66-6.86,.16-6.14,1.81,.71,3.47,2.19,5.15,3.01,1.68,.81,2.36,2.06,1.34,3.01Z"/>
            <path class="cls-15" d="M453.72,164.6c.09-.77-.45-1.46-1.22-1.56h0c-.37-.05-.73,.05-1.02,.28-.29,.22-.48,.55-.52,.92-.12,.99-.27,2.31-.39,3.3-.09,.77,.45,1.46,1.22,1.56h0c.37,.05,.73-.05,1.02-.28,.29-.23,.48-.55,.52-.92,.12-.99,.27-2.31,.39-3.3Z"/>
            <path class="cls-15" d="M475.44,166.42c.09-.77-.45-1.46-1.22-1.56h0c-.37-.05-.73,.05-1.02,.28-.29,.22-.48,.55-.52,.92-.12,.99-.27,2.31-.39,3.3-.09,.77,.45,1.46,1.22,1.56h0c.37,.05,.73-.05,1.02-.28,.29-.23,.48-.55,.52-.92,.12-.99,.27-2.31,.39-3.3Z"/>
          </g>
          <path class="cls-15" d="M421.12,111.06c-.76-.04-35.9,3.97-54.45,100.27h14.02s9.93-22.04,9.93-22.04l-2.63,22.04h26.13s12.48-70.25,12.48-70.25l-5.48-30.01Z"/>
          <g>
            <path class="cls-3" d="M438.34,165.7c.87-1.14-15.44-16.22-24.89-9.08-10.13,7.66,4.76,22.74,9.76,23.39l15.13-14.31Z"/>
            <path class="cls-25" d="M425.27,169.47c-.13,0-.27-.04-.38-.14l-5.82-4.73c-.26-.21-.3-.59-.09-.85,.21-.26,.59-.3,.85-.09l5.82,4.73c.26,.21,.3,.59,.09,.85-.12,.15-.3,.22-.47,.22Z"/>
          </g>
          <g>
            <path class="cls-1" d="M210.76,313.22c26.69,30.71,76.9,78.96,92.78,89.22,22.29,14.41,51.99-20.41,61.5-63.42l-55.48-31.02-6.72,14.27s-10.33-9.46-24.14-21.49c-17.59-15.32-41.31-21.57-64.16-16.9h0s-3.77,29.34-3.77,29.34Z"/>
            <g class="cls-31">
              <path class="cls-9" d="M302.84,322.27l56.66,16.2-5.13-17.99-38.96-20.94-14.89,9.12,2.33,13.62Z"/>
            </g>
          </g>
          <path class="cls-8" d="M413.94,214.03s-77.75,6.54-108.87,96.69l52.05,24.67-1.06,65.88s96.77,15.9,178.06-12.64l-10.59-36.86,42.22-30.26s-31.12-100.38-105.13-107.48c0,0-1.43,19.22-24.23,18.16-18.23-.85-22.44-18.16-22.44-18.16Z"/>
          <path class="cls-24" d="M534.12,389.24c-.26,0-.51-.17-.58-.44l-22.52-77.37c-.09-.32,.09-.66,.41-.75,.32-.09,.66,.09,.75,.41l22.52,77.37c.09,.32-.09,.66-.41,.75-.06,.02-.11,.02-.17,.02Z"/>
          <path class="cls-24" d="M356.06,401.88s0,0-.01,0c-.34,0-.6-.28-.6-.62l1.47-87.85c0-.34,.28-.6,.62-.6,.34,0,.6,.28,.6,.62l-1.47,87.85c0,.33-.28,.6-.61,.6Z"/>
          <path class="cls-32" d="M439.86,241.85c-11.26,0-19.12-4.53-23.74-8.36-5.08-4.2-7.41-8.37-7.51-8.54-.16-.29-.06-.66,.24-.82,.29-.16,.66-.06,.83,.24,.02,.04,2.34,4.18,7.26,8.23,4.52,3.73,12.24,8.15,23.32,8.04,1.81-.02,3.57-.17,5.23-.45,7.79-1.33,12.54-5.4,15.16-8.59,2.85-3.46,3.87-6.66,3.88-6.69,.1-.32,.44-.5,.76-.4,.32,.1,.5,.44,.4,.76-.04,.14-1.08,3.42-4.07,7.06-2.75,3.36-7.75,7.66-15.93,9.06-1.73,.29-3.55,.45-5.42,.47-.13,0-.27,0-.4,0Z"/>
          <path class="cls-32" d="M440.25,278.12c-.34,0-.61-.27-.61-.61v-36.28c0-.34,.27-.61,.61-.61s.61,.27,.61,.61v36.28c0,.34-.27,.61-.61,.61Z"/>
          <g>
            <path class="cls-32" d="M433.11,253.68c-2.13,0-3.86-1.73-3.86-3.86s1.73-3.86,3.86-3.86,3.86,1.73,3.86,3.86-1.73,3.86-3.86,3.86Zm0-6.5c-1.46,0-2.64,1.18-2.64,2.64s1.18,2.64,2.64,2.64,2.64-1.18,2.64-2.64-1.18-2.64-2.64-2.64Z"/>
            <path class="cls-32" d="M433.23,265.23c-2.13,0-3.86-1.73-3.86-3.86s1.73-3.86,3.86-3.86,3.86,1.73,3.86,3.86-1.73,3.86-3.86,3.86Zm0-6.5c-1.46,0-2.64,1.18-2.64,2.64s1.18,2.64,2.64,2.64,2.64-1.18,2.64-2.64-1.18-2.64-2.64-2.64Z"/>
            <path class="cls-32" d="M433.57,276.79c-2.13,0-3.86-1.73-3.86-3.86s1.73-3.86,3.86-3.86,3.86,1.73,3.86,3.86-1.73,3.86-3.86,3.86Zm0-6.5c-1.46,0-2.64,1.18-2.64,2.64s1.18,2.64,2.64,2.64,2.64-1.18,2.64-2.64-1.18-2.64-2.64-2.64Z"/>
          </g>
          <path class="cls-15" d="M420.22,128.57c-4.26,1.57-33.15-2.24-28.45-21.09,2.59-10.4,15.67-8.45,15.67-8.45,0,0,2.09-15.34,15.93-11.36,15.26,4.4,8.84,31.52,8.84,31.52,0,0-7.51,7.72-11.99,9.37Z"/>
        </g>
        <g>
          <path class="cls-16" d="M199.36,275.42c4.63,29.02,94.82,52.19,205.24,52.19,11.6,0,22.97-.26,34.05-.75v180.27s-16.19-1.01-34.05-2.28c-49.95-3.55-205.42-24.43-205.42-54.52v-174.95l.19,.03Z"/>
          <g class="cls-38">
            <path class="cls-18" d="M414.96,363.05c-6.03,0-13.08-.09-21.02-.35-25.35-.83-65.14-3.59-110.77-12.02-20.17-3.73-37.26-8.26-50.81-13.46-10.87-4.18-19.5-8.8-25.66-13.74-10.65-8.55-10.25-15.1-10.23-15.38,.03-.33,.32-.58,.65-.56,.33,.03,.58,.32,.56,.65,0,.13-.25,6.37,9.99,14.51,9.58,7.61,30.49,18.43,75.71,26.78,45.54,8.41,85.26,11.17,110.57,12,27.42,.9,44.28-.2,44.44-.21,.33-.02,.62,.23,.65,.57,.02,.33-.23,.62-.57,.65-.12,0-8.7,.57-23.52,.57Z"/>
          </g>
        </g>
        <g>
          <path class="cls-18" d="M415.27,352.57c-.15,0-.31-.06-.42-.17-.24-.23-.24-.62-.01-.86l12.7-13.02c.23-.24,.62-.25,.86-.01,.24,.23,.24,.62,.01,.86l-12.7,13.02c-.12,.12-.28,.18-.43,.18Z"/>
          <path class="cls-18" d="M427.97,352.58c-.16,0-.32-.06-.43-.18l-12.7-13.02c-.23-.24-.23-.62,.01-.86,.24-.23,.62-.23,.86,.01l12.7,13.02c.23,.24,.23,.62-.01,.86-.12,.12-.27,.17-.42,.17Z"/>
        </g>
        <g>
          <path class="cls-6" d="M420.79,440.78c132.32,0,240.05-25.91,242.6-58.06,.11,7.79,.54,38.18,.54,51.47,0,32.69-108.72,59.22-242.64,59.22l-.49-52.63Z"/>
          <g class="cls-26">
            <g>
              <path class="cls-17" d="M418.4,504.85c-.14,0-.27-.04-.38-.14-.26-.21-.3-.59-.09-.85l62.31-76.29c.21-.26,.59-.3,.85-.09,.26,.21,.3,.59,.09,.85l-62.31,76.29c-.12,.15-.29,.22-.47,.22Z"/>
              <path class="cls-17" d="M452.94,504.85c-.14,0-.27-.04-.38-.14-.26-.21-.3-.59-.09-.85l62.31-76.29c.21-.26,.59-.3,.85-.09,.26,.21,.3,.59,.09,.85l-62.31,76.29c-.12,.15-.29,.22-.47,.22Z"/>
              <path class="cls-17" d="M487.48,504.85c-.14,0-.27-.04-.38-.14-.26-.21-.3-.59-.09-.85l62.31-76.29c.21-.26,.59-.3,.85-.09,.26,.21,.3,.59,.09,.85l-62.31,76.29c-.12,.15-.29,.22-.47,.22Z"/>
              <path class="cls-17" d="M522.02,504.85c-.14,0-.27-.04-.38-.14-.26-.21-.3-.59-.09-.85l102.21-125.16c.21-.26,.59-.3,.85-.09s.3,.59,.09,.85l-102.21,125.16c-.12,.15-.29,.22-.47,.22Z"/>
              <path class="cls-17" d="M556.56,504.85c-.14,0-.27-.04-.38-.14-.26-.21-.3-.59-.09-.85l102.21-125.16c.21-.26,.59-.3,.85-.09,.26,.21,.3,.59,.09,.85l-102.21,125.16c-.12,.15-.29,.22-.47,.22Z"/>
              <path class="cls-17" d="M591.1,504.85c-.14,0-.27-.04-.38-.14-.26-.21-.3-.59-.09-.85l102.21-125.16c.21-.26,.59-.3,.85-.09,.26,.21,.3,.59,.09,.85l-102.21,125.16c-.12,.15-.29,.22-.47,.22Z"/>
            </g>
          </g>
        </g>
        <path class="cls-5" d="M362.73,557.99c-25.83-2.38-52-5.47-70.33-9.91v-165.66c20.73,3.87,44.27,6.75,69.64,8.38l.69,167.19Z"/>
      </g>
      <path class="cls-34" d="M158.56,425.35s-.1,0-.14-.02c-16.53-3.99-41.89-11.8-63.51-21.75-12.07-5.55-21.66-11.17-28.48-16.7-8.06-6.53-12.3-12.97-12.62-19.17-.31-6.07,2.72-12.19,8.99-18.21,4.95-4.75,11.95-9.46,20.79-13.98,15.01-7.69,30.38-12.28,30.54-12.32,.32-.1,.66,.09,.75,.41,.1,.32-.09,.66-.41,.75-.15,.05-15.43,4.6-30.34,12.24-8.73,4.47-15.62,9.11-20.49,13.78-6,5.76-8.9,11.57-8.61,17.27,.55,10.88,14.52,22.92,40.39,34.82,21.54,9.91,46.82,17.69,63.29,21.67,.33,.08,.53,.41,.45,.73-.07,.28-.32,.46-.59,.46Z"/>
      <g>
        <path class="cls-10" d="M174.52,315.68c-33.18,7.06-57.46,16.46-68.26,27.12-10.25-19.78-10.16-44.98-10.16-53.03,0-16.27,30.66-30.84,78.89-40.57l-.47,66.48Z"/>
        <g class="cls-29">
          <path class="cls-17" d="M102.49,307.19c-.29,0-.55-.21-.6-.52-.02-.12-.43-2.96,1.01-7.1,1.32-3.78,4.5-9.41,12.2-14.8,23.63-16.55,61.04-24.37,61.41-24.45,.33-.07,.65,.14,.72,.47,.07,.33-.14,.65-.47,.72-.37,.08-37.54,7.85-60.96,24.25-7.4,5.18-10.46,10.54-11.72,14.13-1.37,3.88-.99,6.57-.99,6.6,.05,.33-.18,.64-.51,.69-.03,0-.06,0-.09,0Z"/>
        </g>
      </g>
      <g>
        <path class="cls-6" d="M149.46,394.35c-32.51-9.23-52.11-21.15-52.11-34.16,0-18.43,.13-59.19,.16-69.61,2.03,12.79,23.03,24.43,56.45,33.35l-4.5,70.42Z"/>
        <g class="cls-37">
          <g>
            <path class="cls-17" d="M159.14,343.46c-3.4,0-15.65-3.87-34.45-10.91-16.79-6.29-25.52-15.31-29.88-21.76-4.76-7.03-5.5-12.52-5.53-12.75-.04-.33,.19-.64,.53-.68,.33-.04,.64,.19,.68,.53,.01,.09,.77,5.5,5.38,12.29,4.27,6.29,12.81,15.08,29.26,21.24,29.51,11.05,33.77,10.93,34.24,10.85,.24-.1,.52-.05,.7,.16,.22,.25,.19,.64-.06,.86-.14,.12-.43,.19-.86,.19Zm.06-1.1s0,0,0,0c0,0,0,0,0,0Zm0,0s0,0,0,0c0,0,0,0,0,0Zm0,0s0,0,0,0c0,0,0,0,0,0Zm0,0s0,0,0,0c0,0,0,0,0,0Zm.18-.1h0Z"/>
            <path class="cls-17" d="M145.11,334.56c-2.86,0-5.19-2.33-5.19-5.19s2.33-5.19,5.19-5.19,5.19,2.33,5.19,5.19-2.33,5.19-5.19,5.19Zm0-9.16c-2.19,0-3.97,1.78-3.97,3.97s1.78,3.97,3.97,3.97,3.97-1.78,3.97-3.97-1.78-3.97-3.97-3.97Z"/>
          </g>
        </g>
      </g>
      <g>
        <path class="cls-3" d="M230.62,315.42c.6,1.92,2.17,3.38,4.12,3.84,1.96,.46,4.01-.16,5.4-1.61,5.65-5.93,12.19-14.21,8.3-17.39-5.38-4.38-8.49,.61-8.49,.61,0,0,4.81-5.32-1.01-8.82-4.59-2.76-7.3,3.15-7.3,3.15,0,0,2.88-5.83-3.44-8.65-5.19-2.31-8.35,4.58-8.35,4.58,0,0,1.54-4.22-1.12-5.9-3.48-2.19-5.24-1.07-7.9,2.87-3.62,5.37-10.07,21.63,2.66,18.84,0,0,1.67,8.09,8.94,4.86,0,0,1.05,7.53,8.19,3.61h0Z"/>
        <path class="cls-25" d="M230.62,316.02c-.11,0-.22-.03-.32-.09-.28-.18-.37-.55-.19-.84l9.79-15.47c.18-.28,.55-.37,.84-.19,.28,.18,.37,.55,.19,.84l-9.79,15.47c-.12,.18-.31,.28-.51,.28Z"/>
        <path class="cls-25" d="M222.37,311.83c-.1,0-.21-.03-.3-.08-.29-.17-.39-.54-.23-.83l9.38-16.38c.17-.29,.54-.39,.83-.23,.29,.17,.39,.54,.23,.83l-9.38,16.38c-.11,.2-.32,.31-.53,.31Z"/>
        <path class="cls-25" d="M213.23,306.94c-.08,0-.17-.02-.24-.05-.31-.14-.45-.49-.31-.8l7.09-16.07c.14-.31,.49-.45,.8-.31,.31,.14,.45,.49,.31,.8l-7.09,16.07c-.1,.23-.32,.36-.56,.36Z"/>
      </g>
      <g>
        <path class="cls-14" d="M469.72,291.1c108.22-7.82,201.53-24.83,266.33-47.56v77.69c-65.42,22.52-159.79,39.32-266.33,46.92v-77.05Z"/>
        <g>
          <g class="cls-39">
            <path class="cls-17" d="M631.03,331.35c-.14,0-.28-.05-.39-.14-.14-.12-.22-.29-.22-.47v-41.75c0-.29,.21-.54,.49-.6l12.22-2.38c.18-.03,.36,.01,.5,.13,.14,.12,.22,.29,.22,.47v41.79c0,.29-.21,.54-.49,.6l-12.22,2.35s-.08,.01-.11,.01Zm.61-41.86v40.52l11.01-2.11v-40.55l-11.01,2.14Z"/>
          </g>
          <g class="cls-39">
            <path class="cls-17" d="M650.09,327.26c-.14,0-.28-.05-.39-.14-.14-.12-.22-.29-.22-.47v-27c0-.29,.21-.54,.49-.6l12.22-2.38c.18-.03,.36,.01,.5,.13,.14,.12,.22,.29,.22,.47v27.04c0,.29-.21,.54-.49,.6l-12.22,2.35s-.08,.01-.11,.01Zm.61-27.11v25.77l11.01-2.11v-25.8l-11.01,2.14Z"/>
          </g>
          <g class="cls-39">
            <path class="cls-17" d="M669.15,323.49c-.14,0-.28-.05-.39-.14-.14-.12-.22-.29-.22-.47v-34.06c0-.29,.21-.54,.49-.6l12.22-2.38c.18-.03,.36,.01,.5,.13,.14,.12,.22,.29,.22,.47v34.09c0,.29-.21,.54-.49,.6l-12.22,2.35s-.08,.01-.11,.01Zm.61-34.17v32.82l11.01-2.11v-32.86l-11.01,2.14Z"/>
          </g>
          <g class="cls-39">
            <path class="cls-17" d="M688.2,319.99c-.14,0-.28-.05-.39-.14-.14-.12-.22-.29-.22-.47v-49.32c0-.29,.21-.54,.49-.6l12.22-2.38c.18-.03,.36,.01,.5,.13,.14,.12,.22,.29,.22,.47v49.36c0,.29-.21,.54-.49,.6l-12.22,2.35s-.08,.01-.11,.01Zm.61-49.43v48.09l11.01-2.11v-48.12l-11.01,2.14Z"/>
          </g>
        </g>
        <g>
          <g class="cls-39">
            <path class="cls-17" d="M570.05,337.97c-.15,0-.29-.06-.41-.16-.13-.12-.2-.28-.2-.46l.27-31.41c0-.31,.23-.56,.54-.6,.28-.03,27.69-3.25,36.24-5.38,.18-.05,.37,0,.52,.11,.15,.11,.23,.29,.23,.48l.03,31.5c0,.29-.21,.55-.5,.6-11.79,2.13-23.78,3.87-36.66,5.31-.02,0-.05,0-.07,0Zm.87-31.47l-.26,30.18c12.42-1.4,24.01-3.08,35.4-5.13l-.03-30.22c-8.62,1.98-31.33,4.72-35.11,5.17Z"/>
          </g>
          <g class="cls-39">
            <path class="cls-17" d="M570.27,314.19c-.3,0-.56-.22-.6-.53-.04-.33,.18-.63,.5-.68l36.38-5.93c.31-.05,.61,.14,.69,.44,.08,.3-.08,.62-.38,.72-8.69,3.22-35.4,5.86-36.53,5.97-.02,0-.04,0-.06,0Z"/>
          </g>
          <g class="cls-39">
            <path class="cls-17" d="M602.5,307.29c-1.3,0-2.36-1.06-2.36-2.36s1.06-2.36,2.36-2.36,2.36,1.06,2.36,2.36-1.06,2.36-2.36,2.36Zm0-3.5c-.63,0-1.14,.51-1.14,1.14s.51,1.14,1.14,1.14,1.14-.51,1.14-1.14-.51-1.14-1.14-1.14Z"/>
          </g>
        </g>
        <g>
          <path class="cls-17" d="M495.92,351.35c-.15,0-.3-.06-.41-.16-.12-.11-.19-.28-.19-.44v-50.52c0-.32,.24-.58,.56-.61l1.48-.12c12.2-.96,27.39-2.16,39.31-3.76,.17-.02,.35,.03,.48,.15,.13,.12,.21,.28,.21,.46v50.18c0,.3-.21,.55-.51,.6-12.64,2.15-40.6,4.2-40.88,4.22-.01,0-.03,0-.04,0Zm.61-50.56v49.3c4.23-.32,27.91-2.15,39.61-4.08v-48.97c-11.85,1.55-26.71,2.73-38.69,3.67l-.92,.07Z"/>
          <path class="cls-17" d="M498.84,317.79c-.16,0-.32-.06-.44-.19-.23-.25-.22-.63,.03-.86l9.48-8.85c.12-.11,.28-.17,.44-.16,.16,0,.32,.08,.43,.2l3.64,4.05,6.33-7.02c.12-.13,.28-.19,.45-.2,.17,0,.34,.07,.45,.2l5.49,6.14,8.16-11.63c.19-.27,.57-.34,.85-.15,.27,.19,.34,.57,.15,.85l-8.6,12.26c-.11,.15-.28,.25-.46,.26-.18,.01-.37-.06-.49-.2l-5.55-6.21-6.33,7.02c-.12,.13-.28,.2-.45,.2h0c-.17,0-.34-.07-.45-.2l-3.68-4.1-9.03,8.43c-.12,.11-.27,.16-.41,.16Z"/>
        </g>
        <g class="cls-39">
          <path class="cls-17" d="M711.25,304.41c-.15,0-.29-.05-.4-.15-.13-.12-.21-.28-.21-.46v-35.61c0-.27,.18-.51,.43-.58,.35-.1,34.96-10.45,45.78-15.88,.19-.09,.41-.08,.59,.03,.18,.11,.29,.31,.29,.52v35.44c0,.24-.15,.47-.37,.56-1.44,.6-35.43,14.8-46.04,16.13-.03,0-.05,0-.08,0Zm.61-35.77v34.46c10.56-1.71,40.94-14.25,44.66-15.79v-34.06c-11.05,5.22-40.71,14.21-44.66,15.4Z"/>
        </g>
      </g>
      <g>
        <path class="cls-17" d="M712.27,76.66c-17.85,0-32.38-14.52-32.38-32.38s14.52-32.38,32.38-32.38,32.38,14.52,32.38,32.38-14.52,32.38-32.38,32.38Zm0-63.54c-17.18,0-31.16,13.98-31.16,31.16s13.98,31.16,31.16,31.16,31.16-13.98,31.16-31.16-13.98-31.16-31.16-31.16Z"/>
        <path class="cls-17" d="M45.39,499.19c-11.84,0-21.47-9.63-21.47-21.47s9.63-21.47,21.47-21.47,21.47,9.63,21.47,21.47-9.63,21.47-21.47,21.47Zm0-41.73c-11.17,0-20.26,9.09-20.26,20.26s9.09,20.26,20.26,20.26,20.26-9.09,20.26-20.26-9.09-20.26-20.26-20.26Z"/>
        <path class="cls-17" d="M228.35,186.47c-7.02,0-12.74-5.71-12.74-12.74s5.71-12.74,12.74-12.74,12.74,5.71,12.74,12.74-5.71,12.74-12.74,12.74Zm0-24.26c-6.35,0-11.52,5.17-11.52,11.52s5.17,11.52,11.52,11.52,11.52-5.17,11.52-11.52-5.17-11.52-11.52-11.52Z"/>
        <path class="cls-17" d="M343.32,390.06c-4.51,0-8.17-3.67-8.17-8.17s3.67-8.17,8.17-8.17,8.17,3.67,8.17,8.17-3.67,8.17-8.17,8.17Zm0-15.13c-3.84,0-6.96,3.12-6.96,6.96s3.12,6.96,6.96,6.96,6.96-3.12,6.96-6.96-3.12-6.96-6.96-6.96Z"/>
        <path class="cls-17" d="M129.27,172.23c-2.94,0-5.32-2.39-5.32-5.32s2.39-5.32,5.32-5.32,5.32,2.39,5.32,5.32-2.39,5.32-5.32,5.32Zm0-9.43c-2.27,0-4.11,1.84-4.11,4.11s1.84,4.11,4.11,4.11,4.11-1.84,4.11-4.11-1.84-4.11-4.11-4.11Z"/>
        <path class="cls-17" d="M442.38,38.5c-2.94,0-5.32-2.39-5.32-5.32s2.39-5.32,5.32-5.32,5.32,2.39,5.32,5.32-2.39,5.32-5.32,5.32Zm0-9.43c-2.27,0-4.11,1.84-4.11,4.11s1.84,4.11,4.11,4.11,4.11-1.84,4.11-4.11-1.84-4.11-4.11-4.11Z"/>
        <path class="cls-17" d="M597.35,522.27c-2.94,0-5.32-2.39-5.32-5.32s2.39-5.32,5.32-5.32,5.32,2.39,5.32,5.32-2.39,5.32-5.32,5.32Zm0-9.43c-2.27,0-4.11,1.84-4.11,4.11s1.84,4.11,4.11,4.11,4.11-1.84,4.11-4.11-1.84-4.11-4.11-4.11Z"/>
        <path class="cls-17" d="M659.62,558.88c-1.75,0-3.17-1.42-3.17-3.17s1.42-3.17,3.17-3.17,3.17,1.42,3.17,3.17-1.42,3.17-3.17,3.17Zm0-5.12c-1.08,0-1.95,.88-1.95,1.95s.88,1.95,1.95,1.95,1.95-.88,1.95-1.95-.88-1.95-1.95-1.95Z"/>
        <path class="cls-17" d="M791.93,434.03c-.11,0-.22-.03-.32-.09l-31.2-19.53c-.28-.18-.37-.55-.19-.84l19.52-31.2c.18-.28,.55-.37,.84-.19l31.2,19.52c.28,.18,.37,.55,.19,.84l-19.52,31.21c-.09,.14-.22,.23-.38,.27-.05,.01-.09,.02-.14,.02Zm-30.36-20.33l30.17,18.88,18.87-30.18-30.17-18.87-18.88,30.17Z"/>
        <path class="cls-34" d="M520.86,33.19c-.11,0-.23-.03-.33-.1-.18-.12-.29-.33-.28-.55l1.94-31.97c.01-.21,.13-.4,.32-.5,.19-.1,.41-.09,.59,.01l27.54,16.35c.19,.11,.3,.32,.3,.54,0,.22-.13,.42-.32,.52l-29.49,15.62c-.09,.05-.19,.07-.28,.07Zm2.49-31.55l-1.82,29.9,27.58-14.61-25.76-15.29Z"/>
        <path class="cls-34" d="M22.84,123.68c-.12,0-.24-.03-.34-.1L.27,108.6c-.18-.12-.28-.33-.27-.54,.01-.22,.14-.41,.34-.5l24.2-11.92c.2-.1,.43-.08,.61,.04,.18,.12,.28,.33,.27,.55l-1.96,26.9c-.02,.22-.15,.41-.34,.5-.08,.04-.18,.06-.27,.06ZM1.82,108.17l20.5,13.81,1.81-24.8L1.82,108.17Z"/>
        <path class="cls-34" d="M300.79,552.46c-.67,0-1.35,0-2.03,0-17.88-.09-37.12-1.33-57.18-3.7-34.17-4.03-59.23-10.01-59.48-10.07-.33-.08-.53-.41-.45-.73,.08-.33,.41-.53,.73-.45,.25,.06,25.26,6.02,59.36,10.04,31.45,3.71,77.29,6.49,117.06-1.37,.33-.07,.65,.15,.71,.48,.07,.33-.15,.65-.48,.71-17.1,3.38-36.69,5.09-58.24,5.09Z"/>
        <path class="cls-34" d="M297.73,568.46c-.67,0-1.35,0-2.03,0-17.88-.09-37.12-1.33-57.18-3.7-34.17-4.03-59.23-10.01-59.48-10.07-.33-.08-.53-.41-.45-.73,.08-.33,.41-.53,.73-.45,.25,.06,25.26,6.02,59.36,10.04,31.45,3.71,77.29,6.49,117.06-1.37,.33-.07,.65,.15,.71,.48,.06,.33-.15,.65-.48,.71-17.1,3.38-36.69,5.09-58.24,5.09Z"/>
      </g>
    </g>
  </g>
</svg>