<svg id="Layer_2" data-name="Layer 2" xmlns="http://www.w3.org/2000/svg" viewBox="0 0 337.52 389.36"><defs><style>.cls-1{fill:#fff}.cls-3{fill:#fd9f84}.cls-5{fill:#87c846}.cls-6{fill:#1b1a1f}.cls-7{fill:#0055ad}</style></defs><g id="Layer_1-2" data-name="Layer 1"><ellipse class="cls-1" cx="178.84" cy="151.62" rx="5.9" ry="50.39" transform="rotate(-74.28 178.829 151.619)"/><path class="cls-3" d="m216.43 52.06 4.06-14.44-15.4-21.93-8.36 32.26s11.87 5.69 15.69 5.57c3.82-.12 4-1.47 4-1.47Z"/><path style="fill:#b8735f" d="m218 46.51-10.31-8.86 13.4.37-3.09 8.49z"/><path class="cls-3" d="M230.5 14.42s1.34 18.06-4.19 26.3c-5.53 8.24-19.83-3.08-20.78-5.85-.95-2.77-7.02-16 .51-25.03 7.54-9.02 23.02-6.01 24.46 4.58Z"/><path class="cls-6" d="m201.37 30.29 6.96-7.4s5.47.34 6.86-1.62l4.03-5.66s2.2.82 5.59 1.41c2.8.48 5.67.42 8.42-.3 2.07-.54 4.19-1.46 5.08-3.06 3.88-6.95 1.17-6.2-9.1-6.98 0 0-23.28-14.2-26.36-1.21 0 0-10.28 11.03-1.48 24.82Z"/><path class="cls-3" d="M213.76 24.9s-1.6-6.63-6.07-7.07c-4.48-.44-4.27 7.35-.58 11.12l6.65-4.05Z"/><path class="cls-6" d="M216.77 1.08s10.31 1.99 12.94 1.14c5.07-1.65 7.51.67 7.56 2.22.04 1.55-.94 3.89-4.14 5.08-5 1.86-10.66-1.37-13.68-3.28-3.02-1.91-2.68-5.16-2.68-5.16ZM223.21 24.46c-.08 0-.16-.03-.23-.09s-1.93-1.65-4.3-1.21a.343.343 0 0 1-.4-.28c-.03-.19.09-.37.28-.4 2.71-.5 4.8 1.3 4.88 1.37.14.13.16.35.03.49-.07.08-.16.12-.26.12ZM210.02 26.27a.34.34 0 0 1-.3-.17l-2.85-4.89a.34.34 0 0 1 .12-.47c.17-.1.38-.04.47.12l2.85 4.89c.1.17.04.38-.12.47-.05.03-.11.05-.17.05ZM230.43 25.5s-.1 0-.14-.03c-1.75-.79-3.37-.29-3.39-.28a.35.35 0 0 1-.44-.22.35.35 0 0 1 .22-.44c.08-.02 1.88-.59 3.88.31.17.08.25.28.17.46a.34.34 0 0 1-.32.2ZM220.21 25.49c-.2.22-.31.5-.35.8-.05.39-.03.96.42 1.03.7.11 1.02-1.13.69-1.7-.28-.48-.57-.35-.77-.13ZM227.4 27.51c-.2.22-.31.5-.35.8-.05.39-.03.96.42 1.03.7.11 1.02-1.13.69-1.7-.28-.48-.57-.35-.77-.13ZM223.64 34.28h-.06a.34.34 0 0 1-.33-.36c0-.19.17-.34.36-.33.51.03 1.99-.55 2.23-1.12.03-.06.08-.18-.13-.37-1.21-1.12-1.08-4.18-1.06-4.52a.346.346 0 0 1 .69.03c-.05.85.02 3.22.84 3.98.49.45.4.91.3 1.14-.37.88-2.07 1.55-2.85 1.55Z"/><path class="cls-1" d="M221.1 37.49c.12-.26.02-.57-.23-.73-.73-.46-2.41-1.56-3.3-2.56-1.16-1.3-1.67 2.19.78 3.39 1.86.91 2.52.38 2.75-.11ZM250.85 111.81c-6.28 6.12-12.45 9.97-13.79 8.6-1.34-1.37 2.67-7.45 8.95-13.57s12.98-9.39 14.32-8.02c1.34 1.37-3.2 6.87-9.48 12.99Z"/><path class="cls-3" d="m239.26 78.65 30.56 36.29L321 104.01l3.77 19.03s-52.18 14.47-62.54 14.46c-10.36-.01-31.46-31.13-31.46-31.13l8.5-27.72Z"/><path class="cls-6" d="M260.33 98.82c-1.34-1.37-8.04 1.9-14.32 8.02-5.75 5.6-9.59 11.17-9.18 13.12l-19.94-20.12 20.06-28.59 23.38 27.57Z"/><path class="cls-7" d="M189.44 148.11s-10.55 21.06-21.84 42.69c-9.14 17.51-18.78 35.38-23.71 42.76-1.02 1.53-1.84 2.61-2.41 3.14-6.74 6.27-106.11 32.24-106.11 32.24l-4.64-40.96 88.34-28.77 24.26-64.07 46.11 12.98Z"/><path class="cls-6" d="M35.88 268.71c-1.29.17-2.95-3.86-4.34-9.96-.03-.1-.05-.2-.07-.3-.65-2.9-1.24-6.25-1.7-9.83-.72-5.62-1-10.77-.86-14.55.03-.7.07-1.36.12-1.96.24-2.71.77-4.37 1.56-4.48.8-.1 1.75 1.43 2.69 4.07l.03.09c.2.56.39 1.16.59 1.81 1.08 3.62 2.09 8.59 2.8 14.13.4 3.07.65 6 .79 8.64.03.52.05 1.03.07 1.52.2 6.31-.38 10.67-1.68 10.84Z"/><path class="cls-3" d="M37.49 256.35c-1.89.48-4.05 1.23-5.95 2.39-1.03.63-1.99 1.38-2.78 2.27-4.31 4.87.23-28.92.23-28.92h.05l4.25-.42.03.09c.2.56.39 1.16.59 1.81 1.08 3.62 2.09 8.59 2.8 14.13.4 3.07.65 6 .79 8.64Z"/><path class="cls-5" d="m0 232.66 5.26 61.95s1.29.36 3.04.46c.59.04 1.23.04 1.9 0 2.89-.19 6.18-1.39 7.25-5.53 3.81-14.6 1.96-15.02 8.18-24.49 2.36-3.59 4.75-5.67 4.75-5.67l-1.41-27.27-23.35.45-5.63.11Z"/><path class="cls-6" d="M22.81 270.09c-.1 0-.2-.05-.27-.13-4.33-5.39-5.13-11.8-3.17-14.4.92-1.22 2.37-1.5 4.08-.78 1.1.46 1.87 1.29 2.29 2.44 1.6 4.42-2.45 12.34-2.63 12.67-.05.1-.16.17-.27.19h-.03Zm-1.1-15.01c-.73 0-1.33.3-1.78.89-1.72 2.28-.96 8.14 2.82 13.12.86-1.8 3.63-8.09 2.35-11.63-.36-.98-.98-1.65-1.91-2.04-.53-.23-1.03-.34-1.47-.34Z"/><path class="cls-6" d="M32.3 275.19c-2.68 0-6.42-1.66-9.91-5.48-.08-.09-.11-.22-.08-.34.04-.12.13-.21.25-.23.49-.11 11.95-2.7 13.24 1.37.58 1.84.14 3.35-1.23 4.14-.61.35-1.39.54-2.28.54Zm-8.98-5.5c4.29 4.46 8.79 5.6 10.92 4.37 1.07-.62 1.4-1.8.91-3.33-.86-2.71-8.34-1.76-11.83-1.04ZM0 232.66l5.26 61.95s1.29.36 3.04.46c.59.04 1.23.04 1.9 0l-4.57-62.51-5.63.11Z"/><path class="cls-6" d="M5.86 251.97c-.1 0-.21-.05-.28-.14-.12-.15-.08-.37.07-.49.08-.06 8.28-6.42 6.61-18.88-.03-.19.11-.36.3-.39.19-.03.36.11.39.3 1.72 12.88-6.8 19.46-6.88 19.53-.06.05-.14.07-.21.07Z"/><path d="m33.31 231.78-1.78 26.97 5.95-2.39s-1.46-20.41-4.18-24.58Z" style="fill:#d1836d"/><path class="cls-7" d="m219.43 152.04-10.95 94.97c-1.57 12.05-13.46 19.9-25.16 16.6-8.4-2.37-14.29-9.92-14.52-18.65l-3-110.08 53.63 17.15Z"/><path class="cls-7" d="m171.03 232.93-51.99 85.69 29.82 28.34 55.26-89.92c8.89-10.95 4.31-27.41-8.96-32.19-8.94-3.23-18.93.12-24.12 8.09Z"/><path class="cls-6" d="M148.86 346.95c-.91.96-4.85-1.17-9.92-5.13-2.35-1.83-4.93-4.04-7.57-6.53-4.6-4.33-8.39-8.55-10.64-11.7-1.83-2.56-2.64-4.41-2.05-5.04.63-.66 2.7.15 5.58 2.01 3.24 2.09 7.5 5.5 11.9 9.64 2.4 2.26 4.58 4.49 6.43 6.55 4.59 5.11 7.2 9.2 6.26 10.2Z"/><path class="cls-3" d="M142.6 336.75c-1.27 1.71-2.61 3.55-3.66 5.07-.97 1.41-1.72 2.55-1.97 3.1-.5 1.1-.86 2.26-1.01 3.45-.8 6.45-16.13-24.01-16.13-24.01l.04-.04.86-.74 3.54-3.03c3.24 2.09 7.5 5.5 11.9 9.64 2.4 2.26 4.58 4.49 6.43 6.55Z"/><path class="cls-5" d="m96.22 341.18 39.3 48.17s1.27-.43 2.77-1.34c.51-.3 1.04-.66 1.56-1.08 2.28-1.79 4.32-4.64 2.87-8.66-5.09-14.2-6.86-13.51-7.06-24.84-.08-4.3.72-7.36.72-7.36l-16.55-21.72-19.02 13.55-4.59 3.27Z"/><path class="cls-6" d="M135.98 359.28s-.07 0-.1-.01c-6.62-2.01-10.89-6.85-10.74-10.1.07-1.53 1.11-2.58 2.93-2.94 1.17-.24 2.27 0 3.27.72 3.81 2.75 4.94 11.57 4.98 11.95.01.12-.03.23-.12.31a.35.35 0 0 1-.22.08Zm-7.05-12.46c-.24 0-.48.03-.73.08-1.5.3-2.32 1.1-2.38 2.3-.14 2.85 3.8 7.26 9.73 9.24-.31-1.97-1.57-8.73-4.62-10.93-.63-.46-1.3-.68-2-.68Z"/><path class="cls-6" d="M140.4 359.73c-1.46 0-3.06-.18-4.79-.58a.338.338 0 0 1-.25-.24c-.04-.12 0-.25.08-.34.34-.37 8.34-8.97 11.7-6.34 1.52 1.19 2 2.69 1.32 4.11-.9 1.88-3.85 3.38-8.06 3.38Zm-4.04-1.13c6.06 1.26 10.41-.34 11.48-2.55.54-1.12.14-2.28-1.12-3.27-2.24-1.75-7.88 3.25-10.35 5.82ZM96.22 341.18l39.3 48.17s1.27-.43 2.77-1.34c.51-.3 1.04-.66 1.56-1.08l-39.05-49.02-4.59 3.27Z"/><path class="cls-6" d="M111.76 353.88s-.07 0-.11-.02a.35.35 0 0 1-.22-.44c.03-.1 3.21-9.97-5.2-19.32a.34.34 0 0 1 .03-.49.34.34 0 0 1 .49.03c8.69 9.66 5.37 19.9 5.34 20.01-.05.14-.18.24-.33.24ZM35.88 269.06a.34.34 0 0 1-.33-.26c-.05-.19.06-.37.25-.42.97-.26 97.38-25.61 105.47-31.96 8.09-6.34 39.24-71.4 39.56-72.05.08-.17.29-.25.46-.16.17.08.25.29.16.46-1.28 2.69-31.54 65.86-39.76 72.3-8.21 6.44-101.75 31.04-105.73 32.08-.03 0-.06.01-.09.01Z"/><path class="cls-6" d="m174.55 178.04-6.06 48.83-1.07-34.59 7.13-14.24zM227.48 164.78l-.18-.05c-1.29-3.5-21.47-11.65-46.86-18.8-26.79-7.54-49.22-11.12-50.1-7.98 3.16-8.83 26.45-72.99 39.67-84.2 5.45-4.62 21.47-5.57 21.47-5.57s24.88 7.84 27.86 9.03c2.98 1.19 15.75 11.82 17.61 14.03 1.87 2.2-9.47 93.53-9.47 93.53Z"/><path class="cls-6" d="M196.52 119.58c-.06 0-.12-.02-.18-.05a.354.354 0 0 1-.12-.48l4.54-7.56c.1-.16.31-.22.48-.12.16.1.22.31.12.48l-4.54 7.56a.34.34 0 0 1-.3.17Z"/><path class="cls-1" transform="rotate(29.03 303.09 109.2)" d="M281.15 77.63h43.81v63.11h-43.81z"/><circle class="cls-5" cx="302.67" cy="134.21" r="4.06" transform="rotate(-29.34 302.667 134.214)"/><path class="cls-6" d="M325.32 101.55c-.06 0-.11-.01-.17-.04l-27.28-15.14a.334.334 0 0 1-.13-.47c.09-.17.3-.23.47-.13l27.28 15.14c.17.09.23.3.13.47a.35.35 0 0 1-.3.18ZM322.39 106.83c-.06 0-.11-.01-.17-.04l-27.28-15.14a.334.334 0 0 1-.13-.47c.09-.17.3-.23.47-.13l27.28 15.14c.17.09.23.3.13.47a.35.35 0 0 1-.3.18ZM319.47 112.1c-.06 0-.11-.01-.17-.04l-27.28-15.14a.334.334 0 0 1-.13-.47c.09-.17.3-.23.47-.13l27.28 15.14c.17.09.23.3.13.47a.35.35 0 0 1-.3.18ZM316.54 117.37c-.06 0-.11-.01-.17-.04l-27.28-15.14a.334.334 0 0 1-.13-.47c.09-.17.3-.23.47-.13l27.28 15.14c.17.09.23.3.13.47a.35.35 0 0 1-.3.18ZM313.61 122.64c-.06 0-.11-.01-.17-.04l-27.28-15.14a.334.334 0 0 1-.13-.47c.09-.17.3-.23.47-.13L313.78 122c.17.09.23.3.13.47a.35.35 0 0 1-.3.18ZM310.69 127.92c-.06 0-.11-.01-.17-.04l-27.28-15.14a.334.334 0 0 1-.13-.47c.09-.17.3-.23.47-.13l27.28 15.14c.17.09.23.3.13.47a.35.35 0 0 1-.3.18Z"/><path class="cls-1" d="M198.73 99.38c-.15 0-.29-.1-.33-.25l-7.42-25.41c-.05-.18.05-.38.24-.43.18-.05.38.05.43.24l7.42 25.41c.05.18-.05.38-.24.43-.03 0-.07.01-.1.01Z"/><path class="cls-6" d="m219.98 50.66-25.07-8.51-3.44 6.05 28.96 10.67-.45-8.21z"/><path class="cls-1" d="M220.37 58.11h-.01c-13.85-.48-28.92-9.53-29.07-9.62a.354.354 0 0 1-.12-.48c.1-.16.31-.22.48-.12.15.09 15.07 9.05 28.73 9.52.19 0 .34.17.33.36 0 .19-.16.33-.35.33Z"/><path class="cls-3" d="M330.67 111.22c-.43-.52-1.09-.77-1.76-.76-2.03.03-7.57.29-8.03 2.28-.57 2.43 4 2.25 6.72 2.14 2.31-.09 4.38-2.11 3.07-3.66Z"/><path class="cls-3" d="M328.85 114.51s-9.15-.6-9.66 1.87c-.51 2.46 4.59 2.52 7.61 2.56 3.03.04 5.53-2.68 2.05-4.42ZM324.85 121.15s-8-.25-7.7 2.19c.21 1.67 3.28 2.07 6.22 1.53 2.7-.49 4.58-3.01 1.47-3.72Z"/><path class="cls-3" d="M327.16 117.72s-8.96-.53-9.49 1.93c-.53 2.45 4.38 2.24 7.28 2.4 3.87.22 5.53-2.66 2.21-4.33Z"/><path class="cls-6" d="M325.64 122.34h-.02l-5.85-.27a.34.34 0 0 1-.33-.36c0-.19.17-.34.36-.33l5.85.27c.19 0 .34.17.33.36 0 .19-.16.33-.35.33ZM328.66 118.95h-.02l-8.75-.47a.346.346 0 0 1 .03-.69l8.75.47c.19.01.34.17.33.36 0 .18-.16.33-.35.33ZM322.2 114.92c-.19 0-.34-.15-.35-.34 0-.19.15-.35.34-.35l6.9-.06c.2 0 .35.15.35.34 0 .19-.15.35-.34.35l-6.9.06Z"/><ellipse class="cls-1" cx="183.3" cy="103.54" rx="16.46" ry="3.47" transform="rotate(-14.28 183.254 103.511)"/><path class="cls-3" d="m190.4 73.28 10.91 38.99 62.73 1.89 3.09 18.59s-61.85 9.24-78.42 4.58c-13.14-3.7-22.92-55.95-22.92-55.95l24.62-8.1Z"/><path class="cls-3" d="m264.03 114.16 17.26-4.13 4.01 17.82-18.18 4.9-3.09-18.59z"/><path class="cls-3" d="M281.29 110.03s17.85-3.88 18.78-3.62c1.28.35 1.29 2.65-.1 3.55-1.39.9-18.43 6.16-18.43 6.16l-.26-6.09Z"/><path class="cls-3" d="M290.18 126.34c-.95.39-3.99 1.27-7.57 2.26-2.12-1.81-1.67-13.92-1.67-13.92s10.73-2.6 11.62-2.11c.89.49 2.42 2.83.8 3.9-.22.15-.58.32-1.04.51 1.99.4 2.76 3.45.53 4.72h.01c.1.15 1.75 2.82-2.69 4.64Z"/><path class="cls-6" d="M283.74 119.57a.347.347 0 0 1-.09-.68l9.62-2.75c.18-.05.38.05.43.24.05.18-.05.38-.24.43l-9.62 2.75s-.06.01-.1.01ZM282.59 115.49a.347.347 0 0 1-.09-.68l16.37-4.74c.18-.05.38.05.43.24.05.18-.05.38-.24.43l-16.37 4.74s-.06.01-.1.01ZM284.53 124.64c-.15 0-.28-.1-.33-.24-.06-.18.05-.38.23-.43l8.35-2.59c.18-.06.38.05.43.23.06.18-.05.38-.23.43l-8.35 2.59s-.07.02-.1.02Z"/><path class="cls-3" d="M266 113.69s6.73-5.25 8.67-7.75 4.89-2.01 3.6 1.56c-1.29 3.57-1.79 6.42-1.79 6.42l-8.41 3.29-2.08-3.51Z"/><path class="cls-6" d="M199.32 99.64h-.05s0-.11-.02-.16c-.47-1.85-8-1.54-16.81.7-8.65 2.2-15.32 5.44-15.12 7.32l-6.12-32.19 23.23-24.43 14.88 48.76Z"/><path class="cls-1" d="M167.59 107.91c-.16 0-.31-.11-.34-.28l-4.5-22.35c-.04-.19.08-.37.27-.41.19-.04.37.08.41.27l4.5 22.35c.04.19-.08.37-.27.41h-.07ZM198.98 99.97c-.15 0-.29-.1-.33-.25l-7.42-25.41c-.05-.18.05-.38.24-.43.18-.05.38.05.43.24l7.42 25.41c.05.18-.05.38-.24.43-.03 0-.07.01-.1.01Z"/><path d="m262.92 114.12 1.79 6.69 1.29-7.12s-1.81.83-3.08.44Z" style="fill:#bd7762"/><path class="cls-6" d="M196.93 121.7c-.05 0-.1-.01-.15-.03a.347.347 0 0 1-.16-.46l4.38-9.09c.06-.12.19-.2.32-.2 2.49.07 61 1.76 62.74 1.89 1.79.13 6.9-4.54 8.72-6.36.14-.14.35-.14.49 0s.14.35 0 .49c-.68.68-6.64 6.56-9.15 6.56h-.11c-1.67-.13-58.42-1.77-62.48-1.89l-4.28 8.89c-.06.12-.18.2-.31.2ZM227.9 137.71c-.18 0-.33-.14-.35-.32-.01-.19.13-.36.32-.37.19-.01 19.5-1.28 39.16-4.61.41-.11 8.9-2.32 15.48-4.14 4.1-1.13 6.7-1.91 7.53-2.25 1.54-.63 2.47-1.42 2.76-2.34.29-.93-.18-1.7-.23-1.79l-.01-.02c-.09-.17-.04-.38.13-.47.17-.1.38-.04.47.13.06.1.69 1.13.3 2.36-.36 1.13-1.42 2.06-3.16 2.77-.87.35-3.42 1.12-7.61 2.27-6.71 1.86-15.42 4.12-15.5 4.14h-.03c-19.7 3.33-39.06 4.61-39.25 4.62h-.02Zm39.22-4.96Z"/></g></svg>