<?xml version="1.0" encoding="UTF-8"?>
<svg id="Layer_2" data-name="Layer 2" xmlns="http://www.w3.org/2000/svg" viewBox="0 0 681.71 461.87">
  <defs>
    <style>
      .cls-1 {
        fill: #fff;
      }

      .cls-2 {
        fill: #cbd941;
      }

      .cls-3 {
        fill: #6fd9f8;
      }

      .cls-4 {
        fill: #1b1a1f;
      }

      .cls-5 {
        fill: #0055ad;
      }
    </style>
  </defs>
  <g id="Layer_1-2" data-name="Layer 1">
    <g>
      <path class="cls-4" d="M550.81,301.33H51.09c-.19,0-.35-.16-.35-.35V29.29c0-.19,.16-.35,.35-.35h499.72c.19,0,.35,.16,.35,.35V300.98c0,.19-.16,.35-.35,.35Zm-499.38-.69h499.03V29.63H51.44V300.64Z"/>
      <g>
        <g>
          <path class="cls-4" d="M153.55,20.88c-2.47,0-4.49-2.01-4.49-4.49s2.01-4.49,4.49-4.49,4.49,2.01,4.49,4.49-2.01,4.49-4.49,4.49Zm0-8.28c-2.09,0-3.79,1.7-3.79,3.79s1.7,3.79,3.79,3.79,3.79-1.7,3.79-3.79-1.7-3.79-3.79-3.79Z"/>
          <path class="cls-4" d="M166.62,20.88c-2.47,0-4.49-2.01-4.49-4.49s2.01-4.49,4.49-4.49,4.49,2.01,4.49,4.49-2.01,4.49-4.49,4.49Zm0-8.28c-2.09,0-3.79,1.7-3.79,3.79s1.7,3.79,3.79,3.79,3.79-1.7,3.79-3.79-1.7-3.79-3.79-3.79Z"/>
          <path class="cls-4" d="M179.7,20.88c-2.47,0-4.49-2.01-4.49-4.49s2.01-4.49,4.49-4.49,4.49,2.01,4.49,4.49-2.01,4.49-4.49,4.49Zm0-8.28c-2.09,0-3.79,1.7-3.79,3.79s1.7,3.79,3.79,3.79,3.79-1.7,3.79-3.79-1.7-3.79-3.79-3.79Z"/>
        </g>
        <rect class="cls-5" y="25.08" width="181.82" height="80.08"/>
        <path class="cls-4" d="M191.52,87.29H18.36c-.19,0-.35-.16-.35-.35V7.42c0-.19,.16-.35,.35-.35H191.52c.19,0,.35,.16,.35,.35V86.94c0,.19-.16,.35-.35,.35Zm-172.81-.69H191.17V7.76H18.71V86.6Z"/>
        <g>
          <path class="cls-1" d="M153.55,33.75H35.39c-.19,0-.35-.16-.35-.35s.16-.35,.35-.35h118.16c.19,0,.35,.16,.35,.35s-.16,.35-.35,.35Z"/>
          <path class="cls-1" d="M153.55,46.63H35.39c-.19,0-.35-.16-.35-.35s.16-.35,.35-.35h118.16c.19,0,.35,.16,.35,.35s-.16,.35-.35,.35Z"/>
          <path class="cls-1" d="M153.55,59.5H35.39c-.19,0-.35-.16-.35-.35s.16-.35,.35-.35h118.16c.19,0,.35,.16,.35,.35s-.16,.35-.35,.35Z"/>
          <path class="cls-1" d="M153.55,72.37H35.39c-.19,0-.35-.16-.35-.35s.16-.35,.35-.35h118.16c.19,0,.35,.16,.35,.35s-.16,.35-.35,.35Z"/>
        </g>
      </g>
      <g>
        <rect class="cls-2" x="536.29" y="15.46" width="145.41" height="57.87"/>
        <rect class="cls-5" x="526.02" y=".35" width="145.41" height="12.04"/>
        <g>
          <path class="cls-1" d="M656.28,22.46h-113.86c-.19,0-.35-.16-.35-.35s.16-.35,.35-.35h113.86c.19,0,.35,.16,.35,.35s-.16,.35-.35,.35Z"/>
          <path class="cls-1" d="M656.28,32.94h-113.86c-.19,0-.35-.16-.35-.35s.16-.35,.35-.35h113.86c.19,0,.35,.16,.35,.35s-.16,.35-.35,.35Z"/>
          <path class="cls-1" d="M656.28,43.43h-113.86c-.19,0-.35-.16-.35-.35s.16-.35,.35-.35h113.86c.19,0,.35,.16,.35,.35s-.16,.35-.35,.35Z"/>
        </g>
        <path class="cls-4" d="M671.43,58.56h-145.41c-.19,0-.35-.16-.35-.35V.35c0-.19,.16-.35,.35-.35h145.41c.19,0,.35,.16,.35,.35V58.21c0,.19-.16,.35-.35,.35Zm-145.07-.69h144.72V.69h-144.72V57.87Z"/>
      </g>
      <g>
        <rect class="cls-3" x="241.62" y="370.38" width="177.09" height="91.49"/>
        <path class="cls-4" d="M400.49,444.52H230.76c-.19,0-.35-.16-.35-.35v-98.86c0-.19,.16-.35,.35-.35h169.73c.19,0,.35,.16,.35,.35v98.86c0,.19-.16,.35-.35,.35Zm-169.38-.69h169.04v-98.17H231.1v98.17Z"/>
        <path class="cls-4" d="M400.49,363.36H230.76c-.19,0-.35-.16-.35-.35v-17.71c0-.19,.16-.35,.35-.35h169.73c.19,0,.35,.16,.35,.35v17.71c0,.19-.16,.35-.35,.35Zm-169.38-.69h169.04v-17.02H231.1v17.02Z"/>
        <path class="cls-4" d="M380.39,386.21h-123.33c-.19,0-.35-.16-.35-.35s.16-.35,.35-.35h123.33c.19,0,.35,.16,.35,.35s-.16,.35-.35,.35Z"/>
        <path class="cls-4" d="M380.39,404.41h-123.33c-.19,0-.35-.16-.35-.35s.16-.35,.35-.35h123.33c.19,0,.35,.16,.35,.35s-.16,.35-.35,.35Z"/>
        <path class="cls-4" d="M380.39,422.61h-123.33c-.19,0-.35-.16-.35-.35s.16-.35,.35-.35h123.33c.19,0,.35,.16,.35,.35s-.16,.35-.35,.35Z"/>
      </g>
    </g>
  </g>
</svg>