<svg id="Layer_2" data-name="Layer 2" xmlns="http://www.w3.org/2000/svg" viewBox="0 0 466.78 510.69"><defs><style>.cls-1{fill:#fff}.cls-2{fill:#fd9f84}.cls-4{fill:#de856a}.cls-5{fill:#292929}.cls-6{fill:#2e2a2e}.cls-7{fill:#00b8f1}</style></defs><g id="Layer_1-2" data-name="Layer 1"><path class="cls-2" d="M44.96 377.65s15.25 26.39 20.4 31.02c0 0-1.01 4.37-9.75 2.54s-14.84-12.22-14.84-12.22l4.19-21.34ZM463.73 45.8s7.58-29.63-1.18-37.57c-8.75-7.94-37.39 1.73-37.39 1.73l-1.24 30.89 39.8 4.96ZM182.24 143.56 179.5 81.5c-.65-29.74 29.43-50.48 56.92-39.12l1.14.48s10.84 33.1 15.24 49.13c5.43 19.75-1.31 23.69-6.64 25.06-10.38 2.65-15.91 3.31-15.91 3.31l.37 20.28-49.75 2.93h1.38Z"/><path class="cls-2" d="m244.33 65.33 5.15 8.88 6.43 6.09c.71.67 1.05 1.64.9 2.61-.34 2.2-1.58 6.04-6.03 7.67l-6.45-25.26Z"/><path class="cls-4" d="M230.24 120.35h-21l21.22 6.31-.22-6.31z"/><path class="cls-6" d="M232.99 66.06a.73.73 0 0 1-.33-1.38c3.59-1.82 8.01-1.84 8.19-1.84.4 0 .73.33.73.73 0 .4-.32.73-.73.73-.04 0-4.26.02-7.54 1.69a.8.8 0 0 1-.33.08Z"/><ellipse class="cls-6" cx="238.52" cy="71.36" rx="1.69" ry="2.51" transform="rotate(-10 238.446 71.366)"/><path class="cls-6" d="M245.42 97.25c-2.58 0-4.64-.56-4.76-.6a.724.724 0 0 1-.5-.9c.11-.39.51-.61.9-.5s4.42 1.21 8.18 0c.38-.12.79.09.91.47s-.09.79-.47.91c-1.43.46-2.91.61-4.25.61Z"/><circle class="cls-6" cx="181.71" cy="103.29" r="10.67"/><circle class="cls-6" cx="187.47" cy="88.46" r="13.57"/><circle class="cls-6" cx="201.06" cy="74.87" r="13.57"/><path class="cls-6" d="M210.87 95.62c0 7.49-6.54 10.96-13.57 13.57-12.87 4.78-20.01 7.39-20.01-.11s12.51-27.03 20.01-27.03 13.57 6.07 13.57 13.57Z"/><circle class="cls-6" cx="212.87" cy="59.7" r="13.57" transform="rotate(-76.72 212.863 59.703)"/><path class="cls-5" d="m199.55 27.11-4.22 1.59c-1.06.4-2.24-.15-2.63-1.23-.39-1.08.15-2.28 1.21-2.68l4.22-1.59c1.06-.4 2.24.15 2.63 1.23.39 1.08-.15 2.28-1.21 2.68Z"/><path class="cls-7" d="m247.85 55.06-35.93 12.72-35.93 12.71-.27-.78-3.15-9.22c-6.88-20.15 5.21-37.5 25.06-44.53 1.54-.54 3.08-1.01 4.61-1.4 12.56-3.17 24.79-1.08 33.27 6.58.84.76 1.64 1.56 2.4 2.43 2.57 2.92 4.69 6.46 6.22 10.63.1.29.2.57.3.86l1.1 3.22.11.33.07.2 2.14 6.25Z"/><path class="cls-7" d="M280.18 40.33c.41 1.69-.51 3.46-2.16 4.05l-20.51 7.26-9.67 3.42-35.93 12.72-2.21-6.46 35.43-12.54.5-.18 2.3-.81h.02l8.89-3.15 18.97-6.71c1.76-.62 3.68.32 4.28 2.1l.09.31Z"/><path class="cls-1" d="M244.13 44.19c-.65.4-1.37.71-2.15.9-4.15 1.05-8.35-1.52-9.38-5.74a7.96 7.96 0 0 1 2.9-8.22c.84.76 1.64 1.56 2.4 2.43 2.57 2.92 4.69 6.46 6.22 10.63Z"/><path class="cls-6" d="M222.14 57.65c-.3 0-.58-.19-.69-.48-.13-.38.06-.79.44-.93l53.67-19c.38-.13.79.06.93.44.13.38-.06.79-.44.93l-53.67 19c-.08.03-.16.04-.24.04Z"/><path class="cls-2" d="M221.27 75.56s-8.4-7.78-14.77-.37c-8.95 10.4 3.39 22.3 11.14 20.18 7.75-2.12 3.63-19.81 3.63-19.81Z"/><path class="cls-5" d="M208.24 88.46c-.25 0-.5-.15-.61-.4-1.6-3.64-1.8-6.67-.58-9 1.49-2.86 4.64-3.81 6.38-4.13 2.92-.52 5.26 1.57 5.36 1.66.27.25.3.68.05.96-.25.28-.67.3-.94.06-.03-.02-1.98-1.74-4.24-1.34-1.5.27-4.21 1.07-5.43 3.43-1.02 1.95-.81 4.58.62 7.81.15.34 0 .74-.34.9a.66.66 0 0 1-.27.06Z"/><path class="cls-5" d="M214.73 86.72c-.06 0-.13 0-.19-.03l-7.71-2.38a.682.682 0 0 1-.44-.85c.11-.36.48-.56.83-.45l7.71 2.38c.35.11.55.49.44.85-.09.29-.35.48-.64.48Z"/><path style="fill:#1b1a1f" d="m108 447.64.28 62.91h212.39l-12.31-132.9-58.91-64.68L108 447.64z"/><path class="cls-2" d="M341.26 152.85s40.12-11.22 51.5-31.05c11.38-19.83 26.92-89.58 26.92-89.58l46.24-2.5s-13.25 112.13-30 142.3c-16.75 30.17-107 51.59-107 51.59l12.35-70.75Z"/><path class="cls-6" d="M311.07 406.92s-24.7 45.66-202.8 49.48l-.4-14.76 203.2-34.72Z"/><path class="cls-2" d="M74.61 190.99s-51.39 45.74-60.54 57.19C4.92 259.63 2.93 387.79 2.93 387.79h45.46S56 292.5 60.59 283.38c4.59-9.12 47.68-41.54 47.68-41.54L74.6 190.99Z"/><path class="cls-4" d="m360.65 145.02 36.76 55.34-17.99 4.9-18.77-60.24zM38.4 223.6l24.47 56.6 11.57-11.16-28.85-51.74-7.19 6.3z"/><path class="cls-7" d="M179.49 128.45s32.67 10.33 53.5 1.18l5.03 9.98s24.76 4.36 44.55 6.84c36.61 4.58 76.08-5.75 76.08-5.75l32.25 69.77s-54.25 21.18-88.15 26.33l11.53 168.44s-80.43 45.83-206.39 36.42l5.53-186.33-38.8 28.06-40.71-68.62s29.58-25.08 64.2-47.01a175.699 175.699 0 0 1 56.27-23.19l21.21-4.66 3.91-11.44Z"/><path class="cls-5" d="M85.93 275.92c-.25 0-.5-.13-.63-.36l-40.34-69.93c-.2-.35-.08-.79.27-.99.35-.2.79-.08.99.27l40.34 69.93c.2.35.08.79-.27.99-.11.07-.24.1-.36.1ZM208.13 147.89c-6.06 0-11.39-.7-15.67-1.57-10.52-2.14-16.96-5.65-17.23-5.8a.735.735 0 0 1-.29-.99c.19-.35.64-.48.99-.29.06.04 6.56 3.56 16.87 5.66 9.5 1.93 24.3 3 40.8-2.84.38-.13.79.06.93.44.13.38-.06.79-.44.93a77.616 77.616 0 0 1-25.96 4.46ZM379.42 215.48c-.28 0-.55-.17-.67-.44l-30.76-71.86c-.16-.37.01-.8.38-.95.37-.16.8.01.95.38l30.76 71.86c.16.37-.01.8-.38.95-.09.04-.19.06-.29.06Z"/><path class="cls-5" d="M74.61 284.1c-.23 0-.45-.1-.59-.3a.733.733 0 0 1 .16-1.02l51.95-37.68c.33-.24.78-.16 1.02.16.24.33.16.78-.16 1.02l-51.95 37.68a.76.76 0 0 1-.43.14Z"/><path class="cls-2" d="M49.19 378.11s3.4 19.13-1.95 24.14c-6.86 6.43-44.31 3.18-44.31 3.18S.85 386.87 4.4 372.51c3.56-14.36 44.78 5.61 44.78 5.61ZM422.53 56.22s-4.54-27.75-10.21-33c-5.67-5.25-2.44-11.03 4.68-6.31 7.12 4.72 21.43 22.96 21.43 22.96l-15.9 16.35Z"/><path class="cls-1" d="M232.33 510.69c-.38 0-.7-.29-.72-.67l-1.87-24.58a.72.72 0 0 1 .44-.72l26.38-11.44c.37-.16.8 0 .96.38.16.37 0 .8-.38.96l-25.91 11.23 1.83 24.06c.03.4-.27.75-.67.78h-.06Z"/><path class="cls-2" d="M3.31 370.58s-5.64 16.2-2.19 37.61c.42 2.64 2.53 4.7 5.21 4.63 1.85-.05 3.81-.42 4.62-1.61 0 0 2.67 3.43 6.86 2.86s5.15-2.86 5.15-2.86.57 4.19 6.86 3.81c6.29-.38 7.32-4 7.32-4s5.53 3.81 8.77-.38c3.24-4.19 4.35-18.69 4.35-18.69l-13.12-14.3-33.83-7.07Z"/><path class="cls-6" d="M10.94 411.94h-.08a.73.73 0 0 1-.64-.81l2.81-24.43a.73.73 0 0 1 1.45.17l-2.81 24.43c-.04.37-.36.64-.72.64ZM22.95 411.94h-.1a.73.73 0 0 1-.62-.82l3.34-23.43c.06-.4.42-.67.82-.62.4.06.67.42.62.82l-3.34 23.43c-.05.36-.36.62-.72.62ZM36.73 411.94h-.1a.73.73 0 0 1-.62-.82l3.34-23.43c.06-.4.42-.67.82-.62.4.06.67.42.62.82l-3.34 23.43c-.05.36-.36.62-.72.62ZM42.64 413.29c-.34 0-.65-.25-.71-.6a.74.74 0 0 1 .58-.85c4.19-.77 5.89-7.15 6.57-12.37.77-5.85.45-11.6.44-11.65-.02-.4.28-.74.68-.77.4-.02.74.28.77.68.06.97 1.27 23.8-8.21 25.54-.04 0-.09.01-.13.01Z"/><path class="cls-2" d="M427.03.65c-4.95-.92-9.37 3.32-8.91 8.33.82 8.99 2.83 24.48 7.05 26.16 5.98 2.39 7.84-3.2 7.84-12.98S435.03 2.6 427.43.73c-.13-.03-.26-.06-.4-.09Z"/><path class="cls-2" d="M436.34.65c-4.95-.92-9.37 3.32-8.91 8.33.82 8.99 3.33 28.42 7.55 30.1 5.98 2.39 7.84-3.2 7.84-12.98s1.52-23.5-6.08-25.37c-.13-.03-.26-.06-.4-.09Z"/><path class="cls-2" d="M446.56.13c-5.1-.95-9.64 3.42-9.17 8.58.84 9.25 3.59 22.38 6.7 25.87 3.83 4.31 9.14 1.82 9.14-8.24s1.56-24.19-6.26-26.12l-.41-.09Z"/><path class="cls-2" d="M457.26.13c-5.1-.95-9.64 3.42-9.17 8.58.84 9.25 2.22 16.17 5.32 19.67 3.83 4.31 7.61 2.03 9.14-8.24 1.49-9.96 2.94-17.99-4.88-19.91l-.41-.09Z"/><path class="cls-6" d="M423.93 34.92c-.21 0-.42-.09-.56-.26-4.19-5.04-5.9-24.78-5.97-25.62-.03-.4.26-.75.66-.79.41-.03.75.26.79.66.02.2 1.75 20.12 5.64 24.81a.726.726 0 0 1-.55 1.19ZM431.46 33.68a.73.73 0 0 1-.73-.71l-.52-27.52c0-.4.31-.73.71-.74h.01c.4 0 .72.32.73.71l.52 27.52c0 .4-.31.73-.71.74h-.01ZM442.52 32.71h-.01a.72.72 0 0 1-.71-.74l.43-24.39c0-.4.33-.71.73-.71h.01c.4 0 .72.34.71.74L443.25 32c0 .4-.33.71-.73.71ZM453.42 29.1c-.4 0-.73-.33-.73-.73V8.23c0-.4.33-.73.73-.73s.73.33.73.73v20.15c0 .4-.33.73-.73.73Z"/><path class="cls-6" d="M437.48 39.9c-.84 0-1.77-.2-2.77-.6-1.27-.51-2.4-2.18-3.45-5.11-1.48 1.84-3.65 2.25-6.36 1.17a.735.735 0 0 1-.41-.94c.15-.37.57-.55.94-.41 2.61 1.04 4.26.48 5.36-1.83a.73.73 0 0 1 .71-.41c.3.02.55.22.64.51 1.36 4.41 2.52 5.45 3.1 5.68 1.58.63 2.82.66 3.78.1 1.4-.83 2.34-3.06 2.77-6.62.04-.32.29-.58.61-.63.32-.05.64.12.77.42.5 1.09.99 1.9 1.45 2.43 1.32 1.49 2.84 2.08 4.17 1.63 2.01-.69 3.37-3.56 3.65-7.69.02-.3.22-.55.5-.64.28-.09.59 0 .78.23.07.09.15.18.23.27.9 1.01 2.25 2.14 3.57 1.74 1.91-.57 3.49-4.07 4.31-9.61.06-.4.43-.67.83-.61.4.06.67.43.61.83-.94 6.3-2.79 10.03-5.34 10.79-.98.29-2.45.25-4.21-1.31-.56 3.94-2.15 6.59-4.47 7.38-1.9.65-3.99-.09-5.72-2.04a6.89 6.89 0 0 1-.65-.86c-.6 2.85-1.63 4.67-3.12 5.56-.68.4-1.44.6-2.29.6Z"/></g></svg>