<svg id="Layer_2" data-name="Layer 2" xmlns="http://www.w3.org/2000/svg" xmlns:xlink="http://www.w3.org/1999/xlink" viewBox="0 0 169.47 146.62"><defs><linearGradient id="linear-gradient" x1="-3021.68" y1="35.81" x2="-2968.44" y2="35.81" gradientTransform="translate(3054.83)" gradientUnits="userSpaceOnUse"><stop offset="0" stop-color="#0071bc"/><stop offset="1" stop-color="#fbb03b"/></linearGradient><linearGradient id="linear-gradient-2" x1="-2986.96" y1="55.7" x2="-2933.72" y2="55.7" xlink:href="#linear-gradient"/><linearGradient id="linear-gradient-3" x1="-2952.28" y1="75.57" x2="-2899.05" y2="75.57" xlink:href="#linear-gradient"/><linearGradient id="linear-gradient-4" x1="-3054.83" y1="59.67" x2="-3001.6" y2="59.67" xlink:href="#linear-gradient"/><linearGradient id="linear-gradient-5" x1="-3020.11" y1="79.57" x2="-2966.87" y2="79.57" xlink:href="#linear-gradient"/><linearGradient id="linear-gradient-6" x1="-2985.44" y1="99.44" x2="-2932.2" y2="99.44" xlink:href="#linear-gradient"/><clipPath id="clippath"><path class="cls-19" d="M64.53 3.16 96.7 21.83 78.76 80.61 46.93 62.04l17.6-58.88z"/></clipPath><clipPath id="clippath-1"><path class="cls-19" d="m99.25 23.05 32.17 18.67-17.93 58.79-31.83-18.57 17.59-58.89z"/></clipPath><clipPath id="clippath-2"><path class="cls-19" d="M133.93 42.92 166.1 61.6l-17.94 58.78-31.83-18.57 17.6-58.89z"/></clipPath><clipPath id="clippath-3"><path class="cls-19" d="m31.38 27.02 32.17 18.67-17.94 58.79-31.83-18.57 17.6-58.89z"/></clipPath><clipPath id="clippath-4"><path class="cls-19" d="m66.1 46.92 32.17 18.67-17.94 58.78L48.5 105.8l17.6-58.88z"/></clipPath><clipPath id="clippath-5"><path class="cls-19" d="m100.77 66.79 32.17 18.67-17.93 58.78-31.83-18.57 17.59-58.88z"/></clipPath><style>.cls-1{fill:#ddd}.cls-2{fill:#a0a595;stroke:#fff;stroke-miterlimit:10}.cls-3{fill:#f4f4f4}.cls-4{fill:#fff}.cls-11{fill:#90bad0}.cls-15{fill:#eaeaea}.cls-16{fill:#02213a}.cls-17{fill:#3f720f}.cls-19{fill:none}.cls-22{fill:#f9fafc}.cls-23{fill:#dbe8ee}</style></defs><g id="Layer_5" data-name="Layer 5"><ellipse class="cls-17" cx="84.71" cy="84.26" rx="16.71" ry="9.26"/><ellipse class="cls-22" cx="80.34" cy="80.12" rx="12.9" ry="7.15"/><path class="cls-11" d="M93.23 79.89c0 .08.01.15.01.23 0 3.95-5.78 7.15-12.9 7.15s-12.9-3.2-12.9-7.15v3.51c.19 3.85 5.89 6.95 12.89 6.95s12.9-3.2 12.9-7.15v-3.54h-.01Z"/><ellipse class="cls-17" cx="104.29" cy="95.89" rx="16.71" ry="9.26"/><ellipse class="cls-22" cx="99.93" cy="91.75" rx="12.9" ry="7.15"/><ellipse class="cls-17" cx="124.38" cy="107.44" rx="16.71" ry="9.26"/><ellipse class="cls-22" cx="120.01" cy="103.3" rx="12.9" ry="7.15"/><path class="cls-11" d="M132.9 103.07c0 .08.01.15.01.23 0 3.95-5.78 7.15-12.9 7.15s-12.9-3.2-12.9-7.15v3.51c.19 3.85 5.89 6.95 12.89 6.95s12.9-3.2 12.9-7.15v-3.54h-.01ZM112.81 91.52c0 .08.01.15.01.23 0 3.95-5.78 7.15-12.9 7.15s-12.9-3.2-12.9-7.15v3.51c.19 3.85 5.89 6.95 12.89 6.95s12.9-3.2 12.9-7.15v-3.54h-.01Z"/><path class="cls-23" d="m64.05 1.24 34.39 19.77-18.08 61.98-34.72-19.91L64.05 1.24z"/><path class="cls-4" d="M64.53 2.86 96.7 21.53 78.85 80.56 47.02 61.99 64.53 2.86z"/><path class="cls-16" d="m61.45 40.63-5.65-3.26c-.52-.3-1.08-.96-.95-1.64l1.84-6.41c.15-.54.66-.71 1.18-.41l5.98 3.45c.52.3.78.88.61 1.44l-1.84 6.41c-.14.44-.65.72-1.17.42ZM69.33 45.2l-5.65-3.26c-.52-.3-1.08-.96-.95-1.64l1.84-6.41c.15-.54.66-.71 1.18-.41l5.98 3.45c.52.3.78.88.61 1.44l-1.84 6.41c-.14.44-.65.72-1.17.42ZM64.04 32.28l-5.65-3.26c-.52-.3-1.08-.96-.95-1.64l1.84-6.41c.15-.54.66-.71 1.18-.41l5.98 3.45c.52.3.78.88.61 1.44l-1.84 6.41c-.14.44-.65.72-1.17.42ZM71.93 36.85l-5.65-3.26c-.52-.3-1.08-.96-.95-1.64l1.84-6.41c.15-.54.66-.71 1.18-.41l5.98 3.45c.52.3.78.88.61 1.44l-1.84 6.41c-.14.44-.65.72-1.17.42ZM66.48 23.85l-5.65-3.26c-.52-.3-1.08-.96-.95-1.64l1.84-6.41c.15-.54.66-.71 1.18-.41l5.98 3.45c.52.3.78.88.61 1.44l-1.84 6.41c-.14.44-.65.72-1.17.42ZM74.37 28.42l-5.65-3.26c-.52-.3-1.08-.96-.95-1.64l1.84-6.41c.15-.54.66-.71 1.18-.41l5.98 3.45c.52.3.78.88.61 1.44L75.54 28c-.14.44-.65.72-1.17.42ZM69 15.53l-5.65-3.26c-.52-.3-1.08-.96-.95-1.64l1.84-6.41c.15-.54.66-.71 1.18-.41l5.98 3.45c.52.3.78.88.61 1.44l-1.84 6.41c-.14.44-.65.72-1.17.42ZM76.89 20.1l-5.65-3.26c-.52-.3-1.08-.96-.95-1.64l1.84-6.41c.15-.54.66-.71 1.18-.41l5.98 3.45c.52.3.78.88.61 1.44l-1.84 6.41c-.14.44-.65.72-1.17.42ZM77.29 49.8l-5.65-3.26c-.52-.3-1.08-.96-.95-1.64l1.84-6.41c.15-.54.66-.71 1.18-.41l5.98 3.45c.52.3.78.88.61 1.44l-1.84 6.41c-.14.44-.65.72-1.17.42ZM85.22 54.42l-5.65-3.26c-.52-.3-1.08-.96-.95-1.64l1.84-6.41c.15-.54.66-.71 1.18-.41l5.98 3.45c.52.3.78.88.61 1.44L86.39 54c-.14.44-.65.72-1.17.42ZM79.89 41.45l-5.65-3.26c-.52-.3-1.08-.96-.95-1.64l1.84-6.41c.15-.54.66-.71 1.18-.41l5.98 3.45c.52.3.78.88.61 1.44l-1.84 6.41c-.14.44-.65.72-1.17.42ZM87.82 46.07l-5.65-3.26c-.52-.3-1.08-.96-.95-1.64l1.84-6.41c.15-.54.66-.71 1.18-.41l5.98 3.45c.52.3.78.88.61 1.44l-1.84 6.41c-.14.44-.65.72-1.17.42ZM82.33 33.02l-5.65-3.26c-.52-.3-1.08-.96-.95-1.64l1.84-6.41c.15-.54.66-.71 1.18-.41l5.98 3.45c.52.3.78.88.61 1.44L83.5 32.6c-.14.44-.65.72-1.17.42ZM90.26 37.64l-5.65-3.26c-.52-.3-1.08-.96-.95-1.64l1.84-6.41c.15-.54.66-.71 1.18-.41l5.98 3.45c.52.3.78.88.61 1.44l-1.84 6.41c-.14.44-.65.72-1.17.42ZM84.85 24.7l-5.65-3.26c-.52-.3-1.08-.96-.95-1.64l1.84-6.41c.15-.54.66-.71 1.18-.41l5.98 3.45c.52.3.78.88.61 1.44l-1.84 6.41c-.14.44-.65.72-1.17.42ZM92.78 29.26 87.13 26c-.52-.3-1.08-.96-.95-1.64l1.84-6.41c.15-.54.66-.71 1.18-.41l5.98 3.45c.52.3.78.88.61 1.44l-1.84 6.41c-.14.44-.65.72-1.17.42ZM53.94 65.97l-5.65-3.26c-.52-.3-1.08-.96-.95-1.64l1.84-6.41c.15-.54.66-.71 1.18-.41l5.98 3.45c.52.3.78.88.61 1.44l-1.84 6.41c-.14.44-.65.72-1.17.42ZM61.82 70.54l-5.65-3.26c-.52-.3-1.08-.96-.95-1.64l1.84-6.41c.15-.54.66-.71 1.18-.41l5.98 3.45c.52.3.78.88.61 1.44l-1.84 6.41c-.14.44-.65.72-1.17.42ZM56.5 57.56l-5.65-3.26c-.52-.3-1.08-.96-.95-1.64l1.84-6.41c.15-.54.66-.71 1.18-.41l5.98 3.45c.52.3.78.88.61 1.44l-1.84 6.41c-.14.44-.65.72-1.17.42ZM64.39 62.13l-5.65-3.26c-.52-.3-1.08-.96-.95-1.64l1.84-6.41c.15-.54.66-.71 1.18-.41l5.98 3.45c.52.3.78.88.61 1.44l-1.84 6.41c-.14.44-.65.72-1.17.42ZM58.99 49.01l-5.65-3.26c-.52-.3-1.08-.96-.95-1.64l1.84-6.41c.15-.54.66-.71 1.18-.41l5.98 3.45c.52.3.78.88.61 1.44l-1.84 6.41c-.14.44-.65.72-1.17.42ZM66.87 53.58l-5.65-3.26c-.52-.3-1.08-.96-.95-1.64l1.84-6.41c.15-.54.66-.71 1.18-.41l5.98 3.45c.52.3.78.88.61 1.44l-1.84 6.41c-.14.44-.65.72-1.17.42ZM69.78 75.14l-5.65-3.26c-.52-.3-1.08-.96-.95-1.64l1.84-6.41c.15-.54.66-.71 1.18-.41l5.98 3.45c.52.3.78.88.61 1.44l-1.84 6.41c-.14.44-.65.72-1.17.42ZM77.71 79.76l-5.65-3.26c-.52-.3-1.08-.96-.95-1.64l1.84-6.41c.15-.54.66-.71 1.18-.41l5.98 3.45c.52.3.78.88.61 1.44l-1.84 6.41c-.14.44-.65.72-1.17.42ZM72.35 66.73l-5.65-3.26c-.52-.3-1.08-.96-.95-1.64l1.84-6.41c.15-.54.66-.71 1.18-.41l5.98 3.45c.52.3.78.88.61 1.44l-1.84 6.41c-.14.44-.65.72-1.17.42ZM80.28 71.35l-5.65-3.26c-.52-.3-1.08-.96-.95-1.64l1.84-6.41c.15-.54.66-.71 1.18-.41l5.98 3.45c.52.3.78.88.61 1.44l-1.84 6.41c-.14.44-.65.72-1.17.42ZM74.83 58.18l-5.65-3.26c-.52-.3-1.08-.96-.95-1.64l1.84-6.41c.15-.54.66-.71 1.18-.41l5.98 3.45c.52.3.78.88.61 1.44L76 57.76c-.14.44-.65.72-1.17.42ZM82.76 62.74l-5.65-3.26c-.52-.3-1.08-.96-.95-1.64L78 51.43c.15-.54.66-.71 1.18-.41l5.98 3.45c.52.3.78.88.61 1.44l-1.84 6.41c-.14.44-.65.72-1.17.42Z"/><path class="cls-2" d="M66.99 4.4 49.8 63.55 66.99 4.4ZM69.01 5.63 51.82 64.78 69.01 5.63ZM74.96 9.11 57.77 68.26 74.96 9.11ZM76.98 10.35 59.79 69.5l17.19-59.15ZM82.92 13.71 65.73 72.86l17.19-59.15ZM84.94 14.95 67.75 74.1l17.19-59.15ZM90.89 18.31 73.7 77.46l17.19-59.15ZM92.91 19.55 75.72 78.7l17.19-59.15Z"/><path class="cls-4" d="m64.47 2.7-.17.09 32.4 18.74.16-.09L64.47 2.7z"/><path class="cls-15" d="m64.3 2.79-.05.19 32.24 18.59.03-.12L64.3 2.79z"/><path class="cls-1" d="m96.7 21.53.16-.09-17.67 59.2-.34.21L96.7 21.53z"/><path class="cls-3" d="m96.7 21.53-.15-.08-17.83 59.32.13.08L96.7 21.53z"/><path class="cls-1" d="m64.47 3.1.14.08L46.97 62.2l-.21.07L64.47 3.1z"/><path class="cls-3" d="m64.53 2.92-.22-.13-17.79 59.34.24.14L64.53 2.92z"/><path class="cls-4" d="m47.03 61.99-.2.05 31.93 18.57.04-.13-31.77-18.49z"/><path class="cls-15" d="m46.83 62.04-.07.23 31.96 18.5.04-.16-31.93-18.57z"/><path class="cls-11" d="m98.44 21 1.63-.6-17.92 61.46-1.79 1.13L98.44 21z"/><path class="cls-22" d="m98.44 21 1.63-.6L66.02.77l-1.97.47L98.44 21z"/><g style="clip-path:url(#clippath)"><ellipse cx="59.77" cy="35.81" rx="26.62" ry="35.81" style="fill:url(#linear-gradient);opacity:.26"/></g><path class="cls-23" d="m98.78 21.13 34.38 19.77-18.07 61.98-34.73-19.91 18.42-61.84z"/><path class="cls-4" d="m99.25 22.76 32.17 18.67-17.84 59.03-31.83-18.57 17.5-59.13z"/><path class="cls-16" d="m96.17 60.53-5.65-3.26c-.52-.3-1.08-.96-.95-1.64l1.84-6.41c.15-.54.66-.71 1.18-.41l5.98 3.45c.52.3.78.88.61 1.44l-1.84 6.41c-.14.44-.65.72-1.17.42ZM104.06 65.1l-5.65-3.26c-.52-.3-1.08-.96-.95-1.64l1.84-6.41c.15-.54.66-.71 1.18-.41l5.98 3.45c.52.3.78.88.61 1.44l-1.84 6.41c-.14.44-.65.72-1.17.42ZM98.77 52.17l-5.65-3.26c-.52-.3-1.08-.96-.95-1.64l1.84-6.41c.15-.54.66-.71 1.18-.41l5.98 3.45c.52.3.78.88.61 1.44l-1.84 6.41c-.14.44-.65.72-1.17.42ZM106.65 56.74 101 53.48c-.52-.3-1.08-.96-.95-1.64l1.84-6.41c.15-.54.66-.71 1.18-.41l5.98 3.45c.52.3.78.88.61 1.44l-1.84 6.41c-.14.44-.65.72-1.17.42ZM101.2 43.74l-5.65-3.26c-.52-.3-1.08-.96-.95-1.64l1.84-6.41c.15-.54.66-.71 1.18-.41l5.98 3.45c.52.3.78.88.61 1.44l-1.84 6.41c-.14.44-.65.72-1.17.42ZM109.09 48.31l-5.65-3.26c-.52-.3-1.08-.96-.95-1.64l1.84-6.41c.15-.54.66-.71 1.18-.41l5.98 3.45c.52.3.78.88.61 1.44l-1.84 6.41c-.14.44-.65.72-1.17.42ZM103.73 35.43l-5.65-3.26c-.52-.3-1.08-.96-.95-1.64l1.84-6.41c.15-.54.66-.71 1.18-.41l5.98 3.45c.52.3.78.88.61 1.44l-1.84 6.41c-.14.44-.65.72-1.17.42ZM111.62 40l-5.65-3.26c-.52-.3-1.08-.96-.95-1.64l1.84-6.41c.15-.54.66-.71 1.18-.41l5.98 3.45c.52.3.78.88.61 1.44l-1.84 6.41c-.14.44-.65.72-1.17.42ZM112.02 69.69l-5.65-3.26c-.52-.3-1.08-.96-.95-1.64l1.84-6.41c.15-.54.66-.71 1.18-.41l5.98 3.45c.52.3.78.88.61 1.44l-1.84 6.41c-.14.44-.65.72-1.17.42ZM119.95 74.32l-5.65-3.26c-.52-.3-1.08-.96-.95-1.64l1.84-6.41c.15-.54.66-.71 1.18-.41l5.98 3.45c.52.3.78.88.61 1.44l-1.84 6.41c-.14.44-.65.72-1.17.42ZM114.61 61.34l-5.65-3.26c-.52-.3-1.08-.96-.95-1.64l1.84-6.41c.15-.54.66-.71 1.18-.41l5.98 3.45c.52.3.78.88.61 1.44l-1.84 6.41c-.14.44-.65.72-1.17.42ZM122.54 65.97l-5.65-3.26c-.52-.3-1.08-.96-.95-1.64l1.84-6.41c.15-.54.66-.71 1.18-.41l5.98 3.45c.52.3.78.88.61 1.44l-1.84 6.41c-.14.44-.65.72-1.17.42ZM117.05 52.91l-5.65-3.26c-.52-.3-1.08-.96-.95-1.64l1.84-6.41c.15-.54.66-.71 1.18-.41l5.98 3.45c.52.3.78.88.61 1.44l-1.84 6.41c-.14.44-.65.72-1.17.42ZM124.98 57.54l-5.65-3.26c-.52-.3-1.08-.96-.95-1.64l1.84-6.41c.15-.54.66-.71 1.18-.41l5.98 3.45c.52.3.78.88.61 1.44l-1.84 6.41c-.14.44-.65.72-1.17.42ZM119.57 44.6l-5.65-3.26c-.52-.3-1.08-.96-.95-1.64l1.84-6.41c.15-.54.66-.71 1.18-.41l5.98 3.45c.52.3.78.88.61 1.44l-1.84 6.41c-.14.44-.65.72-1.17.42ZM127.5 49.15l-5.65-3.26c-.52-.3-1.08-.96-.95-1.64l1.84-6.41c.15-.54.66-.71 1.18-.41l5.98 3.45c.52.3.78.88.61 1.44l-1.84 6.41c-.14.44-.65.72-1.17.42ZM88.66 85.86l-5.65-3.26c-.52-.3-1.08-.96-.95-1.64l1.84-6.41c.15-.54.66-.71 1.18-.41l5.98 3.45c.52.3.78.88.61 1.44l-1.84 6.41c-.14.44-.65.72-1.17.42ZM96.55 90.43l-5.65-3.26c-.52-.3-1.08-.96-.95-1.64l1.84-6.41c.15-.54.66-.71 1.18-.41l5.98 3.45c.52.3.78.88.61 1.44l-1.84 6.41c-.14.44-.65.72-1.17.42ZM91.23 77.45l-5.65-3.26c-.52-.3-1.08-.96-.95-1.64l1.84-6.41c.15-.54.66-.71 1.18-.41l5.98 3.45c.52.3.78.88.61 1.44l-1.84 6.41c-.14.44-.65.72-1.17.42ZM99.11 82.02l-5.65-3.26c-.52-.3-1.08-.96-.95-1.64l1.84-6.41c.15-.54.66-.71 1.18-.41l5.98 3.45c.52.3.78.88.61 1.44l-1.84 6.41c-.14.44-.65.72-1.17.42ZM93.71 68.91l-5.65-3.26c-.52-.3-1.08-.96-.95-1.64l1.84-6.41c.15-.54.66-.71 1.18-.41l5.98 3.45c.52.3.78.88.61 1.44l-1.84 6.41c-.14.44-.65.72-1.17.42ZM101.6 73.47l-5.65-3.26c-.52-.3-1.08-.96-.95-1.64l1.84-6.41c.15-.54.66-.71 1.18-.41L104 65.2c.52.3.78.88.61 1.44l-1.84 6.41c-.14.44-.65.72-1.17.42ZM104.51 95.03l-5.65-3.26c-.52-.3-1.08-.96-.95-1.64l1.84-6.41c.15-.54.66-.71 1.18-.41l5.98 3.45c.52.3.78.88.61 1.44l-1.84 6.41c-.14.44-.65.72-1.17.42ZM112.44 99.66l-5.65-3.26c-.52-.3-1.08-.96-.95-1.64l1.84-6.41c.15-.54.66-.71 1.18-.41l5.98 3.45c.52.3.78.88.61 1.44l-1.84 6.41c-.14.44-.65.72-1.17.42ZM107.07 86.62l-5.65-3.26c-.52-.3-1.08-.96-.95-1.64l1.84-6.41c.15-.54.66-.71 1.18-.41l5.98 3.45c.52.3.78.88.61 1.44l-1.84 6.41c-.14.44-.65.72-1.17.42ZM115 91.24l-5.65-3.26c-.52-.3-1.08-.96-.95-1.64l1.84-6.41c.15-.54.66-.71 1.18-.41l5.98 3.45c.52.3.78.88.61 1.44l-1.84 6.41c-.14.44-.65.72-1.17.42ZM109.55 78.07l-5.65-3.26c-.52-.3-1.08-.96-.95-1.64l1.84-6.41c.15-.54.66-.71 1.18-.41l5.98 3.45c.52.3.78.88.61 1.44l-1.84 6.41c-.14.44-.65.72-1.17.42ZM117.48 82.63l-5.65-3.26c-.52-.3-1.08-.96-.95-1.64l1.84-6.41c.15-.54.66-.71 1.18-.41l5.98 3.45c.52.3.78.88.61 1.44l-1.84 6.41c-.14.44-.65.72-1.17.42Z"/><path class="cls-2" d="M101.71 24.29 84.52 83.44l17.19-59.15ZM103.73 25.53 86.54 84.68l17.19-59.15ZM109.68 29.01 92.49 88.16l17.19-59.15ZM111.7 30.24 94.51 89.39l17.19-59.15ZM117.65 33.61l-17.19 59.15 17.19-59.15ZM119.66 34.84l-17.19 59.15 17.19-59.15ZM125.61 38.21l-17.19 59.15 17.19-59.15ZM127.63 39.44l-17.19 59.15 17.19-59.15Z"/><path class="cls-4" d="m99.2 22.6-.17.09 32.39 18.74.16-.09L99.2 22.6z"/><path class="cls-15" d="m99.03 22.69-.06.18 32.25 18.59.02-.12-32.21-18.65z"/><path class="cls-1" d="m131.42 41.43.16-.09-17.66 59.2-.34.21 17.84-59.32z"/><path class="cls-3" d="m131.42 41.43-.15-.09-17.83 59.32.14.09 17.84-59.32z"/><path class="cls-1" d="m99.2 23 .13.07-17.64 59.02-.2.08L99.2 23z"/><path class="cls-3" d="m99.25 22.81-.22-.13-17.79 59.34.25.15 17.76-59.36z"/><path class="cls-4" d="m81.75 81.88-.19.06 31.93 18.57.04-.13-31.78-18.5z"/><path class="cls-15" d="m81.56 81.94-.07.23 31.95 18.49.05-.15-31.93-18.57z"/><path class="cls-11" d="m133.16 40.9 1.64-.61-17.92 61.46-1.79 1.13 18.07-61.98z"/><path class="cls-22" d="m133.16 40.9 1.64-.61-34.05-19.63-1.97.47 34.38 19.77z"/><g style="clip-path:url(#clippath-1)"><ellipse cx="94.5" cy="55.7" rx="26.62" ry="35.81" style="fill:url(#linear-gradient-2);opacity:.26"/></g><path class="cls-23" d="m133.45 41 34.39 19.77-18.08 61.98-34.72-19.91L133.45 41z"/><path class="cls-4" d="M133.93 42.63 166.1 61.3l-17.85 59.03-31.83-18.57 17.51-59.13z"/><path class="cls-16" d="m130.84 80.4-5.65-3.26c-.52-.3-1.08-.96-.95-1.64l1.84-6.41c.15-.54.66-.71 1.18-.41l5.98 3.45c.52.3.78.88.61 1.44l-1.84 6.41c-.14.44-.65.72-1.17.42ZM138.73 84.97l-5.65-3.26c-.52-.3-1.08-.96-.95-1.64l1.84-6.41c.15-.54.66-.71 1.18-.41l5.98 3.45c.52.3.78.88.61 1.44l-1.84 6.41c-.14.44-.65.72-1.17.42ZM133.44 72.05l-5.65-3.26c-.52-.3-1.08-.96-.95-1.64l1.84-6.41c.15-.54.66-.71 1.18-.41l5.98 3.45c.52.3.78.88.61 1.44l-1.84 6.41c-.14.44-.65.72-1.17.42ZM141.33 76.62l-5.65-3.26c-.52-.3-1.08-.96-.95-1.64l1.84-6.41c.15-.54.66-.71 1.18-.41l5.98 3.45c.52.3.78.88.61 1.44l-1.84 6.41c-.14.44-.65.72-1.17.42ZM135.88 63.61l-5.65-3.26c-.52-.3-1.08-.96-.95-1.64l1.84-6.41c.15-.54.66-.71 1.18-.41l5.98 3.45c.52.3.78.88.61 1.44l-1.84 6.41c-.14.44-.65.72-1.17.42ZM143.77 68.18l-5.65-3.26c-.52-.3-1.08-.96-.95-1.64l1.84-6.41c.15-.54.66-.71 1.18-.41l5.98 3.45c.52.3.78.88.61 1.44l-1.84 6.41c-.14.44-.65.72-1.17.42ZM138.4 55.3l-5.65-3.26c-.52-.3-1.08-.96-.95-1.64l1.84-6.41c.15-.54.66-.71 1.18-.41l5.98 3.45c.52.3.78.88.61 1.44l-1.84 6.41c-.14.44-.65.72-1.17.42ZM146.29 59.87l-5.65-3.26c-.52-.3-1.08-.96-.95-1.64l1.84-6.41c.15-.54.66-.71 1.18-.41l5.98 3.45c.52.3.78.88.61 1.44l-1.84 6.41c-.14.44-.65.72-1.17.42ZM146.69 89.57l-5.65-3.26c-.52-.3-1.08-.96-.95-1.64l1.84-6.41c.15-.54.66-.71 1.18-.41l5.98 3.45c.52.3.78.88.61 1.44l-1.84 6.41c-.14.44-.65.72-1.17.42ZM154.62 94.19l-5.65-3.26c-.52-.3-1.08-.96-.95-1.64l1.84-6.41c.15-.54.66-.71 1.18-.41l5.98 3.45c.52.3.78.88.61 1.44l-1.84 6.41c-.14.44-.65.72-1.17.42ZM149.29 81.21l-5.65-3.26c-.52-.3-1.08-.96-.95-1.64l1.84-6.41c.15-.54.66-.71 1.18-.41l5.98 3.45c.52.3.78.88.61 1.44l-1.84 6.41c-.14.44-.65.72-1.17.42ZM157.22 85.84l-5.65-3.26c-.52-.3-1.08-.96-.95-1.64l1.84-6.41c.15-.54.66-.71 1.18-.41l5.98 3.45c.52.3.78.88.61 1.44l-1.84 6.41c-.14.44-.65.72-1.17.42ZM151.72 72.78l-5.65-3.26c-.52-.3-1.08-.96-.95-1.64l1.84-6.41c.15-.54.66-.71 1.18-.41l5.98 3.45c.52.3.78.88.61 1.44l-1.84 6.41c-.14.44-.65.72-1.17.42ZM159.65 77.41 154 74.15c-.52-.3-1.08-.96-.95-1.64l1.84-6.41c.15-.54.66-.71 1.18-.41l5.98 3.45c.52.3.78.88.61 1.44l-1.84 6.41c-.14.44-.65.72-1.17.42ZM154.25 64.47l-5.65-3.26c-.52-.3-1.08-.96-.95-1.64l1.84-6.41c.15-.54.66-.71 1.18-.41l5.98 3.45c.52.3.78.88.61 1.44l-1.84 6.41c-.14.44-.65.72-1.17.42ZM162.18 69.03l-5.65-3.26c-.52-.3-1.08-.96-.95-1.64l1.84-6.41c.15-.54.66-.71 1.18-.41l5.98 3.45c.52.3.78.88.61 1.44l-1.84 6.41c-.14.44-.65.72-1.17.42ZM123.33 105.74l-5.65-3.26c-.52-.3-1.08-.96-.95-1.64l1.84-6.41c.15-.54.66-.71 1.18-.41l5.98 3.45c.52.3.78.88.61 1.44l-1.84 6.41c-.14.44-.65.72-1.17.42ZM131.22 110.31l-5.65-3.26c-.52-.3-1.08-.96-.95-1.64l1.84-6.41c.15-.54.66-.71 1.18-.41l5.98 3.45c.52.3.78.88.61 1.44l-1.84 6.41c-.14.44-.65.72-1.17.42ZM125.9 97.32l-5.65-3.26c-.52-.3-1.08-.96-.95-1.64l1.84-6.41c.15-.54.66-.71 1.18-.41l5.98 3.45c.52.3.78.88.61 1.44l-1.84 6.41c-.14.44-.65.72-1.17.42ZM133.79 101.89l-5.65-3.26c-.52-.3-1.08-.96-.95-1.64l1.84-6.41c.15-.54.66-.71 1.18-.41l5.98 3.45c.52.3.78.88.61 1.44l-1.84 6.41c-.14.44-.65.72-1.17.42ZM128.38 88.78l-5.65-3.26c-.52-.3-1.08-.96-.95-1.64l1.84-6.41c.15-.54.66-.71 1.18-.41l5.98 3.45c.52.3.78.88.61 1.44l-1.84 6.41c-.14.44-.65.72-1.17.42ZM136.27 93.35l-5.65-3.26c-.52-.3-1.08-.96-.95-1.64l1.84-6.41c.15-.54.66-.71 1.18-.41l5.98 3.45c.52.3.78.88.61 1.44l-1.84 6.41c-.14.44-.65.72-1.17.42ZM139.18 114.9l-5.65-3.26c-.52-.3-1.08-.96-.95-1.64l1.84-6.41c.15-.54.66-.71 1.18-.41l5.98 3.45c.52.3.78.88.61 1.44l-1.84 6.41c-.14.44-.65.72-1.17.42ZM147.11 119.53l-5.65-3.26c-.52-.3-1.08-.96-.95-1.64l1.84-6.41c.15-.54.66-.71 1.18-.41l5.98 3.45c.52.3.78.88.61 1.44l-1.84 6.41c-.14.44-.65.72-1.17.42ZM141.75 106.49l-5.65-3.26c-.52-.3-1.08-.96-.95-1.64l1.84-6.41c.15-.54.66-.71 1.18-.41l5.98 3.45c.52.3.78.88.61 1.44l-1.84 6.41c-.14.44-.65.72-1.17.42ZM149.68 111.12l-5.65-3.26c-.52-.3-1.08-.96-.95-1.64l1.84-6.41c.15-.54.66-.71 1.18-.41l5.98 3.45c.52.3.78.88.61 1.44l-1.84 6.41c-.14.44-.65.72-1.17.42ZM144.23 97.95l-5.65-3.26c-.52-.3-1.08-.96-.95-1.64l1.84-6.41c.15-.54.66-.71 1.18-.41l5.98 3.45c.52.3.78.88.61 1.44l-1.84 6.41c-.14.44-.65.72-1.17.42ZM152.16 102.5l-5.65-3.26c-.52-.3-1.08-.96-.95-1.64l1.84-6.41c.15-.54.66-.71 1.18-.41l5.98 3.45c.52.3.78.88.61 1.44l-1.84 6.41c-.14.44-.65.72-1.17.42Z"/><path class="cls-2" d="m136.39 44.17-17.19 59.15 17.19-59.15ZM138.41 45.4l-17.19 59.15 17.19-59.15ZM144.35 48.88l-17.19 59.15 17.19-59.15ZM146.37 50.11l-17.19 59.15 17.19-59.15ZM152.32 53.48l-17.19 59.15 17.19-59.15ZM154.34 54.71l-17.19 59.15 17.19-59.15ZM160.28 58.08l-17.19 59.15 17.19-59.15ZM162.3 59.31l-17.19 59.15 17.19-59.15Z"/><path class="cls-4" d="m133.87 42.47-.17.09 32.4 18.74.15-.09-32.38-18.74z"/><path class="cls-15" d="m133.7 42.56-.05.18 32.24 18.59.03-.12-32.22-18.65z"/><path class="cls-1" d="m166.1 61.3.15-.09-17.66 59.2-.34.21L166.1 61.3z"/><path class="cls-3" d="m166.1 61.3-.15-.09-17.84 59.33.14.08L166.1 61.3z"/><path class="cls-1" d="m133.87 42.87.13.08-17.64 59.01-.2.08 17.71-59.17z"/><path class="cls-3" d="m133.93 42.68-.23-.13-17.79 59.35.25.14 17.77-59.36z"/><path class="cls-4" d="m116.43 101.75-.2.06 31.93 18.57.04-.13-31.77-18.5z"/><path class="cls-15" d="m116.23 101.81-.07.23 31.95 18.5.05-.16-31.93-18.57z"/><path class="cls-11" d="m167.84 60.77 1.63-.61-17.92 61.46-1.79 1.13 18.08-61.98z"/><path class="cls-22" d="m167.84 60.77 1.63-.61-34.05-19.63-1.97.47 34.39 19.77z"/><g style="clip-path:url(#clippath-2)"><ellipse cx="129.17" cy="75.57" rx="26.62" ry="35.81" style="fill:url(#linear-gradient-3);opacity:.26"/></g><ellipse class="cls-17" cx="51.56" cy="108.13" rx="16.71" ry="9.26"/><ellipse class="cls-22" cx="47.19" cy="103.99" rx="12.9" ry="7.15"/><path class="cls-11" d="M60.08 103.76c0 .08.01.15.01.23 0 3.95-5.78 7.15-12.9 7.15s-12.9-3.2-12.9-7.15v3.51c.19 3.85 5.89 6.95 12.89 6.95s12.9-3.2 12.9-7.15v-3.54h-.01Z"/><ellipse class="cls-17" cx="71.14" cy="119.75" rx="16.71" ry="9.26"/><ellipse class="cls-22" cx="66.77" cy="115.61" rx="12.9" ry="7.15"/><ellipse class="cls-17" cx="91.22" cy="131.31" rx="16.71" ry="9.26"/><ellipse class="cls-22" cx="86.85" cy="127.16" rx="12.9" ry="7.15"/><path class="cls-11" d="M99.74 126.93c0 .08.01.15.01.23 0 3.95-5.78 7.15-12.9 7.15s-12.9-3.2-12.9-7.15v3.51c.19 3.85 5.89 6.95 12.89 6.95s12.9-3.2 12.9-7.15v-3.54h-.01ZM79.66 115.38c0 .08.01.15.01.23 0 3.95-5.78 7.15-12.9 7.15s-12.9-3.2-12.9-7.15v3.51c.19 3.85 5.89 6.95 12.89 6.95s12.9-3.2 12.9-7.15v-3.54h-.01Z"/><path class="cls-23" d="m30.9 25.1 34.39 19.77-18.08 61.98-34.72-19.91L30.9 25.1z"/><path class="cls-4" d="M31.38 26.73 63.55 45.4 45.7 104.43 13.87 85.86l17.51-59.13z"/><path class="cls-16" d="m28.29 64.5-5.65-3.26c-.52-.3-1.08-.96-.95-1.64l1.84-6.41c.15-.54.66-.71 1.18-.41l5.98 3.45c.52.3.78.88.61 1.44l-1.84 6.41c-.14.44-.65.72-1.17.42ZM36.18 69.07l-5.65-3.26c-.52-.3-1.08-.96-.95-1.64l1.84-6.41c.15-.54.66-.71 1.18-.41l5.98 3.45c.52.3.78.88.61 1.44l-1.84 6.41c-.14.44-.65.72-1.17.42ZM30.89 56.15l-5.65-3.26c-.52-.3-1.08-.96-.95-1.64l1.84-6.41c.15-.54.66-.71 1.18-.41l5.98 3.45c.52.3.78.88.61 1.44l-1.84 6.41c-.14.44-.65.72-1.17.42ZM38.78 60.72l-5.65-3.26c-.52-.3-1.08-.96-.95-1.64l1.84-6.41c.15-.54.66-.71 1.18-.41l5.98 3.45c.52.3.78.88.61 1.44l-1.84 6.41c-.14.44-.65.72-1.17.42ZM33.33 47.71l-5.65-3.26c-.52-.3-1.08-.96-.95-1.64l1.84-6.41c.15-.54.66-.71 1.18-.41l5.98 3.45c.52.3.78.88.61 1.44l-1.84 6.41c-.14.44-.65.72-1.17.42ZM41.22 52.28l-5.65-3.26c-.52-.3-1.08-.96-.95-1.64l1.84-6.41c.15-.54.66-.71 1.18-.41l5.98 3.45c.52.3.78.88.61 1.44l-1.84 6.41c-.14.44-.65.72-1.17.42ZM35.85 39.4l-5.65-3.26c-.52-.3-1.08-.96-.95-1.64l1.84-6.41c.15-.54.66-.71 1.18-.41l5.98 3.45c.52.3.78.88.61 1.44l-1.84 6.41c-.14.44-.65.72-1.17.42ZM43.74 43.97l-5.65-3.26c-.52-.3-1.08-.96-.95-1.64l1.84-6.41c.15-.54.66-.71 1.18-.41l5.98 3.45c.52.3.78.88.61 1.44l-1.84 6.41c-.14.44-.65.72-1.17.42ZM44.14 73.67l-5.65-3.26c-.52-.3-1.08-.96-.95-1.64l1.84-6.41c.15-.54.66-.71 1.18-.41l5.98 3.45c.52.3.78.88.61 1.44l-1.84 6.41c-.14.44-.65.72-1.17.42ZM52.07 78.29l-5.65-3.26c-.52-.3-1.08-.96-.95-1.64l1.84-6.41c.15-.54.66-.71 1.18-.41l5.98 3.45c.52.3.78.88.61 1.44l-1.84 6.41c-.14.44-.65.72-1.17.42ZM46.74 65.31l-5.65-3.26c-.52-.3-1.08-.96-.95-1.64L41.98 54c.15-.54.66-.71 1.18-.41l5.98 3.45c.52.3.78.88.61 1.44l-1.84 6.41c-.14.44-.65.72-1.17.42ZM54.67 69.94l-5.65-3.26c-.52-.3-1.08-.96-.95-1.64l1.84-6.41c.15-.54.66-.71 1.18-.41l5.98 3.45c.52.3.78.88.61 1.44l-1.84 6.41c-.14.44-.65.72-1.17.42ZM49.17 56.88l-5.65-3.26c-.52-.3-1.08-.96-.95-1.64l1.84-6.41c.15-.54.66-.71 1.18-.41l5.98 3.45c.52.3.78.88.61 1.44l-1.84 6.41c-.14.44-.65.72-1.17.42ZM57.1 61.51l-5.65-3.26c-.52-.3-1.08-.96-.95-1.64l1.84-6.41c.15-.54.66-.71 1.18-.41l5.98 3.45c.52.3.78.88.61 1.44l-1.84 6.41c-.14.44-.65.72-1.17.42ZM51.7 48.57l-5.65-3.26c-.52-.3-1.08-.96-.95-1.64l1.84-6.41c.15-.54.66-.71 1.18-.41l5.98 3.45c.52.3.78.88.61 1.44l-1.84 6.41c-.14.44-.65.72-1.17.42ZM59.63 53.13l-5.65-3.26c-.52-.3-1.08-.96-.95-1.64l1.84-6.41c.15-.54.66-.71 1.18-.41l5.98 3.45c.52.3.78.88.61 1.44l-1.84 6.41c-.14.44-.65.72-1.17.42ZM20.78 89.84l-5.65-3.26c-.52-.3-1.08-.96-.95-1.64l1.84-6.41c.15-.54.66-.71 1.18-.41l5.98 3.45c.52.3.78.88.61 1.44l-1.84 6.41c-.14.44-.65.72-1.17.42ZM28.67 94.41l-5.65-3.26c-.52-.3-1.08-.96-.95-1.64l1.84-6.41c.15-.54.66-.71 1.18-.41l5.98 3.45c.52.3.78.88.61 1.44l-1.84 6.41c-.14.44-.65.72-1.17.42ZM23.35 81.42l-5.65-3.26c-.52-.3-1.08-.96-.95-1.64l1.84-6.41c.15-.54.66-.71 1.18-.41l5.98 3.45c.52.3.78.88.61 1.44L24.52 81c-.14.44-.65.72-1.17.42ZM31.24 85.99l-5.65-3.26c-.52-.3-1.08-.96-.95-1.64l1.84-6.41c.15-.54.66-.71 1.18-.41l5.98 3.45c.52.3.78.88.61 1.44l-1.84 6.41c-.14.44-.65.72-1.17.42ZM25.83 72.88l-5.65-3.26c-.52-.3-1.08-.96-.95-1.64l1.84-6.41c.15-.54.66-.71 1.18-.41l5.98 3.45c.52.3.78.88.61 1.44L27 72.46c-.14.44-.65.72-1.17.42ZM33.72 77.45l-5.65-3.26c-.52-.3-1.08-.96-.95-1.64l1.84-6.41c.15-.54.66-.71 1.18-.41l5.98 3.45c.52.3.78.88.61 1.44l-1.84 6.41c-.14.44-.65.72-1.17.42ZM36.63 99l-5.65-3.26c-.52-.3-1.08-.96-.95-1.64l1.84-6.41c.15-.54.66-.71 1.18-.41l5.98 3.45c.52.3.78.88.61 1.44l-1.84 6.41c-.14.44-.65.72-1.17.42ZM44.56 103.63l-5.65-3.26c-.52-.3-1.08-.96-.95-1.64l1.84-6.41c.15-.54.66-.71 1.18-.41l5.98 3.45c.52.3.78.88.61 1.44l-1.84 6.41c-.14.44-.65.72-1.17.42ZM39.19 90.59l-5.65-3.26c-.52-.3-1.08-.96-.95-1.64l1.84-6.41c.15-.54.66-.71 1.18-.41l5.98 3.45c.52.3.78.88.61 1.44l-1.84 6.41c-.14.44-.65.72-1.17.42ZM47.12 95.22l-5.65-3.26c-.52-.3-1.08-.96-.95-1.64l1.84-6.41c.15-.54.66-.71 1.18-.41l5.98 3.45c.52.3.78.88.61 1.44l-1.84 6.41c-.14.44-.65.72-1.17.42ZM41.68 82.04l-5.65-3.26c-.52-.3-1.08-.96-.95-1.64l1.84-6.41c.15-.54.66-.71 1.18-.41l5.98 3.45c.52.3.78.88.61 1.44l-1.84 6.41c-.14.44-.65.72-1.17.42ZM49.61 86.6l-5.65-3.26c-.52-.3-1.08-.96-.95-1.64l1.84-6.41c.15-.54.66-.71 1.18-.41l5.98 3.45c.52.3.78.88.61 1.44l-1.84 6.41c-.14.44-.65.72-1.17.42Z"/><path class="cls-2" d="M33.84 28.27 16.65 87.42l17.19-59.15ZM35.86 29.5 18.67 88.65 35.86 29.5ZM41.8 32.98 24.61 92.13 41.8 32.98ZM43.82 34.21 26.63 93.36l17.19-59.15ZM49.77 37.58 32.58 96.73l17.19-59.15ZM51.79 38.81 34.6 97.96l17.19-59.15ZM57.73 42.18l-17.19 59.15 17.19-59.15ZM59.75 43.41l-17.19 59.15 17.19-59.15Z"/><path class="cls-4" d="m31.32 26.57-.17.09 32.4 18.74.15-.09-32.38-18.74z"/><path class="cls-15" d="m31.15 26.66-.05.18 32.24 18.59.03-.12-32.22-18.65z"/><path class="cls-1" d="m63.55 45.4.15-.09-17.66 59.2-.34.21L63.55 45.4z"/><path class="cls-3" d="m63.55 45.4-.15-.09-17.84 59.33.14.08L63.55 45.4z"/><path class="cls-1" d="m31.32 26.97.13.08-17.64 59.01-.2.08 17.71-59.17z"/><path class="cls-3" d="m31.38 26.78-.23-.13L13.36 86l.25.14 17.77-59.36z"/><path class="cls-4" d="m13.88 85.85-.2.06 31.93 18.57.04-.13-31.77-18.5z"/><path class="cls-15" d="m13.68 85.91-.07.23 31.95 18.5.05-.16-31.93-18.57z"/><path class="cls-11" d="m65.29 44.87 1.63-.61L49 105.72l-1.79 1.13 18.08-61.98z"/><path class="cls-22" d="m65.29 44.87 1.63-.61-34.05-19.63-1.97.47 34.39 19.77z"/><g style="clip-path:url(#clippath-3)"><ellipse cx="26.62" cy="59.67" rx="26.62" ry="35.81" style="fill:url(#linear-gradient-4);opacity:.26"/></g><path class="cls-23" d="m65.62 45 34.39 19.77-18.08 61.98-34.72-19.91L65.62 45z"/><path class="cls-4" d="m66.1 46.62 32.17 18.67-17.85 59.03-31.83-18.57L66.1 46.62z"/><path class="cls-16" d="m63.02 84.39-5.65-3.26c-.52-.3-1.08-.96-.95-1.64l1.84-6.41c.15-.54.66-.71 1.18-.41l5.98 3.45c.52.3.78.88.61 1.44l-1.84 6.41c-.14.44-.65.72-1.17.42ZM70.9 88.96l-5.65-3.26c-.52-.3-1.08-.96-.95-1.64l1.84-6.41c.15-.54.66-.71 1.18-.41l5.98 3.45c.52.3.78.88.61 1.44l-1.84 6.41c-.14.44-.65.72-1.17.42ZM65.61 76.04l-5.65-3.26c-.52-.3-1.08-.96-.95-1.64l1.84-6.41c.15-.54.66-.71 1.18-.41l5.98 3.45c.52.3.78.88.61 1.44l-1.84 6.41c-.14.44-.65.72-1.17.42ZM73.5 80.61l-5.65-3.26c-.52-.3-1.08-.96-.95-1.64l1.84-6.41c.15-.54.66-.71 1.18-.41l5.98 3.45c.52.3.78.88.61 1.44l-1.84 6.41c-.14.44-.65.72-1.17.42ZM68.05 67.61l-5.65-3.26c-.52-.3-1.08-.96-.95-1.64l1.84-6.41c.15-.54.66-.71 1.18-.41l5.98 3.45c.52.3.78.88.61 1.44l-1.84 6.41c-.14.44-.65.72-1.17.42ZM75.94 72.18l-5.65-3.26c-.52-.3-1.08-.96-.95-1.64l1.84-6.41c.15-.54.66-.71 1.18-.41l5.98 3.45c.52.3.78.88.61 1.44l-1.84 6.41c-.14.44-.65.72-1.17.42ZM70.57 59.29l-5.65-3.26c-.52-.3-1.08-.96-.95-1.64l1.84-6.41c.15-.54.66-.71 1.18-.41l5.98 3.45c.52.3.78.88.61 1.44l-1.84 6.41c-.14.44-.65.72-1.17.42ZM78.46 63.86l-5.65-3.26c-.52-.3-1.08-.96-.95-1.64l1.84-6.41c.15-.54.66-.71 1.18-.41l5.98 3.45c.52.3.78.88.61 1.44l-1.84 6.41c-.14.44-.65.72-1.17.42ZM78.86 93.56l-5.65-3.26c-.52-.3-1.08-.96-.95-1.64l1.84-6.41c.15-.54.66-.71 1.18-.41l5.98 3.45c.52.3.78.88.61 1.44l-1.84 6.41c-.14.44-.65.72-1.17.42ZM86.79 98.18l-5.65-3.26c-.52-.3-1.08-.96-.95-1.64l1.84-6.41c.15-.54.66-.71 1.18-.41l5.98 3.45c.52.3.78.88.61 1.44l-1.84 6.41c-.14.44-.65.72-1.17.42ZM81.46 85.21l-5.65-3.26c-.52-.3-1.08-.96-.95-1.64l1.84-6.41c.15-.54.66-.71 1.18-.41l5.98 3.45c.52.3.78.88.61 1.44l-1.84 6.41c-.14.44-.65.72-1.17.42ZM89.39 89.83l-5.65-3.26c-.52-.3-1.08-.96-.95-1.64l1.84-6.41c.15-.54.66-.71 1.18-.41l5.98 3.45c.52.3.78.88.61 1.44l-1.84 6.41c-.14.44-.65.72-1.17.42ZM83.9 76.78l-5.65-3.26c-.52-.3-1.08-.96-.95-1.64l1.84-6.41c.15-.54.66-.71 1.18-.41l5.98 3.45c.52.3.78.88.61 1.44l-1.84 6.41c-.14.44-.65.72-1.17.42ZM91.83 81.4l-5.65-3.26c-.52-.3-1.08-.96-.95-1.64l1.84-6.41c.15-.54.66-.71 1.18-.41l5.98 3.45c.52.3.78.88.61 1.44L93 80.98c-.14.44-.65.72-1.17.42ZM86.42 68.46l-5.65-3.26c-.52-.3-1.08-.96-.95-1.64l1.84-6.41c.15-.54.66-.71 1.18-.41l5.98 3.45c.52.3.78.88.61 1.44l-1.84 6.41c-.14.44-.65.72-1.17.42ZM94.35 73.02l-5.65-3.26c-.52-.3-1.08-.96-.95-1.64l1.84-6.41c.15-.54.66-.71 1.18-.41l5.98 3.45c.52.3.78.88.61 1.44l-1.84 6.41c-.14.44-.65.72-1.17.42ZM55.51 109.73l-5.65-3.26c-.52-.3-1.08-.96-.95-1.64l1.84-6.41c.15-.54.66-.71 1.18-.41l5.98 3.45c.52.3.78.88.61 1.44l-1.84 6.41c-.14.44-.65.72-1.17.42ZM63.39 114.3l-5.65-3.26c-.52-.3-1.08-.96-.95-1.64l1.84-6.41c.15-.54.66-.71 1.18-.41l5.98 3.45c.52.3.78.88.61 1.44l-1.84 6.41c-.14.44-.65.72-1.17.42ZM58.07 101.32l-5.65-3.26c-.52-.3-1.08-.96-.95-1.64l1.84-6.41c.15-.54.66-.71 1.18-.41l5.98 3.45c.52.3.78.88.61 1.44l-1.84 6.41c-.14.44-.65.72-1.17.42ZM65.96 105.89l-5.65-3.26c-.52-.3-1.08-.96-.95-1.64l1.84-6.41c.15-.54.66-.71 1.18-.41l5.98 3.45c.52.3.78.88.61 1.44l-1.84 6.41c-.14.44-.65.72-1.17.42ZM60.55 92.77l-5.65-3.26c-.52-.3-1.08-.96-.95-1.64l1.84-6.41c.15-.54.66-.71 1.18-.41l5.98 3.45c.52.3.78.88.61 1.44l-1.84 6.41c-.14.44-.65.72-1.17.42ZM68.44 97.34l-5.65-3.26c-.52-.3-1.08-.96-.95-1.64l1.84-6.41c.15-.54.66-.71 1.18-.41l5.98 3.45c.52.3.78.88.61 1.44l-1.84 6.41c-.14.44-.65.72-1.17.42ZM71.35 118.9l-5.65-3.26c-.52-.3-1.08-.96-.95-1.64l1.84-6.41c.15-.54.66-.71 1.18-.41l5.98 3.45c.52.3.78.88.61 1.44l-1.84 6.41c-.14.44-.65.72-1.17.42ZM79.28 123.52l-5.65-3.26c-.52-.3-1.08-.96-.95-1.64l1.84-6.41c.15-.54.66-.71 1.18-.41l5.98 3.45c.52.3.78.88.61 1.44l-1.84 6.41c-.14.44-.65.72-1.17.42ZM73.92 110.49l-5.65-3.26c-.52-.3-1.08-.96-.95-1.64l1.84-6.41c.15-.54.66-.71 1.18-.41l5.98 3.45c.52.3.78.88.61 1.44l-1.84 6.41c-.14.44-.65.72-1.17.42ZM81.85 115.11l-5.65-3.26c-.52-.3-1.08-.96-.95-1.64l1.84-6.41c.15-.54.66-.71 1.18-.41l5.98 3.45c.52.3.78.88.61 1.44l-1.84 6.41c-.14.44-.65.72-1.17.42ZM76.4 101.94l-5.65-3.26c-.52-.3-1.08-.96-.95-1.64l1.84-6.41c.15-.54.66-.71 1.18-.41l5.98 3.45c.52.3.78.88.61 1.44l-1.84 6.41c-.14.44-.65.72-1.17.42ZM84.33 106.5l-5.65-3.26c-.52-.3-1.08-.96-.95-1.64l1.84-6.41c.15-.54.66-.71 1.18-.41l5.98 3.45c.52.3.78.88.61 1.44l-1.84 6.41c-.14.44-.65.72-1.17.42Z"/><path class="cls-2" d="m68.56 48.16-17.19 59.15 17.19-59.15ZM70.58 49.39l-17.19 59.15 17.19-59.15ZM76.53 52.87l-17.19 59.15 17.19-59.15ZM78.55 54.11l-17.19 59.15 17.19-59.15ZM84.49 57.47 67.3 116.62l17.19-59.15ZM86.51 58.71l-17.19 59.15 17.19-59.15ZM92.46 62.07l-17.19 59.15 17.19-59.15ZM94.48 63.31l-17.19 59.15 17.19-59.15Z"/><path class="cls-4" d="m66.04 46.46-.17.09 32.4 18.74.15-.09-32.38-18.74z"/><path class="cls-15" d="m65.87 46.55-.05.19 32.24 18.59.03-.13-32.22-18.65z"/><path class="cls-1" d="m98.27 65.29.15-.09-17.66 59.2-.34.21 17.85-59.32z"/><path class="cls-3" d="m98.27 65.29-.15-.09-17.84 59.33.14.08 17.85-59.32z"/><path class="cls-1" d="m66.04 46.86.14.08-17.65 59.02-.2.07 17.71-59.17z"/><path class="cls-3" d="m66.1 46.68-.22-.13-17.79 59.34.24.14L66.1 46.68z"/><path class="cls-4" d="m48.6 105.75-.2.05 31.93 18.57.04-.13-31.77-18.49z"/><path class="cls-15" d="m48.4 105.8-.07.23 31.95 18.5.05-.16L48.4 105.8z"/><path class="cls-11" d="m100.01 64.76 1.63-.6-17.92 61.46-1.79 1.13 18.08-61.99z"/><path class="cls-22" d="m100.01 64.76 1.63-.6-34.05-19.63-1.97.47 34.39 19.76z"/><g style="clip-path:url(#clippath-4)"><ellipse cx="61.34" cy="79.57" rx="26.62" ry="35.81" style="fill:url(#linear-gradient-5);opacity:.26"/></g><path class="cls-23" d="m100.3 64.87 34.38 19.77-18.07 61.98-34.73-19.91 18.42-61.84z"/><path class="cls-4" d="m100.77 66.49 32.17 18.67-17.84 59.03-31.83-18.57 17.5-59.13z"/><path class="cls-16" d="M97.69 104.26 92.04 101c-.52-.3-1.08-.96-.95-1.64l1.84-6.41c.15-.54.66-.71 1.18-.41l5.98 3.45c.52.3.78.88.61 1.44l-1.84 6.41c-.14.44-.65.72-1.17.42ZM105.58 108.83l-5.65-3.26c-.52-.3-1.08-.96-.95-1.64l1.84-6.41c.15-.54.66-.71 1.18-.41l5.98 3.45c.52.3.78.88.61 1.44l-1.84 6.41c-.14.44-.65.72-1.17.42ZM100.29 95.91l-5.65-3.26c-.52-.3-1.08-.96-.95-1.64l1.84-6.41c.15-.54.66-.71 1.18-.41l5.98 3.45c.52.3.78.88.61 1.44l-1.84 6.41c-.14.44-.65.72-1.17.42ZM108.17 100.48l-5.65-3.26c-.52-.3-1.08-.96-.95-1.64l1.84-6.41c.15-.54.66-.71 1.18-.41l5.98 3.45c.52.3.78.88.61 1.44l-1.84 6.41c-.14.44-.65.72-1.17.42ZM102.72 87.48l-5.65-3.26c-.52-.3-1.08-.96-.95-1.64l1.84-6.41c.15-.54.66-.71 1.18-.41l5.98 3.45c.52.3.78.88.61 1.44l-1.84 6.41c-.14.44-.65.72-1.17.42ZM110.61 92.05l-5.65-3.26c-.52-.3-1.08-.96-.95-1.64l1.84-6.41c.15-.54.66-.71 1.18-.41l5.98 3.45c.52.3.78.88.61 1.44l-1.84 6.41c-.14.44-.65.72-1.17.42ZM105.25 79.17l-5.65-3.26c-.52-.3-1.08-.96-.95-1.64l1.84-6.41c.15-.54.66-.71 1.18-.41l5.98 3.45c.52.3.78.88.61 1.44l-1.84 6.41c-.14.44-.65.72-1.17.42ZM113.14 83.73l-5.65-3.26c-.52-.3-1.08-.96-.95-1.64l1.84-6.41c.15-.54.66-.71 1.18-.41l5.98 3.45c.52.3.78.88.61 1.44l-1.84 6.41c-.14.44-.65.72-1.17.42ZM113.54 113.43l-5.65-3.26c-.52-.3-1.08-.96-.95-1.64l1.84-6.41c.15-.54.66-.71 1.18-.41l5.98 3.45c.52.3.78.88.61 1.44l-1.84 6.41c-.14.44-.65.72-1.17.42ZM121.46 118.06l-5.65-3.26c-.52-.3-1.08-.96-.95-1.64l1.84-6.41c.15-.54.66-.71 1.18-.41l5.98 3.45c.52.3.78.88.61 1.44l-1.84 6.41c-.14.44-.65.72-1.17.42ZM116.13 105.08l-5.65-3.26c-.52-.3-1.08-.96-.95-1.64l1.84-6.41c.15-.54.66-.71 1.18-.41l5.98 3.45c.52.3.78.88.61 1.44l-1.84 6.41c-.14.44-.65.72-1.17.42ZM124.06 109.7l-5.65-3.26c-.52-.3-1.08-.96-.95-1.64l1.84-6.41c.15-.54.66-.71 1.18-.41l5.98 3.45c.52.3.78.88.61 1.44l-1.84 6.41c-.14.44-.65.72-1.17.42ZM118.57 96.65l-5.65-3.26c-.52-.3-1.08-.96-.95-1.64l1.84-6.41c.15-.54.66-.71 1.18-.41l5.98 3.45c.52.3.78.88.61 1.44l-1.84 6.41c-.14.44-.65.72-1.17.42ZM126.5 101.27l-5.65-3.26c-.52-.3-1.08-.96-.95-1.64l1.84-6.41c.15-.54.66-.71 1.18-.41L128.9 93c.52.3.78.88.61 1.44l-1.84 6.41c-.14.44-.65.72-1.17.42ZM121.09 88.33l-5.65-3.26c-.52-.3-1.08-.96-.95-1.64l1.84-6.41c.15-.54.66-.71 1.18-.41l5.98 3.45c.52.3.78.88.61 1.44l-1.84 6.41c-.14.44-.65.72-1.17.42ZM129.02 92.89l-5.65-3.26c-.52-.3-1.08-.96-.95-1.64l1.84-6.41c.15-.54.66-.71 1.18-.41l5.98 3.45c.52.3.78.88.61 1.44l-1.84 6.41c-.14.44-.65.72-1.17.42ZM90.18 129.6l-5.65-3.26c-.52-.3-1.08-.96-.95-1.64l1.84-6.41c.15-.54.66-.71 1.18-.41l5.98 3.45c.52.3.78.88.61 1.44l-1.84 6.41c-.14.44-.65.72-1.17.42ZM98.07 134.17l-5.65-3.26c-.52-.3-1.08-.96-.95-1.64l1.84-6.41c.15-.54.66-.71 1.18-.41l5.98 3.45c.52.3.78.88.61 1.44l-1.84 6.41c-.14.44-.65.72-1.17.42ZM92.75 121.19l-5.65-3.26c-.52-.3-1.08-.96-.95-1.64l1.84-6.41c.15-.54.66-.71 1.18-.41l5.98 3.45c.52.3.78.88.61 1.44l-1.84 6.41c-.14.44-.65.72-1.17.42ZM100.63 125.76l-5.65-3.26c-.52-.3-1.08-.96-.95-1.64l1.84-6.41c.15-.54.66-.71 1.18-.41l5.98 3.45c.52.3.78.88.61 1.44l-1.84 6.41c-.14.44-.65.72-1.17.42ZM95.23 112.64l-5.65-3.26c-.52-.3-1.08-.96-.95-1.64l1.84-6.41c.15-.54.66-.71 1.18-.41l5.98 3.45c.52.3.78.88.61 1.44l-1.84 6.41c-.14.44-.65.72-1.17.42ZM103.12 117.21l-5.65-3.26c-.52-.3-1.08-.96-.95-1.64l1.84-6.41c.15-.54.66-.71 1.18-.41l5.98 3.45c.52.3.78.88.61 1.44l-1.84 6.41c-.14.44-.65.72-1.17.42ZM106.02 138.77l-5.65-3.26c-.52-.3-1.08-.96-.95-1.64l1.84-6.41c.15-.54.66-.71 1.18-.41l5.98 3.45c.52.3.78.88.61 1.44l-1.84 6.41c-.14.44-.65.72-1.17.42ZM113.95 143.39l-5.65-3.26c-.52-.3-1.08-.96-.95-1.64l1.84-6.41c.15-.54.66-.71 1.18-.41l5.98 3.45c.52.3.78.88.61 1.44l-1.84 6.41c-.14.44-.65.72-1.17.42ZM108.59 130.36l-5.65-3.26c-.52-.3-1.08-.96-.95-1.64l1.84-6.41c.15-.54.66-.71 1.18-.41l5.98 3.45c.52.3.78.88.61 1.44l-1.84 6.41c-.14.44-.65.72-1.17.42ZM116.52 134.98l-5.65-3.26c-.52-.3-1.08-.96-.95-1.64l1.84-6.41c.15-.54.66-.71 1.18-.41l5.98 3.45c.52.3.78.88.61 1.44l-1.84 6.41c-.14.44-.65.72-1.17.42ZM111.07 121.81l-5.65-3.26c-.52-.3-1.08-.96-.95-1.64l1.84-6.41c.15-.54.66-.71 1.18-.41l5.98 3.45c.52.3.78.88.61 1.44l-1.84 6.41c-.14.44-.65.72-1.17.42ZM119 126.37l-5.65-3.26c-.52-.3-1.08-.96-.95-1.64l1.84-6.41c.15-.54.66-.71 1.18-.41l5.98 3.45c.52.3.78.88.61 1.44l-1.84 6.41c-.14.44-.65.72-1.17.42Z"/><path class="cls-2" d="m103.23 68.03-17.19 59.15 17.19-59.15ZM105.25 69.27l-17.19 59.15 17.19-59.15ZM111.2 72.74l-17.19 59.15 17.19-59.15ZM113.22 73.98l-17.19 59.15 17.19-59.15ZM119.16 77.34l-17.19 59.15 17.19-59.15ZM121.18 78.58l-17.19 59.15 17.19-59.15ZM127.13 81.94l-17.19 59.15 17.19-59.15ZM129.15 83.18l-17.19 59.15 17.19-59.15Z"/><path class="cls-4" d="m100.71 66.33-.16.09 32.39 18.74.16-.09-32.39-18.74z"/><path class="cls-15" d="m100.55 66.42-.06.19 32.25 18.59.02-.12-32.21-18.66z"/><path class="cls-1" d="m132.94 85.16.16-.09-17.66 59.21-.34.2 17.84-59.32z"/><path class="cls-3" d="m132.94 85.16-.15-.08-17.83 59.32.14.08 17.84-59.32z"/><path class="cls-1" d="m100.72 66.73.13.08-17.64 59.02-.2.08 17.71-59.18z"/><path class="cls-3" d="m100.77 66.55-.22-.13-17.79 59.34.25.15 17.76-59.36z"/><path class="cls-4" d="m83.27 125.62-.19.06 31.93 18.56.03-.12-31.77-18.5z"/><path class="cls-15" d="m83.08 125.68-.07.23 31.95 18.49.05-.16-31.93-18.56z"/><path class="cls-11" d="m134.68 84.64 1.64-.61-17.93 61.46-1.78 1.13 18.07-61.98z"/><path class="cls-22" d="m134.68 84.64 1.64-.61-34.05-19.63-1.97.47 34.38 19.77z"/><g style="clip-path:url(#clippath-5)"><ellipse cx="96.01" cy="99.44" rx="26.62" ry="35.81" style="opacity:.26;fill:url(#linear-gradient-6)"/></g></g></svg>