<svg id="Layer_2" data-name="Layer 2" xmlns="http://www.w3.org/2000/svg" viewBox="0 0 105 105"><defs><style>.cls-1{fill:#fff}</style></defs><g id="Layer_1-2" data-name="Layer 1"><circle cx="52.5" cy="52.5" r="52.5" style="fill:#0055ad"/><path class="cls-1" d="M72.85 55.03c-.09 0-.18-.02-.26-.05-2.38-.93-5.41-1.7-8.76-2.21a.716.716 0 0 1-.6-.82c.06-.39.42-.66.82-.6 3.45.53 6.58 1.32 9.06 2.29.37.14.55.56.41.93-.11.28-.38.45-.67.45ZM53.22 69.19c-4.46 0-8.86-.38-12.73-1.11-3.16-.59-5.89-1.38-8.1-2.36a.715.715 0 0 1 .57-1.31c2.08.91 4.77 1.69 7.79 2.26 3.78.71 8.09 1.08 12.46 1.08 7.67 0 14.85-1.13 19.69-3.1.37-.15.78.03.93.39.15.37-.03.78-.39.93-5 2.04-12.38 3.21-20.23 3.21ZM32.91 55.31a.711.711 0 0 1-.28-1.37c2.41-1.03 5.53-1.88 9.01-2.46.4-.07.76.2.82.59.06.39-.2.76-.59.82-3.37.56-6.37 1.37-8.68 2.36-.09.04-.19.06-.28.06Z"/><path class="cls-1" d="M64.06 67.83c-.73 0-1.41-.28-1.92-.8a2.61 2.61 0 0 1-.76-1.9c.02-1.4 1.09-2.52 2.5-2.61l.63-.03c1.65-.07 3.36-.13 4.64-2.34.31-.53.61-1.18.93-1.86 1.27-2.73 3.01-6.46 7.39-6.98h3.66c4.9 0 8.59 4 8.59 9.3v1.43c0 .4-.32.72-.72.72s-.72-.32-.72-.72v-1.43c0-4.56-3.01-7.87-7.16-7.87h-3.54c-3.55.44-4.97 3.48-6.22 6.16-.33.72-.65 1.4-.99 1.98-1.68 2.88-4.08 2.98-5.82 3.04-.2 0-.4.02-.59.03a1.223 1.223 0 0 0-.81 2.08c.24.24.55.37.9.37 2.18 0 4.35-.31 5.79-.82 1.16-.41 2.47-1.48 2.89-1.9.28-.28.73-.28 1.01 0s.28.73 0 1.01c-.41.41-1.92 1.71-3.44 2.25-1.61.56-3.89.89-6.26.9ZM78.98 49.86c-3 0-5.01-2.3-5.01-5.73s2.01-5.73 5.01-5.73 5.01 2.3 5.01 5.73-2.01 5.73-5.01 5.73Zm0-10.02c-2.64 0-3.58 2.31-3.58 4.29s.94 4.29 3.58 4.29 3.58-2.31 3.58-4.29-.94-4.29-3.58-4.29Z"/><path class="cls-1" d="M83.28 75.63h-13.6c-.33 0-.62-.23-.7-.55a.7.7 0 0 1 .38-.8c.13-.06 3.18-1.66 3.18-5.09v-5c0-3.55 2.89-6.45 6.45-6.45h6.67c2.24 0 4.06 1.82 4.06 4.06v7.39c0 3.55-2.89 6.44-6.44 6.44ZM71.82 74.2h11.46c2.76 0 5.01-2.25 5.01-5.01V61.8c0-1.45-1.18-2.63-2.63-2.63h-6.67c-2.76 0-5.01 2.25-5.01 5.01v5c0 2.33-1.11 3.98-2.15 5.01Z"/><path class="cls-1" d="M76.12 75.63H63.95c-.4 0-.72-.32-.72-.72 0-2.76 2.25-5.01 5.01-5.01h4.29c.4 0 .72.32.72.72s-.32.72-.72.72h-4.29c-1.73 0-3.17 1.23-3.51 2.86h11.38c.4 0 .72.32.72.72s-.32.72-.72.72ZM41.66 67.83c-2.37 0-4.65-.33-6.26-.9-1.52-.53-3.03-1.83-3.44-2.25a.712.712 0 0 1 0-1.01c.28-.28.73-.27 1.01 0 .42.43 1.73 1.5 2.89 1.9 1.44.5 3.61.81 5.79.82.34 0 .66-.13.9-.37.23-.23.36-.55.35-.88 0-.64-.51-1.16-1.16-1.2l-.59-.03c-1.75-.07-4.14-.16-5.82-3.04-.34-.59-.66-1.26-.99-1.98-1.25-2.68-2.66-5.72-6.22-6.16h-3.54c-4.15 0-7.16 3.31-7.16 7.87v1.43c0 .4-.32.72-.72.72s-.72-.32-.72-.72V60.6c0-5.3 3.69-9.3 8.59-9.3h3.66c4.38.52 6.12 4.26 7.39 6.98.32.69.62 1.34.93 1.86 1.28 2.2 2.99 2.27 4.64 2.34.22 0 .43.02.63.03 1.4.09 2.47 1.21 2.5 2.61.01.72-.26 1.39-.76 1.9-.51.52-1.19.8-1.91.8ZM26.74 49.86c-3 0-5.01-2.3-5.01-5.73s2.01-5.73 5.01-5.73 5.01 2.3 5.01 5.73-2.01 5.73-5.01 5.73Zm0-10.02c-2.64 0-3.58 2.31-3.58 4.29s.94 4.29 3.58 4.29 3.58-2.31 3.58-4.29-.94-4.29-3.58-4.29Z"/><path class="cls-1" d="M36.04 75.63h-13.6c-3.55 0-6.44-2.89-6.44-6.44V61.8c0-2.24 1.82-4.06 4.06-4.06h6.67c3.55 0 6.45 2.89 6.45 6.45v5c0 3.43 3.06 5.02 3.19 5.09a.72.72 0 0 1-.32 1.36ZM20.06 59.17c-1.45 0-2.63 1.18-2.63 2.63v7.39c0 2.76 2.25 5.01 5.01 5.01H33.9c-1.05-1.03-2.15-2.68-2.15-5.01v-5c0-2.76-2.25-5.01-5.01-5.01h-6.67Z"/><path class="cls-1" d="M41.77 75.63H29.6c-.4 0-.72-.32-.72-.72s.32-.72.72-.72h11.38a3.584 3.584 0 0 0-3.51-2.86h-4.29c-.4 0-.72-.32-.72-.72s.32-.72.72-.72h4.29c2.76 0 5.01 2.25 5.01 5.01 0 .4-.32.72-.72.72ZM53.21 32.36c-.4 0-.72-.32-.72-.72v-5.4c0-.4.32-.72.72-.72s.72.32.72.72v5.4c0 .4-.32.72-.72.72ZM43.91 34.68c-.18 0-.37-.07-.51-.21l-3.82-3.82a.712.712 0 0 1 0-1.01c.28-.28.73-.28 1.01 0l3.82 3.82c.28.28.28.73 0 1.01a.71.71 0 0 1-.51.21ZM62.47 34.68c-.18 0-.37-.07-.51-.21a.712.712 0 0 1 0-1.01l3.82-3.82c.28-.28.73-.28 1.01 0s.28.73 0 1.01l-3.82 3.82a.71.71 0 0 1-.51.21ZM48.37 44.85a.715.715 0 0 1-.57-1.15l4.91-6.31c.24-.31.69-.37 1-.13.31.24.37.69.13 1l-4.91 6.31a.72.72 0 0 1-.57.28Z"/><path class="cls-1" d="M58.19 44.85a.75.75 0 0 1-.57-.28l-4.91-6.31a.706.706 0 0 1 .13-1c.31-.24.76-.19 1 .13l4.91 6.31c.24.31.19.76-.13 1-.13.1-.29.15-.44.15Z"/><path class="cls-1" d="M53.28 58.17a.705.705 0 0 1-.67-.95l7.01-19.64c.13-.37.54-.57.91-.43.37.13.57.54.43.91L53.95 57.7c-.1.29-.38.48-.67.48Z"/><path class="cls-1" d="M65.9 44.85H40.65c-.4 0-.72-.32-.72-.72s.32-.72.72-.72H65.9c.4 0 .72.32.72.72s-.32.72-.72.72Z"/><path class="cls-1" d="M53.28 58.17c-.29 0-.57-.18-.67-.48L45.6 38.05a.713.713 0 0 1 1.34-.48l7.01 19.64a.713.713 0 0 1-.67.95Z"/><path class="cls-1" d="M53.28 58.17c-.19 0-.38-.08-.51-.22L39.79 44.62a.706.706 0 0 1 0-.99l5.96-6.31a.71.71 0 0 1 .52-.22H60.3c.2 0 .39.08.52.22l5.96 6.31c.26.28.26.72 0 .99L53.8 57.95c-.13.14-.32.22-.51.22ZM41.3 44.12l11.98 12.31 11.98-12.31-5.28-5.59H46.57l-5.28 5.59Z"/></g></svg>