<svg id="Layer_2" data-name="Layer 2" xmlns="http://www.w3.org/2000/svg" viewBox="0 0 105 105"><defs><style>.cls-1{fill:#fff}</style></defs><g id="Layer_1-2" data-name="Layer 1"><circle cx="52.5" cy="52.5" r="52.5" style="fill:#0055ad"/><path class="cls-1" d="M51.73 81.48h-3.24c-.49 0-.88-.39-.88-.88s.39-.88.88-.88h2.36V66.58h-2.36c-.49 0-.88-.39-.88-.88s.39-.88.88-.88h3.24c.49 0 .88.39.88.88v14.9c0 .49-.39.88-.88.88ZM71.16 73.71h-.65c-.49 0-.88-.39-.88-.88s.39-.88.88-.88h.65c.59 0 1.06-.48 1.06-1.06s-.48-1.06-1.06-1.06h-.65c-.49 0-.88-.39-.88-.88s.39-.88.88-.88h.65c1.56 0 2.82 1.27 2.82 2.82s-1.27 2.82-2.82 2.82Z"/><path class="cls-1" d="M71.16 77.59h-.65c-.49 0-.88-.39-.88-.88s.39-.88.88-.88h.65c.59 0 1.06-.48 1.06-1.06s-.48-1.06-1.06-1.06h-.65c-.49 0-.88-.39-.88-.88s.39-.88.88-.88h.65c1.56 0 2.82 1.27 2.82 2.82s-1.27 2.82-2.82 2.82Z"/><path class="cls-1" d="M71.16 81.48H60.8c-1.59 0-3.09-.45-4.35-1.3h-4.71c-.49 0-.88-.39-.88-.88V66.99c0-.49.39-.88.88-.88h4.01c1.13-.98 4.97-8.26 5.54-10.31.01-.04.02-.07.04-.11.28-.65.99-1.15 1.79-1.23.64-.07 1.22.13 1.66.55.6.58.86 1.51.78 2.77 0 .31-.12 1.32-1.37 6.38h6.98c1.56 0 2.82 1.27 2.82 2.82s-1.27 2.82-2.82 2.82h-.65c-.49 0-.88-.39-.88-.88s.39-.88.88-.88h.65c.59 0 1.06-.48 1.06-1.06s-.48-1.06-1.06-1.06h-8.1c-.27 0-.53-.12-.69-.34a.846.846 0 0 1-.16-.75c1.07-4.3 1.57-6.66 1.59-7.03v-.1c.06-.82-.09-1.28-.25-1.43-.03-.03-.09-.09-.25-.07-.16.02-.3.11-.35.17-.51 1.53-4.85 11.07-6.8 11.47-.06.01-.12.02-.18.02h-3.36v10.55h4.11c.19 0 .37.06.52.17 1.02.75 2.22 1.13 3.56 1.13h10.36c.59 0 1.06-.48 1.06-1.06s-.48-1.06-1.06-1.06h-.65c-.49 0-.88-.39-.88-.88s.39-.88.88-.88h.65c1.56 0 2.82 1.27 2.82 2.82s-1.27 2.82-2.82 2.82ZM32.36 63.99c-.22 0-.44-.08-.61-.24l-.08-.07c-.06-.05-.11-.1-.16-.15-4.56-4.43-7.08-10.37-7.08-16.73 0-12.85 10.45-23.31 23.31-23.31h.11c.46.04.85.42.85.88v23.28c0 .23-.09.46-.26.62l-8.8 8.8c-.34.34-.9.34-1.24 0a.881.881 0 0 1 0-1.24l8.54-8.54V25.27c-11.49.41-20.74 9.91-20.74 21.54 0 5.69 2.18 11.03 6.15 15.08l3.58-3.58c.34-.34.9-.34 1.24 0 .34.34.34.9 0 1.24l-4.18 4.18c-.17.17-.4.26-.62.26ZM69.16 55.31a.877.877 0 0 1-.83-1.17c.44-1.24.76-2.53.97-3.84.17-1.1.26-2.24.26-3.36 0-10.49-7.47-19.46-17.77-21.33a.882.882 0 0 1-.71-1.02c.09-.48.54-.79 1.02-.71 11.13 2.03 19.22 11.73 19.22 23.06A23.56 23.56 0 0 1 70 54.72a.89.89 0 0 1-.83.59ZM47.87 70.38c-4.56 0-8.98-1.31-12.79-3.79a.884.884 0 0 1-.26-1.22c.26-.41.81-.52 1.22-.26 3.52 2.29 7.61 3.51 11.83 3.51.49 0 .88.39.88.88s-.39.88-.88.88Z"/><path class="cls-1" d="M44.72 62c-.19 0-.39-.06-.55-.19l-10.58-8.43a.886.886 0 0 1-.14-1.24c.3-.38.86-.44 1.24-.14l9.98 7.95 13.59-13.06c.3-.29.77-.33 1.12-.08l12.69 8.97 8.79-12.27a.88.88 0 0 1 1.23-.2c.39.28.49.83.2 1.23l-9.3 12.98c-.28.39-.83.48-1.22.21l-12.81-9.05-13.62 13.09c-.17.16-.39.25-.61.25Z"/><path class="cls-1" d="M81.57 49.29c-.49 0-.88-.39-.88-.88v-3.52h-3.52c-.49 0-.88-.39-.88-.88s.39-.88.88-.88h4.4c.49 0 .88.39.88.88v4.4c0 .49-.39.88-.88.88Z"/></g></svg>