<svg id="Layer_2" data-name="Layer 2" xmlns="http://www.w3.org/2000/svg" viewBox="0 0 406.83 458.69"><defs><style>.cls-1{fill:#cee4ef}.cls-3{fill-rule:evenodd}.cls-4{fill:#b8735f}.cls-5{fill:#cbd941}.cls-3,.cls-6{fill:#fd9f84}.cls-7{fill:#1b1a1f}.cls-9{fill:#659b1f}</style></defs><g id="Layer_1-2" data-name="Layer 1"><ellipse class="cls-7" cx="247.27" cy="193.73" rx="33.87" ry="5.63" transform="rotate(-18.29 247.22 193.704)"/><path class="cls-6" d="m257.98 129.51 18.86 101.86c4.25 16.05 2.29 26.67-12.1 32.25-14.75 2.64-29.5-7.57-33.08-22.12l-26.78-98.43c-3.35-13.59 4.09-27.52 17.24-32.31 15.14-5.51 31.74 3.17 35.87 18.74Z"/><path class="cls-6" d="m341.37 136.36 41.87 3.13-23.91 15.99-77.14 98.17c-13.87 13.87-34.92 14.66-46.75-3.4l6.66-26.42 99.27-87.47Z"/><path class="cls-7" d="M255.98 211.82c-.06 0-.12-.02-.16-.07a.22.22 0 0 1 .02-.31l85.39-75.24a.22.22 0 0 1 .31.02c.08.09.07.23-.02.31l-85.39 75.24s-.09.05-.14.05Z"/><path class="cls-5" d="M279.48 183.1c-1.25-2.81-16.32-.44-33.89 5.37-17.36 5.74-30.75 12.7-30.44 15.77l-12.76-60.6c-2.1-9.91 1.08-20.2 8.4-27.2 2.72-2.6 5.89-4.63 9.32-6 3.43-1.37 7.12-2.1 10.88-2.1h.63c12.07 0 22.9 7.42 27.26 18.67l20.59 56.09Z"/><path class="cls-4" d="m364.73 151.87-16.56-3.24 8.35 10.42s1.96-2.96 4.17-4.4c2.21-1.44 4.04-2.78 4.04-2.78Z"/><path class="cls-6" d="M211 103.05c-7.51 1.05-32.1-7.63-32.1-7.63l10.17-68.64 35 39.92-5.49 32.6s-.06 2.69-7.58 3.74Z"/><path class="cls-4" d="m223.67 68.7-2.72 16.18-20.8-14.3 23.52-1.88z"/><path class="cls-6" d="M238.83 18.86s6.48 35.29-2.66 52.7c-9.15 17.42-39.72-1.86-42.18-7.1-2.46-5.25-17.24-30.04-4.31-49.42 10.5-15.74 43.03-20.97 49.16 3.82Z"/><path class="cls-7" d="M220.9 42.85c-.35.47-.51 1.05-.51 1.64 0 .79.14 1.9 1.05 1.94 1.41.06 1.76-2.45 1-3.49-.65-.89-1.19-.56-1.54-.09ZM235.51 45.31c-.35.47-.51 1.05-.51 1.64 0 .79.14 1.9 1.05 1.94 1.41.06 1.76-2.45 1-3.49-.65-.89-1.19-.56-1.54-.09ZM231.6 58.07c-.09 0-.18-.06-.21-.15-.04-.11.03-.24.14-.27 2.32-.71 3-1.84 2.88-2.58-.1-.63-.76-1.06-1.59-1.04-.26 0-.5-.1-.72-.31-1.54-1.49-1.62-8.56-1.62-8.86 0-.12.1-.22.21-.22.12 0 .22.1.22.21 0 .07.08 7.19 1.49 8.55.13.13.27.19.41.19 1.06-.02 1.89.56 2.03 1.4.15.96-.6 2.27-3.18 3.06h-.06ZM226.26 40.33s-.1-.02-.14-.05c-.03-.02-2.71-2.19-9-2.01-.12 0-.22-.09-.22-.21s.09-.22.21-.22c6.48-.19 9.18 2.02 9.29 2.11.09.08.1.21.03.31-.04.05-.1.08-.17.08ZM233.07 40.95s-.09-.01-.12-.04c-.1-.07-.12-.2-.05-.3.07-.1 1.72-2.38 8.11-1.31.12.02.2.13.18.25-.02.12-.13.2-.25.18-6.07-1.02-7.67 1.11-7.68 1.13-.04.06-.11.09-.18.09Z"/><path class="cls-1" d="M226.01 63.64c-1.01-.54-1.85-.92-2.7-1.72-.85-.78-1.65-1.65-2.69-2.18-1.29-.66-1.81.55-1.49 1.66.88 3.01 4.02 5.35 7.2 4.45.28-.08.56-.19.76-.41.61-.69-.18-1.32-1.08-1.81Z"/><path class="cls-7" d="M249.01 293.99v.34a.97.97 0 0 0 0-.34Z"/><path class="cls-7" d="M84.38 262.33c-.91 4.75 35.31 16.67 81.13 25.46 45.82 8.8 82.58 11.29 83.49 6.54.91-4.75-34.37-14.95-80.19-23.74-45.82-8.8-83.52-13.01-84.43-8.26Z"/><path class="cls-7" d="m235.2 264.18 3.63 151.35-80.75-6.28-14.56-114.92 36.35-40.99 55.33 10.84z"/><path class="cls-7" d="m158.08 409.25 5.71-73.48-10.59 28.37 4.88 45.11z"/><path class="cls-7" d="m110.26 243.31-68.9 156.58 94.16 7.32 68.29-150.42-93.55-13.48z"/><path class="cls-5" d="m151.6 93.92 28.29-4.08c12.05 8.18 20.04 10.61 38.63 7.7l27.97 14.84 3.3 34.31-.78 147.29c-.75-4.89-35.45-14.81-80.19-23.4-45.65-8.76-83.24-12.98-84.42-8.31.47-2.35 21.2-91.42 38.2-138.99 5.39-15.08 13.23-26.65 29.01-29.36Z"/><path class="cls-7" d="M249.01 294.21c-.12 0-.22-.1-.22-.22l.78-134.08c0-.12.1-.22.22-.22s.22.1.22.22l-.78 134.08c0 .12-.1.22-.22.22Z"/><ellipse class="cls-7" cx="177.02" cy="188.05" rx="33.87" ry="5.63" transform="rotate(-14.15 177.06 188.055)"/><path class="cls-6" d="m191.18 132.74 18.45 88.81c4.25 16.05 2.29 26.67-12.1 32.25-14.75 2.64-29.5-7.57-33.08-22.12l-21.49-80.39c-3.35-13.59-.11-40.21 13.05-45 15.14-5.51 31.06 10.87 35.18 26.44Z"/><path class="cls-6" d="m269.2 133.15 23.18 20.61-73.4 88.79c-13.87 13.87-32.12 14.1-46.33.58l6.25-30.4 90.31-79.57Z"/><path class="cls-5" d="M210.04 179.48c-1.05-2.9-16.24-1.62-34.19 2.91-17.73 4.47-31.59 10.45-31.49 13.53L136 134.55a29.223 29.223 0 0 1 20.07-31.83c3.52-1.12 7.25-1.58 11.01-1.31l.63.05c12.04.87 22.31 9.05 25.85 20.59l16.49 57.43Z"/><path class="cls-7" d="M144.18 196.54c-.1 0-.2-.08-.21-.18l-7.98-48.96c-.02-.12.06-.23.18-.25.12-.02.23.06.25.18l7.98 48.96c.02.12-.06.23-.18.25h-.04ZM209.87 179.98c-.1 0-.18-.06-.21-.16l-12.2-44.28c-.03-.12.04-.23.15-.27.12-.03.23.04.27.15l12.2 44.28c.03.12-.04.23-.15.27h-.06ZM226.26 28.75s-2.14 5.67-9.15 6.04c0 0-9.69 8.27-17.09 7.59 0 0-8.73 13.36-12.57 15.47 0 0-3.87.41-5.63-9.82 0 0-.32-15.42 5.63-17.59 5.95-2.18 38.81-1.68 38.81-1.68Z"/><path d="m184.47 34.79 57.88-6.92S244.81-2.97 211.6.23c-31.83 3.07-27.13 34.56-27.13 34.56Z" style="fill:#0055ad"/><path class="cls-7" d="m208.9 31.87 62.05-7.26s-1.34-1.92-5.76-1.92-57.11 9.18-57.11 9.18h.82Z"/><circle class="cls-1" cx="229.85" cy="19.14" r="5.15"/><path class="cls-6" d="M208.83 43.56s-4.56-12.72-13.47-12.63c-8.91.09-6.85 15.38 1.23 22.02l12.25-9.4Z"/><path class="cls-7" d="M200.77 44.75a.2.2 0 0 1-.18-.1l-4.68-7.01s-.04-.08-.04-.12a.2.2 0 0 1 .1-.18c.1-.07.23-.04.3.06l4.68 7.01s.04.08.04.12a.2.2 0 0 1-.1.18c-.04.02-.08.04-.12.04Z"/><path class="cls-3" d="m273.16 137.23-3.96-4.07-10.35 8.78c1.92 4.35 8.33 4.86 11.94 10.36 3.33 5.09 6.74 9.57 9.78 12.98.41.46.82.91 1.21 1.33l1.13-1.38 4.47-5.45 3.54-4.31-17.76-18.25Z"/><path class="cls-3" d="M284.91 105.32c.38-.67.9-1.23 1.54-1.65 4.05-2.65 18.71-9.8 23.24-11.91 2.86-1.34 7.19 1.18 5.47 4.71-.88 1.81-3.42 2.76-7.58 4.99-5.16 2.76-10.99 7.49-14.44 10.31l19.03 18.52-21.25 25.2-21.73-22.33 15.72-27.83Z"/><path class="cls-3" d="M291.19 112.33s17.57-13.21 24.99-18.41c4.51-3.16 9.74 2.22 6.21 5.94-2.51 2.64-24.2 21.56-24.2 21.56l-7-9.09Z"/><path class="cls-3" d="M295.72 120.33s20.27-18.24 22.89-18.8c2.62-.56 6.87-.4 6.87 4.43s-24.13 24.99-24.13 24.99l-5.62-10.62Z"/><path class="cls-3" d="M312.17 130.28s11.68-11.27 12.88-12.81c2.18-2.8-1.61-8.68-6.73-5.1-5.12 3.59-17.78 14.49-17.78 14.49l11.64 3.43Z"/><path class="cls-7" d="M294.22 110.28c-.07 0-.13-.03-.17-.09-.07-.1-.05-.23.05-.3l21.96-16.14c.1-.07.23-.05.3.05.07.1.05.23-.05.3l-21.96 16.14s-.08.04-.13.04ZM300.26 117.06c-.07 0-.13-.03-.17-.09-.07-.1-.05-.23.04-.3l20.44-15.37c.1-.07.23-.05.3.04.07.1.05.23-.04.3l-20.44 15.37s-.08.04-.13.04ZM305.83 124.65c-.06 0-.13-.03-.17-.08-.07-.09-.06-.23.03-.3l16.38-13.12c.09-.07.23-.06.3.03.07.09.06.23-.03.3l-16.38 13.12s-.09.05-.14.05Z"/><path style="fill:#b8735f;fill-rule:evenodd" d="m290.29 156.28-6.67-12.55 11.31 7-4.64 5.55z"/><path class="cls-7" d="M193.71 199.89c-.06 0-.12-.02-.16-.07a.22.22 0 0 1 .02-.31l75.48-66.52a.22.22 0 0 1 .31.02c.08.09.07.23-.02.31l-75.48 66.52s-.09.05-.14.05Z"/><path class="cls-6" d="M152.14 294.97c-7.8 2.46-35.55-2.36-35.55-2.36l-1.48-61.36 44.42 36.22v22.16s.41 2.88-7.39 5.34Z"/><path class="cls-4" d="M159.53 268.31v18.89l-26.35-12.26 26.35-6.63z"/><path class="cls-6" d="M166.67 213.89s13.23 36.4 6.61 56.58c-6.61 20.18-42.62 5.14-46.18 0-3.56-5.14-23.74-28.89-13.45-51.84 10.29-22.95 43.92-25.72 53.02-4.75Z"/><path class="cls-7" d="m115.89 263.46 10.04-19.27s11.45-2.47 13.19-7.32l5.01-13.98s5.01.41 12.33-.35c6.04-.62 11.93-2.43 17.17-5.49 3.96-2.31 7.77-5.44 8.68-9.25 3.96-16.57-1.19-13.43-22.78-9.1 0 0-56.16-15.75-54.98 12.79 0 0-14.77 28.68 11.33 51.96Z"/><path class="cls-6" d="M138.28 245.17s-7.13-12.72-16.61-11.03c-9.47 1.69-4.53 17.6 5.25 23.23l11.35-12.2Z"/><path class="cls-7" d="M130.67 194.37s22.39-1.89 27.3-5.16c9.5-6.33 15.86-2.97 16.85.2.99 3.17.32 8.55-5.57 12.86-9.21 6.74-22.75 3.36-30.07 1.19-7.32-2.18-8.51-9.08-8.51-9.08ZM151.89 242.64c-.29.56-.35 1.21-.25 1.84.13.84.49 2 1.47 1.88 1.51-.19 1.44-2.92.44-3.9-.85-.83-1.37-.39-1.66.18ZM167.88 242.64c-.29.56-.35 1.21-.25 1.84.13.84.49 2 1.47 1.88 1.51-.19 1.44-2.92.44-3.9-.85-.83-1.37-.39-1.66.18ZM129.88 247.87c-.06 0-.12-.02-.16-.07l-6.24-6.62a.23.23 0 0 1 0-.31.23.23 0 0 1 .31 0l6.24 6.62c.08.09.08.22 0 .31a.22.22 0 0 1-.15.06ZM160.4 266.2h-.02c-6.97-.58-8.97-5.94-8.99-6-.04-.11.02-.24.13-.28.11-.04.24.02.28.13.02.05 1.93 5.15 8.62 5.71.12 0 .21.11.2.23 0 .11-.1.2-.22.2ZM164.36 257.7c-.73 0-1.25-.12-1.29-.13-.12-.03-.19-.14-.16-.26s.14-.19.26-.16c.02 0 2.52.56 4.28-.88 1.42-1.16 1.58-2.32 1.25-3.03-.33-.71-1.16-1.06-2.12-.87-.27.05-.54-.02-.81-.2-1.9-1.31-3.25-8.81-3.31-9.13-.02-.12.06-.23.18-.25.12-.02.23.06.25.18.01.08 1.38 7.64 3.13 8.85.17.12.33.16.48.13 1.16-.22 2.17.22 2.59 1.12.4.85.25 2.23-1.37 3.55-1.1.89-2.41 1.09-3.36 1.09ZM146.99 238.43c-.07 0-.14-.04-.18-.1-.06-.1-.04-.23.06-.3 4.92-3.17 10.28-.04 10.34 0 .1.06.14.19.07.3-.06.1-.19.14-.3.08-.05-.03-5.19-3.03-9.88 0-.04.02-.08.03-.12.03ZM164.46 238.43c-.06 0-.12-.02-.16-.07a.23.23 0 0 1 0-.31c.1-.1 2.55-2.34 8.32-2.77.12 0 .22.08.23.2 0 .12-.08.22-.2.23-5.6.41-8.03 2.63-8.05 2.65a.22.22 0 0 1-.15.06Z"/><path class="cls-7" d="M116.04 196.11s16.36-3.13 23.4-8.5c7.04-5.37 22.91-9.98 21.63 2.56-1.28 12.54-28.66 15.23-29.05 15.23s-15.98-9.28-15.98-9.28ZM183.05 438.28h-.02a.209.209 0 0 1-.19-.24l6.55-65.2c.01-.12.12-.21.24-.19.12.01.21.12.19.24l-6.55 65.2c-.01.11-.11.2-.22.2Z"/><path class="cls-9" d="M75.45 303.38s-32.53 3.07-47.51 43.09C20.56 366.2 6.45 402.31.59 428.63c-3.41 15.31 8.24 29.85 23.93 29.85h28.39l41.75-124.09-19.21-31Z"/><path class="cls-9" d="m312.17 409.6-91.07-79.65c-8.38-6.91-15.97-13.41-25.68-18.34-10.31-5.23-21.74-8.32-32.55-12.42-.07-.03-.74-.21-.76-.29l-1.14-9.74c-14.01 2.11-45.86-1.73-45.86-1.73-.96 2.88-1.62 10.22-1.62 10.22l-38.05 5.71-28.12 155.09H186.3l3.75-50.35 90.16 48.43c11.28 5.01 24.53.97 31.1-9.48 6.41-10.19 9.76-29.38.86-37.47Z"/><path class="cls-7" d="M139 302.13c-4.65 0-8.67-.37-11.91-.83-8.52-1.23-13.62-3.4-13.68-3.42a.22.22 0 0 1-.11-.29c.05-.11.18-.16.28-.11.05.02 5.11 2.17 13.58 3.39 7.82 1.13 20.21 1.66 34.9-2.17.12-.03.23.04.26.16a.21.21 0 0 1-.16.26c-8.67 2.26-16.55 3.01-23.17 3.01ZM66.04 412.23h-.06a.223.223 0 0 1-.15-.27l10.43-35.56c.03-.11.15-.18.27-.15.11.03.18.15.15.27l-10.43 35.56c-.03.09-.11.16-.21.16Z"/><path class="cls-7" d="m166.83 415.79-105.17-3.56c-.12 0-.21-.1-.21-.22s.11-.22.22-.21l105.17 3.56c.12 0 .21.1.21.22s-.1.21-.22.21Z"/><path class="cls-9" d="m259.96 421.23 62.19-98.81 38.74 22.72-48.35 99.8-52.58-23.71z"/><path class="cls-7" d="M360.89 345.14c-.44.75-1.9.85-4.07.39-.43-.09-.88-.2-1.36-.33-.05-.01-.11-.03-.16-.04-4.1-1.16-9.97-3.77-16.19-7.36-3.42-1.98-6.54-4.01-9.16-5.94-.33-.24-.65-.48-.96-.71-.53-.4-1.03-.8-1.5-1.18-4.1-3.33-6.36-6.11-5.64-7.36.78-1.35 4.87-.58 10.45 1.7.59.24 1.19.5 1.81.77.15.07.3.14.46.21 2.8 1.26 5.89 2.83 9.06 4.67 7 4.04 12.71 8.33 15.51 11.42.11.12.22.24.32.36.3.34.55.67.77.98.72 1.05.97 1.88.66 2.42Z"/><path class="cls-6" d="M403.47 315.45s-3.46 5.38-6.9 8.81c-3.45 3.43-24.29 6.18-24.29 6.18l31.19-14.98Z"/><path class="cls-6" d="M400.59 317.64c-2.53 1.72-7.91 5.91-19.04 9.81l-17.31 5.56-7.71 7.52-1.06 1.03-2.75 2.68c-.05-.02-.11-.03-.16-.05-4.06-1.28-9.86-4.06-15.96-7.83-3.36-2.08-6.42-4.2-8.98-6.21.62-.86 1.28-1.78 1.97-2.71.91-1.23 1.87-2.49 2.85-3.73 2.93-3.71 6.02-7.16 8.37-8.64 6.03-3.81 23.96-2.04 35.7-4.3 11.74-2.25 23.3-7.72 30.01-5.26.55.2.65 3.41-2.7 4.3 2.02.18 4.86 2.31-3.25 7.82Z"/><path class="cls-4" d="m360.13 337.02-8.11-6.67 12.22 2.66-4.11 4.01z"/><path class="cls-7" d="M258.95 458.22H131.61c-2.33 0-3.99-2.26-3.3-4.48l21.31-68.76a3.463 3.463 0 0 1 3.3-2.44h127.34c2.33 0 3.99 2.26 3.3 4.48l-21.31 68.76a3.463 3.463 0 0 1-3.3 2.44Z"/><path class="cls-7" d="M146.51 458.22H65.22c-1.4 0-2.53-1.13-2.53-2.53s1.13-2.53 2.53-2.53h81.28v5.05Z"/><path class="cls-7" d="M76.13 451.58c1.75 0 3.17 1.42 3.17 3.17v1.76h-6.33v-1.76c0-1.75 1.42-3.17 3.17-3.17ZM86.29 451.58c1.75 0 3.17 1.42 3.17 3.17v1.76h-6.33v-1.76c0-1.75 1.42-3.17 3.17-3.17ZM96.44 451.58c1.75 0 3.17 1.42 3.17 3.17v1.76h-6.33v-1.76c0-1.75 1.42-3.17 3.17-3.17ZM106.59 451.58c1.75 0 3.17 1.42 3.17 3.17v1.76h-6.33v-1.76c0-1.75 1.42-3.17 3.17-3.17ZM116.75 451.58c1.75 0 3.17 1.42 3.17 3.17v1.76h-6.33v-1.76c0-1.75 1.42-3.17 3.17-3.17Z"/><path class="cls-1" d="M264.37 458.22H132.33l22.69-73.25a3.463 3.463 0 0 1 3.3-2.44h127.34c2.33 0 3.99 2.26 3.3 4.48l-21.31 68.76a3.463 3.463 0 0 1-3.3 2.44Z"/><circle class="cls-7" cx="210.74" cy="420.38" r="6.38"/></g></svg>