<svg id="Layer_2" data-name="Layer 2" xmlns="http://www.w3.org/2000/svg" viewBox="0 0 325.37 375.34"><defs><style>.cls-1{fill:#fff}.cls-2{fill:#cbd941}.cls-3{fill:#6fd9f8}.cls-4{fill:#fd9f84}.cls-5{fill:#1b1a1f}.cls-6{fill:#0055ad}.cls-7{fill:#d1836d}.cls-8{fill:#292929}</style></defs><g id="Layer_1-2" data-name="Layer 1"><ellipse class="cls-5" cx="74.85" cy="127.38" rx="11.92" ry="2.67" transform="rotate(-66.49 74.85 127.375)"/><path class="cls-5" d="M281.97 127.93c.41 1.02-4.2 3.84-10.31 6.31-6.1 2.46-12.54 3.94-12.95 2.93-.41-1.02 5.36-4.15 11.46-6.62 6.1-2.46 11.39-3.63 11.8-2.62ZM146.36 17.19s2.18 20.16-.35 40.61c-2.53 20.46 36.16 56.15 36.16 56.15l22.41-29.76-18.69-40.96L176 16.22l-29.65.96Z"/><path class="cls-5" d="M233.42 98.13s26.6-15.27 20.48-37.4c-5.52-19.95-27.01-26.79-39.34-27.95-5.29-.5-10.41-2.16-14.93-4.96-4.08-2.53-8.67-6.34-12.65-11.98-10.04-14.22-18.83-17.95-23.79-14.8 0 0-8.19-2.04-15.41 5.54-7.22 7.58.28 15.55.28 15.55l38.09 55.15 33.75 29.14 13.52-8.3Z"/><path class="cls-4" d="m186.04 47.04-18.41 6.9-2.25-4.71-2.92-6.11.97-1.37.29-.41 9.49-13.35 12.83 19.05z"/><path class="cls-7" d="m171.7 39.01-6.32 10.22-2.92-6.11.97-1.37 8.27-2.74z"/><path class="cls-4" d="M159.8 8.9s-13.14 2.22-12.58 11.85c.57 9.83 5.94 27.8 17.44 24.3 9.44-2.87 11.54-18.86 10.94-20.8-.61-1.94-7.73-18.7-15.8-15.35Z"/><path class="cls-5" d="M173.95 23.7s-.4-.91-5.76-5.48c-5.16-4.4-8.77-7.69-8.77-7.69s-5.81 1.53-8.17 3.42c-2.46 1.98-3.93 8.03-3.93 8.03s-2.29-3.21-2.46-6.13c-.17-2.91 9.21-9.55 18.89-7.59 0 0 10.58 3.85 10.21 15.44Z"/><path class="cls-8" d="M154.09 29.92c.35-.15.5-.56.35-.9l-.39-.9c-.15-.35-.56-.5-.9-.35-.35.15-.5.56-.35.9l.39.9c.15.35.56.5.9.35ZM163.31 27.15c.35-.15.5-.56.35-.9l-.39-.9c-.15-.35-.56-.5-.9-.35-.35.15-.5.56-.35.9l.39.9c.15.35.56.5.9.35Z"/><path class="cls-8" d="M158.63 34.74h-.05c-1.05-.16-2.28-.71-2.51-1.57-.09-.33-.06-.83.57-1.33.74-.59.09-3.49-.61-5.36 0-.02-.51-1.36-1.89-1.91-1.15-.46-2.58-.26-4.27.58-.17.09-.38.02-.46-.15a.335.335 0 0 1 .15-.46c1.87-.94 3.51-1.14 4.85-.6 1.67.67 2.25 2.25 2.27 2.32.31.83 1.79 5.03.39 6.14-.27.21-.38.42-.33.61.12.44.99.92 1.94 1.06.19.03.32.2.29.39-.03.17-.17.3-.34.3Z"/><path class="cls-1" d="M164.77 33.98s-.78 2.14-2.36 3c-1.58.86-.1 2 1.69 1.06 1.79-.95 2.21-4.64.67-4.05Z"/><path class="cls-8" d="M158.94 22.89a.352.352 0 0 1-.29-.54c.07-.1 1.66-2.44 5.45-2.44h.04c.19 0 .35.16.34.35 0 .19-.16.34-.35.34h-.04c-3.41 0-4.81 2.04-4.87 2.13-.07.1-.18.15-.29.15Z"/><path class="cls-4" d="M170.14 23.22s2.3-4.86 4.9-3.72c2.38 1.05 4.95 5.76-1.63 11.16l-3.27-7.44Z"/><path class="cls-1" d="m172.32 25.83 2.59-3.37-2.59 3.37Z"/><path class="cls-8" d="M172.32 26.18c-.07 0-.15-.02-.21-.07a.349.349 0 0 1-.06-.49l2.59-3.37a.349.349 0 1 1 .55.43l-2.59 3.37c-.07.09-.17.14-.27.14ZM159.42 10.88s-.09 0-.13-.02a.342.342 0 0 1-.19-.45l3.76-9.49c.07-.18.27-.26.45-.19s.26.27.19.45l-3.76 9.49c-.05.14-.18.22-.32.22Z"/><path class="cls-5" d="M147.32 21.98s-2.29-4.61 1.48-8.65c3.7-3.96 10.62-2.8 10.62-2.8s-10.62 3.1-12.1 11.45Z"/><path class="cls-5" d="M144.65 13.96s-.68 7.79 1.25 11.69c0 0 5.02-4.19 7.83-4.88l.77-8.26 2.39 7.17 13.31-1.72-5.68-11.94-8.1 1.5-11.77 6.43Z"/><path class="cls-4" d="M83.72 120.68s-15.09-2.4-17.53-4.51l-3.61 14.56 14.13 4.95 7.01-15Z"/><path class="cls-4" d="M88.88 121.25s-14.51-4.95-16.59-7.88c-5.42-7.64-4.18-13.37-7.36-12.69-3.18.68-.71 8.97-2.94 10.1-2.23 1.14-8.91-.15-8.91-.15L58.53 127l7.58 5.07 22.76-10.83Z"/><path class="cls-5" d="M240.4 127.39c.15 3.57-17.1 8.58-41.8 9.63-24.7 1.05-38.53.06-38.69-3.52-.15-3.57 13.43-8.37 38.13-9.43 24.7-1.05 42.2-.26 42.35 3.31Z"/><path class="cls-3" d="m145.03 67.01-29.18 68.07c-3.52 7.19-1.25 15.87 5.34 20.42 7.17 4.95 15.11-.58 21.92-9.13l32.9-47.56-23.39-39.23-.56.29a15.894 15.894 0 0 0-7.03 7.15Z"/><path class="cls-6" d="m224.77 128.8-4.12 94.05 43.18 98.91-36.19 15.55s-46.19-101.06-47.59-108.67c-1.4-7.61 5.95-105.08 5.95-105.08l38.78 5.24Z"/><path class="cls-5" d="M264 322.23c.5 1.3-2.11 3.61-6.52 6.11-2.83 1.6-6.4 3.27-10.38 4.8-3.55 1.36-6.94 2.43-9.89 3.14-5.48 1.33-9.43 1.46-9.96.06-.51-1.32 2.21-3.71 6.78-6.26 2.79-1.56 6.26-3.17 10.11-4.65 3.67-1.41 7.17-2.5 10.19-3.21 5.33-1.27 9.15-1.36 9.67 0Z"/><path class="cls-4" d="m259.28 331.85-20.13 8.19-1.94-3.76-3.19-6.2c2.79-1.56 6.26-3.17 10.11-4.65 3.67-1.41 7.17-2.5 10.19-3.21l3.15 6.12.92 1.79.88 1.71Z"/><path class="cls-6" d="m259.66 329.49 12.44 22.37-49.62 23.48s-6.98-6.83-1.54-11.56c18.84-16.39 15.64-12.34 16.62-18.99.55-3.75.66-4.27.66-4.27l21.44-11.03Z"/><path class="cls-1" d="M220.12 372.55c-.13 0-.25-.07-.31-.2-.08-.17 0-.38.16-.46l50.1-23.73c.17-.08.38 0 .46.16.08.17 0 .38-.16.46l-50.1 23.73s-.1.03-.15.03Z"/><circle class="cls-1" cx="258.32" cy="343.27" r="3.39"/><path class="cls-1" d="M236.18 360.1s-.06 0-.1-.01l-7.28-2.1a.355.355 0 0 1-.24-.43.35.35 0 0 1 .43-.24l6.51 1.88-2.72-5.29a.354.354 0 0 1 .03-.37c.08-.11.21-.16.34-.13l6.05 1.16-3.1-4.91c-.1-.16-.05-.38.11-.48.16-.1.38-.05.48.11l3.53 5.58c.07.12.07.27 0 .38-.08.11-.22.17-.35.15l-6.14-1.17 2.76 5.37c.06.12.05.27-.04.38-.07.08-.17.13-.27.13Z"/><path class="cls-6" d="m173.27 123.78-20.44 80.85c-2.97 12.01 4.82 24.03 16.99 26.21 10.42 1.87 20.65-4.15 24.05-14.18l20.88-60.91s14.55-19.56 11.83-29.69c-2.72-10.13-46.27-40.27-53.31-2.29Z"/><path class="cls-6" d="m192.62 194.61 106.84 46.99-15.08 31.84-118.83-43.83 27.07-35z"/><path class="cls-5" d="M299.27 249.95c-.8 2.73-2 5.88-3.54 9.16-1.94 4.14-4.07 7.73-6 10.31-2.23 2.97-4.19 4.57-5.3 4.05-1.08-.51-1.13-2.94-.33-6.43.72-3.16 2.15-7.2 4.14-11.44 1.49-3.17 3.09-6.03 4.63-8.35 2.77-4.19 5.34-6.63 6.67-6.01 1.3.61 1.11 4.03-.27 8.7Z"/><path class="cls-5" d="M299.53 241.59s-.09 0-.14-.03l-99.25-43.26a.34.34 0 0 1-.19-.43l14.47-42.22s.03-.07.05-.1c7.62-10.06 10.41-17.51 11.42-22 1.08-4.85.36-7.35.36-7.38-.05-.18.05-.38.23-.43.18-.06.38.05.43.23.03.11.78 2.65-.33 7.65-1.01 4.56-3.82 12.12-11.52 22.3l-14.35 41.87 98.95 43.14c.18.08.26.28.18.46-.06.13-.18.21-.32.21ZM284.43 273.81s-.08 0-.12-.02l-101.4-36.64a.346.346 0 0 1-.21-.44c.06-.18.26-.27.44-.21l101.4 36.64a.346.346 0 0 1-.12.67Z"/><path class="cls-4" d="m302.69 251.39-10.17 19.19-2.8-1.17-5.63-2.38c.72-3.16 2.15-7.2 4.14-11.44 1.49-3.17 3.09-6.03 4.63-8.35l6.41 2.7 1.65.7 1.77.74Z"/><path class="cls-6" d="m301.47 249.34 23.9 9.16-22.97 49.86s-9.74-.76-8.6-7.87c3.92-24.66 4.07-19.5.55-25.23-1.98-3.23-2.24-3.7-2.24-3.7l9.36-22.22Z"/><path class="cls-1" d="M298.58 307.82s-.1-.01-.14-.03a.352.352 0 0 1-.17-.46l23.18-50.36c.08-.17.29-.25.46-.17.17.08.25.29.17.46l-23.18 50.36c-.06.13-.18.2-.31.2ZM310.62 257.64c1.73.73 2.54 2.71 1.81 4.44a3.384 3.384 0 0 1-4.44 1.81 3.384 3.384 0 0 1-1.81-4.44 3.384 3.384 0 0 1 4.44-1.81ZM295.97 291.03a.36.36 0 0 1-.32-.21c-.08-.17 0-.38.18-.46l6.19-2.74-5.49-2.31a.354.354 0 0 1-.21-.3c0-.13.06-.26.18-.32l5.38-3-5.53-1.77a.347.347 0 0 1-.22-.44c.06-.18.25-.28.44-.22l6.29 2.01c.13.04.23.16.24.3s-.06.27-.18.34l-5.46 3.04 5.57 2.35c.13.05.21.18.21.32s-.08.26-.21.32L296.1 291s-.09.03-.14.03Z"/><path class="cls-7" d="m284.1 267.04 15.17-17.09-6.41-2.7s-7.32 11.26-8.76 19.79ZM257 327.42l-21.93 4.7-1.05-2.04s7.86-4.89 20.3-7.86l2.68 5.2Z"/><path class="cls-3" d="M139.51 139.88c.73 2.72.62 5.71-.55 8.56-2.77 6.75-10.41 10.06-17.22 7.45l-50.56-17.86c1.6-1.08 4.05-4.84 6.12-9.6 2.3-5.29 2.98-10.5 2.31-12l49.79 13.78c5.14 1.13 8.86 5.01 10.11 9.66Z"/><path class="cls-5" transform="rotate(-23.7 69.291 125.076)" d="M65.01 84.82h8.56v80.5h-8.56z"/><path class="cls-2" transform="rotate(-23.7 65.374 126.791)" d="M61.09 86.54h8.56v80.5h-8.56z"/><path class="cls-5" d="M47.11 92.93c-7.14 1.92-14.68 1.52-21.7-1.22-8.7-3.39-15.56-9.97-19.32-18.53-3.75-8.55-3.95-18.06-.56-26.76 3.39-8.7 9.97-15.56 18.53-19.32 17.66-7.75 38.33.31 46.08 17.97 3.75 8.55 3.95 18.06.56 26.76-3.39 8.7-9.97 15.56-18.53 19.32-1.65.73-3.34 1.32-5.05 1.78ZM30.13 29.36c-1.49.4-2.96.91-4.41 1.55-7.54 3.31-13.33 9.35-16.32 17.02s-2.81 16.04.49 23.58c3.31 7.54 9.35 13.33 17.02 16.32s16.04 2.81 23.58-.49c7.54-3.31 13.33-9.35 16.32-17.02s2.81-16.04-.49-23.58c-6.19-14.11-21.75-21.26-36.19-17.38Z"/><path class="cls-2" d="M43.97 94.95c-7.14 1.92-14.68 1.52-21.7-1.22-8.7-3.39-15.56-9.97-19.32-18.53-7.75-17.66.31-38.33 17.97-46.08 8.55-3.75 18.06-3.95 26.76-.56 8.7 3.39 15.56 9.97 19.32 18.53 3.75 8.55 3.95 18.06.56 26.76-3.39 8.7-9.97 15.56-18.53 19.32-1.65.73-3.34 1.32-5.05 1.78ZM27.04 31.37c-1.51.41-3 .93-4.45 1.57C7.03 39.77-.07 57.98 6.75 73.54c3.31 7.54 9.35 13.33 17.02 16.32s16.04 2.81 23.58-.49c7.54-3.31 13.33-9.35 16.32-17.02s2.81-16.04-.49-23.58c-3.31-7.54-9.35-13.33-17.02-16.32-6.19-2.41-12.83-2.76-19.13-1.07Z"/><path class="cls-4" d="M49.23 110.91c.51-.59 1.27-.88 2.05-.86 2.35.06 8.77.45 9.28 2.75.63 2.83-4.67 2.55-7.82 2.39-2.68-.14-5.05-2.5-3.51-4.28Z"/><path class="cls-4" d="M51.3 114.75s10.62-.56 11.18 2.3c.56 2.86-5.35 2.86-8.86 2.86s-6.38-3.18-2.32-5.16ZM55.84 122.5s9.28-.18 8.89 2.65c-.26 1.93-3.83 2.35-7.24 1.69-3.12-.61-5.26-3.55-1.65-4.33Z"/><path class="cls-4" d="M53.21 118.49s10.39-.48 10.97 2.37c.58 2.85-5.11 2.53-8.48 2.68-4.48.2-6.37-3.16-2.5-5.05Z"/><path class="cls-5" d="M54.92 123.81a.35.35 0 0 1-.35-.33c0-.19.14-.35.33-.36l6.78-.23c.19 0 .35.14.36.33 0 .19-.14.35-.33.36l-6.78.23h-.01ZM51.46 119.84c-.18 0-.34-.15-.35-.33 0-.19.14-.35.33-.36l10.15-.42c.19-.01.35.14.36.33 0 .19-.14.35-.33.36l-10.15.42h-.01ZM59 115.25l-8-.17a.346.346 0 0 1 .01-.69l8 .17a.346.346 0 0 1-.01.69Z"/><path class="cls-3" d="M167.39 52.86s-9.82 4.31-15.33 6.99c-1.96 15.34 4.43 52.05 7.86 73.65 0 0 39.52-18.15 80.97-6.53 0 0-13.26-46.33-24.39-78.14-1.57-4.5-20.31-5.63-30.5-4.33 0 0 1 6.45-18.61 8.36Z"/><path class="cls-3" d="m165.06 53.83-1.88-4.15s10.25-2.59 18.96-9.41l6.06 5.33-8.3 8.37s-9.91 3.62-11.2 3.81c-1.29.19-3.65-3.95-3.65-3.95Z"/><path class="cls-5" d="m152.63 82.7-2.43 53.41 8.23-11.89s-4.94-29.65-5.8-41.52Z"/><path class="cls-4" d="M266.42 139.18s-7.16-12.78-11.34-16.21c-4.19-3.44 8.98-11.63 8.98-11.63l15.77 23.7-13.4 4.15Z"/><path class="cls-4" d="M266.33 137.78s-.21 4.56 4.65 9.7c4.87 5.15 6.23 9.3 8.2 11.16.53.5 1.16.78 1.61.76 1.07-.05 1.25-.95.96-1.64l-2.97-6.87 8.14-4.49s-4.51-8.02-7.48-11.94c-2.86-3.78-13.12 3.3-13.12 3.3Z"/><path class="cls-4" d="M265.35 135.22s1.16 2.35 1.52 6.82c.17 2.12-1.28 10.46-.91 11.18.37.73 2.27 2.78 5.21-5.25 1.75-4.77 4.12-2.7 4.12-2.7l-9.94-10.05ZM284.42 156.93s.98.9 1.52 1.24c.94.59 2.9-.22 2.23-2.21-.46-1.36-7.7-9.58-7.7-9.58l-3.53 2.66 7.47 7.88Z"/><path class="cls-4" d="M283.1 144.79s5.99 7.01 6.28 8.15c.29 1.14-1.16 3.48-3.41 1.61-2.25-1.88-8.16-8.49-8.16-8.49l5.28-1.27Z"/><path class="cls-4" d="M284.48 142.2s4.42 5.02 4.44 6.17c.01 1.14-.81 2.56-2.48 1.67-1.67-.9-4.9-4.88-4.9-4.88l2.94-2.96Z"/><path class="cls-5" d="M287.81 155.58c-.09 0-.19-.04-.26-.11l-8.15-8.9a.347.347 0 0 1 .51-.47l8.15 8.9c.13.14.12.36-.02.49-.07.06-.15.09-.23.09ZM287.59 150.62c-.1 0-.19-.04-.26-.12l-4.79-5.46a.348.348 0 0 1 .03-.49c.14-.13.36-.11.49.03l4.79 5.46c.13.14.11.36-.03.49-.07.06-.15.09-.23.09ZM281.76 158.12a.36.36 0 0 1-.32-.21l-4.11-9.26c-.08-.17 0-.38.18-.46.17-.08.38 0 .46.18l4.11 9.26a.347.347 0 0 1-.32.49Z"/><path class="cls-3" d="m253.04 75.75-36.85-27.84c-4.55-3.44-10.89-3.2-15.18.56-5.26 4.61-5.48 12.72-.49 17.62l37.66 31.84c5.3 2.75 10.21 3.63 14.52.91l1.17-1.07c6.76-5.95 6.35-16.6-.83-22.02Z"/><path class="cls-3" d="m281.93 127.82-.13.05c-1.18-.55-6.03.62-11.55 2.85-5.91 2.39-11.58 5.42-11.48 6.51l-23.55-44.62c-3.63-6.1-1.48-14 4.74-17.42.91-.5 1.84-.87 2.8-1.13 5.68-1.53 11.87 1.13 14.55 6.67l24.62 47.09Z"/><path class="cls-7" d="m266.66 140.18.04.04.11.14 1.62-1.8.11-.13 3.04-3.37-.95.21-4.25.96-.57.13-.89.2 1.76 3.62Z"/><path class="cls-5" d="M240.88 127.32c-.15 0-.29-.1-.33-.25L229.8 91.48c-.06-.18.05-.38.23-.43.18-.06.38.05.43.23l10.75 35.59c.06.18-.05.38-.23.43-.03.01-.07.01-.1.01ZM212.51 76.23l20.55 25.42-2.92-10.26-17.63-15.16z"/><path class="cls-8" d="M167.17 54.4c-1.35 0-2.11-.21-2.21-.24a.342.342 0 0 1-.23-.43c.05-.18.25-.29.43-.23.08.02 8.3 2.24 21.46-9.35.14-.13.36-.11.49.03s.11.36-.03.49c-9.6 8.45-16.56 9.74-19.9 9.74Z"/></g></svg>