<svg id="Layer_2" data-name="Layer 2" xmlns="http://www.w3.org/2000/svg" viewBox="0 0 681.71 461.87"><defs><style>.cls-1{fill:#fff}.cls-4{fill:#1b1a1f}.cls-5{fill:#0055ad}</style></defs><g id="Layer_1-2" data-name="Layer 1"><path class="cls-4" d="M550.81 301.33H51.09c-.19 0-.35-.16-.35-.35V29.29c0-.19.16-.35.35-.35h499.72c.19 0 .35.16.35.35v271.69c0 .19-.16.35-.35.35Zm-499.38-.69h499.03V29.63H51.44v271.01ZM153.55 20.88a4.49 4.49 0 1 1 0-8.98 4.49 4.49 0 0 1 0 8.98Zm0-8.28c-2.09 0-3.79 1.7-3.79 3.79s1.7 3.79 3.79 3.79 3.79-1.7 3.79-3.79-1.7-3.79-3.79-3.79ZM166.62 20.88a4.49 4.49 0 1 1 0-8.98 4.49 4.49 0 0 1 0 8.98Zm0-8.28c-2.09 0-3.79 1.7-3.79 3.79s1.7 3.79 3.79 3.79 3.79-1.7 3.79-3.79-1.7-3.79-3.79-3.79ZM179.7 20.88a4.49 4.49 0 1 1 0-8.98 4.49 4.49 0 0 1 0 8.98Zm0-8.28c-2.09 0-3.79 1.7-3.79 3.79s1.7 3.79 3.79 3.79 3.79-1.7 3.79-3.79-1.7-3.79-3.79-3.79Z"/><path class="cls-5" d="M0 25.08h181.82v80.08H0z"/><path class="cls-4" d="M191.52 87.29H18.36c-.19 0-.35-.16-.35-.35V7.42c0-.19.16-.35.35-.35h173.16c.19 0 .35.16.35.35v79.52c0 .19-.16.35-.35.35ZM18.71 86.6h172.46V7.76H18.71V86.6Z"/><path class="cls-1" d="M153.55 33.75H35.39c-.19 0-.35-.16-.35-.35s.16-.35.35-.35h118.16c.19 0 .35.16.35.35s-.16.35-.35.35ZM153.55 46.63H35.39c-.19 0-.35-.16-.35-.35s.16-.35.35-.35h118.16c.19 0 .35.16.35.35s-.16.35-.35.35ZM153.55 59.5H35.39c-.19 0-.35-.16-.35-.35s.16-.35.35-.35h118.16c.19 0 .35.16.35.35s-.16.35-.35.35ZM153.55 72.37H35.39c-.19 0-.35-.16-.35-.35s.16-.35.35-.35h118.16c.19 0 .35.16.35.35s-.16.35-.35.35Z"/><path style="fill:#cbd941" d="M536.29 15.46H681.7v57.87H536.29z"/><path class="cls-5" d="M526.02.35h145.41v12.04H526.02z"/><path class="cls-1" d="M656.28 22.46H542.42c-.19 0-.35-.16-.35-.35s.16-.35.35-.35h113.86c.19 0 .35.16.35.35s-.16.35-.35.35ZM656.28 32.94H542.42c-.19 0-.35-.16-.35-.35s.16-.35.35-.35h113.86c.19 0 .35.16.35.35s-.16.35-.35.35ZM656.28 43.43H542.42c-.19 0-.35-.16-.35-.35s.16-.35.35-.35h113.86c.19 0 .35.16.35.35s-.16.35-.35.35Z"/><path class="cls-4" d="M671.43 58.56H526.02c-.19 0-.35-.16-.35-.35V.35c0-.19.16-.35.35-.35h145.41c.19 0 .35.16.35.35v57.86c0 .19-.16.35-.35.35Zm-145.07-.69h144.72V.69H526.36v57.18Z"/><path style="fill:#6fd9f8" d="M241.62 370.38h177.09v91.49H241.62z"/><path class="cls-4" d="M400.49 444.52H230.76c-.19 0-.35-.16-.35-.35v-98.86c0-.19.16-.35.35-.35h169.73c.19 0 .35.16.35.35v98.86c0 .19-.16.35-.35.35Zm-169.38-.69h169.04v-98.17H231.1v98.17Z"/><path class="cls-4" d="M400.49 363.36H230.76c-.19 0-.35-.16-.35-.35V345.3c0-.19.16-.35.35-.35h169.73c.19 0 .35.16.35.35v17.71c0 .19-.16.35-.35.35Zm-169.38-.69h169.04v-17.02H231.1v17.02ZM380.39 386.21H257.06c-.19 0-.35-.16-.35-.35s.16-.35.35-.35h123.33c.19 0 .35.16.35.35s-.16.35-.35.35ZM380.39 404.41H257.06c-.19 0-.35-.16-.35-.35s.16-.35.35-.35h123.33c.19 0 .35.16.35.35s-.16.35-.35.35ZM380.39 422.61H257.06c-.19 0-.35-.16-.35-.35s.16-.35.35-.35h123.33c.19 0 .35.16.35.35s-.16.35-.35.35Z"/></g></svg>