<svg id="Layer_2" data-name="Layer 2" xmlns="http://www.w3.org/2000/svg" viewBox="0 0 105 105"><defs><style>.cls-1{fill:#fff}</style></defs><g id="Layer_1-2" data-name="Layer 1"><circle cx="52.5" cy="52.5" r="52.5" style="fill:#0055ad"/><path class="cls-1" d="M62.97 40.71a.989.989 0 0 1-1-1v-1.86c-1.73.23-3.21 1.04-4.22 2.35-.34.44-.97.52-1.4.18a.993.993 0 0 1-.18-1.4c1.59-2.06 4.01-3.19 6.8-3.19.55 0 1 .45 1 1v.74l4.21-3.63-4.21-3.63v.74c0 .55-.45 1-1 1-3.08 0-6.1 1.18-8.5 3.33-.71.64-1.7 1.76-2.12 2.24-.14.15-.23.25-.25.28a.987.987 0 0 1-1.41-.02.99.99 0 0 1 0-1.39l.16-.18c.44-.51 1.48-1.69 2.29-2.41 2.51-2.25 5.61-3.58 8.83-3.81v-1.96c0-.39.23-.75.58-.91.35-.16.77-.1 1.07.15l6.75 5.82c.22.19.35.47.35.76s-.13.57-.35.76l-6.75 5.82c-.19.16-.42.24-.65.24Z"/><path class="cls-1" d="M40.03 40.71c-.24 0-.47-.08-.65-.24l-6.75-5.82c-.22-.19-.35-.47-.35-.76s.13-.57.35-.76l6.75-5.82a1 1 0 0 1 1.65.76v1.96c5.13.35 9.62 3.33 11.89 7.97.24.5.04 1.09-.46 1.34-.49.24-1.09.04-1.34-.46C49.05 34.63 44.8 32 40.03 32c-.55 0-1-.45-1-1v-.75l-4.21 3.64 4.21 3.64v-.75c0-.55.45-1 1-1 2.78 0 5.19 1.17 6.78 3.3.33.44.24 1.07-.2 1.4-.44.33-1.07.24-1.4-.2-1.03-1.37-2.46-2.2-4.18-2.43v1.86c0 .39-.23.75-.58.91a.99.99 0 0 1-.42.09Z"/><path class="cls-1" d="M54.39 35.1c-.55 0-1-.45-1-1v-8.88c0-.55.45-1 1-1h.75l-3.64-4.21-3.64 4.21h.75c.55 0 1 .45 1 1v8.88c0 .55-.45 1-1 1s-1-.45-1-1v-7.88h-1.93c-.39 0-.75-.23-.91-.58-.16-.36-.1-.77.15-1.07l5.82-6.75c.38-.44 1.13-.44 1.51 0l5.82 6.75c.26.3.32.71.15 1.07-.16.36-.52.58-.91.58h-1.93v7.88c0 .55-.45 1-1 1ZM41.3 82.02c-1.58-.06-2.66-1.54-2.68-3.6-.02-2.25 1.27-3.9 3.14-4 .86 0 2.98-1.42 5.4-14.59.1-.54.61-.91 1.16-.8.54.1.9.62.8 1.16-2.09 11.37-4.27 16.23-7.31 16.23-.94.05-1.2 1.28-1.19 1.99 0 .85.34 1.6.72 1.61h20.43c.34-.01.67-.77.68-1.62 0-.71-.25-1.93-1.25-1.99-2.96 0-5-4.55-7.25-16.22-.1-.54.25-1.07.79-1.17.55-.1 1.07.25 1.17.79 2.45 12.7 4.4 14.6 5.34 14.6 1.92.11 3.21 1.75 3.19 4-.02 2.06-1.1 3.54-2.64 3.6H41.29Z"/><path class="cls-1" d="M64.86 87.62H38.2a1 1 0 0 1-1-.91c-.3-3.3.32-4.06 1.75-5.46.26-.26.57-.55.9-.92a.997.997 0 0 1 1.41-.05c.4.38.43 1.01.05 1.41-.36.39-.69.71-.97.99-.98.96-1.3 1.27-1.22 2.94h24.8c.08-1.67-.24-1.97-1.22-2.94-.28-.28-.61-.59-.97-.98a.996.996 0 0 1 .05-1.41.996.996 0 0 1 1.41.05c.34.36.64.66.9.92 1.43 1.4 2.05 2.15 1.75 5.46a1 1 0 0 1-1 .91ZM56.18 61.01h-9.29c-2.1 0-3.8-1.71-3.8-3.8s1.7-3.8 3.8-3.8h9.29c2.1 0 3.8 1.7 3.8 3.8s-1.71 3.8-3.8 3.8Zm-9.29-5.6c-.99 0-1.8.81-1.8 1.8s.81 1.8 1.8 1.8h9.29c.99 0 1.8-.81 1.8-1.8s-.81-1.8-1.8-1.8h-9.29Z"/><path class="cls-1" d="M56 55.41c-.31 0-.62-.15-.82-.42a.994.994 0 0 1 .24-1.39c1.62-1.15 2.55-2.89 2.55-4.79 0-3.31-2.89-6-6.45-6s-6.45 2.69-6.45 6c0 1.89.93 3.64 2.55 4.78.45.32.56.94.24 1.39-.32.45-.94.56-1.39.24-2.16-1.53-3.39-3.87-3.39-6.42 0-4.41 3.79-8 8.45-8s8.45 3.59 8.45 8c0 2.51-1.27 4.91-3.4 6.42-.17.12-.38.18-.58.18Z"/></g></svg>