<?xml version="1.0" encoding="UTF-8"?>
<svg id="Layer_2" data-name="Layer 2" xmlns="http://www.w3.org/2000/svg" xmlns:xlink="http://www.w3.org/1999/xlink" viewBox="0 0 89.51 89.51">
  <defs>
    <style>
      .cls-1 {
        fill: #fff;
      }

      .cls-2 {
        fill: url(#radial-gradient);
      }
    </style>
    <radialGradient id="radial-gradient" cx="44.75" cy="44.75" fx="44.75" fy="44.75" r="44.75" gradientUnits="userSpaceOnUse">
      <stop offset="0" stop-color="#c0d524"/>
      <stop offset="1" stop-color="#80d82a"/>
    </radialGradient>
  </defs>
  <g id="Layer_5" data-name="Layer 5">
    <g>
      <circle class="cls-2" cx="44.75" cy="44.75" r="44.75"/>
      <g>
        <path class="cls-1" d="M70.06,46.07c.07-.51,.11-1.03,.11-1.56,0-6.3-5.11-11.4-11.4-11.4-1.37,0-2.68,.24-3.9,.68-2.5-6.1-8.67-10.21-15.63-10.21h0c-9.28,0-16.8,7.22-16.8,16.12,0,.36,.01,.72,.04,1.08-.24-.02-.48-.03-.72-.03-5.43,0-9.83,4.22-9.83,9.43,0,5.21,4.4,9.43,9.83,9.43,2.08,0,47.21,.08,48.3,.08,3.75,0,6.8-3.04,6.8-6.8s-3.04-6.79-6.78-6.79Zm-38.6,2.02c.37,.65,.89,1.15,1.54,1.52,.66,.36,1.41,.55,2.24,.55,1.28,0,2.37-.48,3.25-1.44l1.46,1.39c-.57,.66-1.26,1.16-2.09,1.51-.83,.35-1.74,.52-2.73,.52-1.23,0-2.33-.27-3.32-.81-.99-.54-1.76-1.28-2.33-2.23-.56-.95-.84-2.02-.84-3.21s.28-2.26,.85-3.21c.57-.95,1.35-1.69,2.33-2.23,.99-.54,2.1-.81,3.32-.81,.99,0,1.9,.17,2.72,.52,.82,.35,1.52,.85,2.08,1.51l-1.46,1.37c-.88-.95-1.96-1.42-3.25-1.42-.83,0-1.58,.18-2.24,.55-.66,.36-1.17,.87-1.54,1.52-.37,.65-.56,1.38-.56,2.2s.18,1.56,.56,2.2Zm22.88,1.01c-.57,.95-1.35,1.69-2.34,2.23-1,.54-2.11,.81-3.35,.81s-2.35-.27-3.35-.81c-1-.54-1.78-1.28-2.34-2.24-.57-.95-.85-2.02-.85-3.2s.28-2.25,.85-3.2c.57-.95,1.35-1.7,2.34-2.24,1-.54,2.11-.81,3.35-.81s2.35,.27,3.35,.81c.99,.54,1.78,1.28,2.34,2.23,.57,.95,.85,2.02,.85,3.21s-.28,2.26-.85,3.21Zm8.05,3.49h-4.9v-1.06l2.5-2.58c.27-.28,.44-.51,.54-.71,.09-.2,.14-.4,.14-.59,0-.28-.09-.5-.26-.65-.18-.15-.43-.23-.77-.23-.28,0-.54,.06-.77,.18-.23,.12-.42,.29-.57,.53l-.91-1.03c.23-.29,.52-.52,.86-.7,.44-.23,.95-.35,1.53-.35,.48,0,.9,.09,1.26,.26,.36,.17,.64,.41,.84,.73,.2,.31,.3,.68,.3,1.11,0,.38-.07,.74-.22,1.08-.15,.34-.44,.72-.86,1.15l-1.49,1.54h2.79v1.33Z"/>
        <path class="cls-1" d="M50.84,42.16c-.65-.36-1.38-.55-2.19-.55s-1.54,.18-2.19,.55c-.65,.36-1.16,.87-1.53,1.53-.37,.65-.56,1.39-.56,2.2s.18,1.54,.56,2.2c.37,.65,.88,1.16,1.53,1.53,.65,.36,1.38,.55,2.19,.55s1.54-.18,2.19-.55c.65-.36,1.16-.87,1.53-1.53,.37-.65,.56-1.39,.56-2.2s-.19-1.54-.56-2.2c-.37-.65-.88-1.16-1.53-1.53Z"/>
      </g>
    </g>
  </g>
</svg>