<?xml version="1.0" encoding="UTF-8"?>
<svg id="Layer_2" data-name="Layer 2" xmlns="http://www.w3.org/2000/svg" xmlns:xlink="http://www.w3.org/1999/xlink" viewBox="0 0 89.51 89.51">
  <defs>
    <style>
      .cls-1 {
        fill: #fff;
      }

      .cls-2 {
        fill: url(#radial-gradient);
      }
    </style>
    <radialGradient id="radial-gradient" cx="44.75" cy="44.75" fx="44.75" fy="44.75" r="44.75" gradientUnits="userSpaceOnUse">
      <stop offset="0" stop-color="#c0d524"/>
      <stop offset="1" stop-color="#80d82a"/>
    </radialGradient>
  </defs>
  <g id="Layer_5" data-name="Layer 5">
    <g>
      <circle class="cls-2" cx="44.75" cy="44.75" r="44.75"/>
      <g>
        <path class="cls-1" d="M48.13,67.29h-9.16c-.62,0-1.15-.4-1.18-.91-.02-.54,.5-.98,1.15-.98h9.16c.62,0,1.15,.4,1.17,.91,.02,.54-.5,.98-1.14,.98Z"/>
        <path class="cls-1" d="M47.77,70.16h-8.48c-.63,0-1.15-.42-1.15-.95s.51-.95,1.15-.95h8.48c.63,0,1.15,.42,1.15,.95s-.51,.95-1.15,.95Z"/>
        <path class="cls-1" d="M47.41,73.02h-7.77c-.63,0-1.15-.42-1.15-.95s.51-.95,1.15-.95h7.77c.63,0,1.15,.42,1.15,.95s-.51,.95-1.15,.95Z"/>
        <path class="cls-1" d="M46.1,73.95c-.37,.86-1.38,1.48-2.56,1.48s-2.19-.62-2.56-1.48h5.13Z"/>
        <path class="cls-1" d="M51.28,39.9c-.44,0-.8-.36-.8-.8,0-3.49-2.84-6.34-6.34-6.34-.44,0-.8-.36-.8-.8s.36-.8,.8-.8c4.38,0,7.94,3.56,7.94,7.94,0,.44-.36,.8-.8,.8Z"/>
        <path class="cls-1" d="M67.55,39.53h-6.28c-.44,0-.8-.36-.8-.8s.36-.8,.8-.8h6.28c.44,0,.8,.36,.8,.8s-.36,.8-.8,.8Z"/>
        <path class="cls-1" d="M43.7,21.96c-.44,0-.8-.36-.8-.8v-6.28c0-.44,.36-.8,.8-.8s.8,.36,.8,.8v6.28c0,.44-.36,.8-.8,.8Z"/>
        <path class="cls-1" d="M56.13,27.11c-.21,0-.41-.08-.57-.24-.31-.31-.31-.82,0-1.14l4.44-4.44c.31-.31,.82-.31,1.14,0,.31,.31,.31,.82,0,1.14l-4.44,4.44c-.16,.16-.36,.24-.57,.24Z"/>
        <path class="cls-1" d="M60.56,56.39c-.21,0-.41-.08-.57-.24l-4.44-4.44c-.31-.31-.31-.82,0-1.14,.31-.31,.82-.31,1.14,0l4.44,4.44c.31,.31,.31,.82,0,1.14-.16,.16-.36,.24-.57,.24Z"/>
        <path class="cls-1" d="M58.22,37.73c-.08-2.06-.59-3.99-1.52-5.75-.85-1.61-2.03-3.03-3.5-4.22-2.71-2.2-6.24-3.46-9.67-3.46h0s0,0,0,0c0,0,0,0,0,0s0,0,0,0h0c-1.89,0-3.82,.39-5.62,1.1,.18,.54,.36,1.14,.53,1.78,1.62-.67,3.36-1.03,5.07-1.03h0s.02,0,.02,0h0c3.02,0,6.12,1.11,8.51,3.05,1.28,1.04,2.3,2.27,3.03,3.65,.8,1.51,1.24,3.17,1.3,4.95,.09,2.34-.29,4.52-1.15,6.65-.78,1.92-1.87,3.63-2.93,5.28-1.78,2.78-3.63,5.66-3.94,9.54l-.03,.41c-.1,1.25-.18,2.25-.39,2.53-.18,.24-1.09,.24-1.68,.24-.42,0-1.48,0-2.71,0s-2.3,0-2.72,0c-.41,0-.96,0-1.33-.08l-1.57,1-.14,.09c.75,.83,1.96,.84,3.04,.84,.46,0,1.59,0,2.72,0s2.26,0,2.72,0c1.13,0,2.42,0,3.15-.98,.54-.72,.62-1.7,.76-3.5l.03-.41c.27-3.41,1.91-5.97,3.65-8.69,1.1-1.72,2.25-3.51,3.09-5.59,.97-2.38,1.39-4.8,1.28-7.42Z"/>
        <g>
          <path class="cls-1" d="M22.78,46.96s11.37-.56,9.93,7.1c-5.2-1.66-7.6-4.46-7.6-4.46,0,0,1.54,3.52,7.18,5.1-1.37,.69-7.03,2.46-9.51-7.74Z"/>
          <path class="cls-1" d="M38.84,60.35c-.05-.3-.08-.63-.12-.95l-.06-.49c-.02-.17-.03-.32-.06-.51-.09-.73-.26-1.45-.49-2.13-.23-.68-.52-1.34-.85-1.96-.66-1.25-1.44-2.37-2.21-3.46l-.57-.82-.56-.82c-.37-.55-.74-1.1-1.08-1.66-.69-1.11-1.3-2.27-1.77-3.48-.01-.04-.03-.07-.04-.11-.29,.05-.58,.08-.88,.08,.03,.1,.06,.2,.09,.3,.4,1.31,.95,2.57,1.58,3.77,.31,.6,.65,1.19,.98,1.77l.51,.87,.51,.87c.62,1.04,1.23,2.06,1.71,3.11-.13,0-.26,.01-.38,0-.23,0-.46-.03-.69-.06-.46-.06-.92-.16-1.38-.28-.04-.01-.07-.02-.11-.03l-.12,.26s.13,.08,.15,.09c.44,.23,.88,.44,1.34,.61,.23,.09,.46,.16,.7,.22,.24,.06,.48,.1,.72,.13,.01,0,.1,.01,.17,.02,.36,.95,.59,1.92,.64,2.9,.01,.14,.02,.32,.02,.48l.02,.5c.01,.34,.03,.68,.06,1.03,.03,.36,.07,.73,.16,1.14,.02,.1,.05,.2,.08,.3l2.02-1.23c-.03-.14-.06-.29-.08-.45Z"/>
          <path class="cls-1" d="M32.75,31.14c1.57-1.39,2.27-2.51,2.27-2.51,0,0-.1,.91-1.57,2.51-4.66,5.08-3.51,9.53-2.03,12.22,11.32-5.12,3.78-20.4,3.78-20.4,0,0,.22,3.06-3.36,5.52-8.62,5.94-6.86,14.3-2.22,15.06-1.26-2.97-1.68-8.15,3.12-12.4Z"/>
        </g>
      </g>
    </g>
  </g>
</svg>