<?xml version="1.0" encoding="UTF-8"?>
<svg id="Layer_2" data-name="Layer 2" xmlns="http://www.w3.org/2000/svg" xmlns:xlink="http://www.w3.org/1999/xlink" viewBox="0 0 89.51 89.51">
  <defs>
    <style>
      .cls-1 {
        fill: #fff;
      }

      .cls-2 {
        fill: url(#radial-gradient);
      }
    </style>
    <radialGradient id="radial-gradient" cx="44.75" cy="44.75" fx="44.75" fy="44.75" r="44.75" gradientUnits="userSpaceOnUse">
      <stop offset="0" stop-color="#c0d524"/>
      <stop offset="1" stop-color="#80d82a"/>
    </radialGradient>
  </defs>
  <g id="Layer_5" data-name="Layer 5">
    <g>
      <circle class="cls-2" cx="44.75" cy="44.75" r="44.75"/>
      <g>
        <g>
          <path class="cls-1" d="M57.31,18l.22,1.22c0,.05,.1,.59,.2,1.47,2.48,1.31,4.74,2.99,6.71,4.96-.51,.24-1.03,.47-1.55,.69-1.66,.69-3.35,1.29-5.07,1.78-.16,1.56-.43,3-.82,4.29,1.34,3.05,2.18,6.19,2.52,9.38,.24,0,.73-.01,.73-.01,.49,0,.99,.02,1.51,.05-.38-3.96-1.48-7.83-3.3-11.58,1.79-.52,3.56-1.13,5.29-1.86,.72-.3,1.44-.62,2.14-.96l.13-.06c3.78,4.5,6.14,10.23,6.39,16.49h-2.66l-.67,1.53s-.13,.28-.33,.69h3.66c-.25,6.26-2.61,11.99-6.39,16.49l-.13-.06c-.7-.33-1.42-.65-2.14-.96-1.73-.73-3.5-1.34-5.29-1.86,.5-1.03,.94-2.07,1.33-3.12-.94,.51-1.89,.88-2.85,1.09-.22,.49-.44,.97-.68,1.45-2.42-.57-4.89-.96-7.39-1.16,.01,.18,.02,.35,.03,.52,.02,.47,.03,1.07,.02,1.72,2.11,.18,4.19,.49,6.24,.95-.25,.44-.52,.87-.79,1.31-.85,1.33-1.79,2.64-2.83,3.91-.86-.21-1.82-.39-2.85-.51,0,.11,0,.2-.01,.29-.02,.45-.02,.7-.06,1.17-.16,2-1.97,3.5-4.21,3.5-1.09,0-2.06-.37-2.72-1.05-.58-.59-.89-1.37-.87-2.21,.01-.65,.18-1.16,.37-1.69,0,0,0,0,0,0-.99,.12-1.91,.28-2.74,.49-1.03-1.27-1.97-2.57-2.82-3.89-.28-.43-.54-.87-.79-1.31,2.42-.54,4.88-.88,7.38-1.03,.07-.66,.12-1.27,.16-1.72,.01-.17,.02-.35,.03-.52-2.94,.15-5.83,.57-8.66,1.24-.94-1.88-1.68-3.79-2.24-5.72-.83-.2-1.67-.49-2.53-.88,.58,2.44,1.43,4.83,2.57,7.18-1.79,.52-3.56,1.13-5.29,1.86-.71,.3-1.43,.62-2.13,.96l-.13,.06c-3.78-4.5-6.14-10.23-6.39-16.49h2.88c-.06-.07-.1-.11-.11-.12l-1.54-1.78,.56-.33h-1.79c.25-6.26,2.61-11.99,6.39-16.49l.13,.06c.7,.33,1.42,.66,2.13,.96,1.73,.73,3.5,1.34,5.29,1.86-1.49,3.08-2.51,6.25-3.03,9.48,.8-.2,1.58-.34,2.33-.43,.55-2.88,1.51-5.72,2.89-8.48,2.19,.52,4.41,.88,6.66,1.09,.06-.72,.2-1.46,.42-2.2-2.02-.18-4.01-.49-5.98-.93,.25-.44,.52-.87,.79-1.31,1.71-2.68,3.82-5.27,6.29-7.7,.61-.6,1.25-1.2,1.91-1.78l.07-.06v6.57c.65-.7,1.39-1.37,2.22-2.02v-4.54l.07,.06c.66,.58,1.3,1.18,1.91,1.78,.27,.27,.54,.54,.81,.82,.64-.38,1.31-.75,2.02-1.1-.41-.44-.84-.87-1.27-1.3-.11-.11-.22-.21-.33-.32,1.16,.18,2.3,.44,3.41,.77,.7-.31,1.44-.61,2.2-.91l.95-.36c-3.37-1.33-7.04-2.06-10.87-2.06-16.35,0-29.65,13.3-29.65,29.65,0,7.92,3.08,15.37,8.69,20.97,5.6,5.6,13.05,8.69,20.97,8.69,16.35,0,29.65-13.3,29.65-29.65,0-11.96-7.12-22.29-17.34-26.97Zm-16.63-.12c-.11,.11-.22,.21-.33,.32-2.58,2.54-4.81,5.26-6.6,8.09-.41,.64-.79,1.29-1.16,1.94-1.86-.52-3.69-1.15-5.49-1.9-.52-.22-1.04-.45-1.55-.68,4.01-4.04,9.27-6.83,15.13-7.77Zm-6.67,51.39c0,.36,.16,.7,.45,1.03-3.36-1.4-6.38-3.45-8.91-6,.51-.24,1.03-.47,1.55-.68,1.8-.75,3.63-1.38,5.49-1.9,.36,.65,.75,1.3,1.16,1.94,.74,1.17,1.56,2.31,2.44,3.44-1.37,.61-2.18,1.36-2.18,2.17Zm21.38,1.09c.33-.34,.5-.71,.5-1.09,0-.8-.78-1.54-2.11-2.14,.89-1.14,1.72-2.3,2.47-3.47,.41-.64,.79-1.29,1.16-1.94,1.86,.52,3.69,1.15,5.49,1.9,.52,.22,1.04,.45,1.55,.69-2.56,2.58-5.64,4.65-9.05,6.06Z"/>
          <path class="cls-1" d="M46.32,46.08h3.13c.21-.26,.44-.52,.69-.77,.55-.55,1.15-1.03,1.81-1.45h-5.82c.01,.72,.06,1.47,.19,2.22Z"/>
        </g>
        <g>
          <path class="cls-1" d="M21.83,44.69s11.58,13.31,18.6,3.47c-7.44-4.03-13.15-3.71-13.15-3.71,0,0,5.59-2.06,13.41,2.56-.69-2.27-4.8-10.49-18.86-2.32Z"/>
          <path class="cls-1" d="M67.29,44.61s-7.5,17.05-17.66,9.33c6.24-6.39,12.09-7.86,12.09-7.86,0,0-6.28-.32-12.71,6.78-.02-2.51,1.55-12.08,18.28-8.25Z"/>
          <path class="cls-1" d="M55.62,19.56s3.62,20.22-10.43,19.4c1.78-9.69,7.02-14.14,7.02-14.14,0,0-6.16,2.73-8.26,13.53-1.56-2.29-6.01-12.02,11.67-18.8Z"/>
          <path class="cls-1" d="M48.85,53.64s-.04,.02-.07,.03c-.47,.26-.93,.55-1.35,.87-.21,.16-.42,.34-.61,.53-.07,.07-.14,.14-.21,.22-.05-.27-.09-.55-.15-.82-.07-.34-.15-.68-.23-1.02l-.25-.97c-.17-.64-.35-1.28-.53-1.92-.36-1.27-.74-2.52-.98-3.76-.73-3.76,.16-7.69,.16-7.69l-.35-.14s0,.03-.01,.05c0,0-1.3,2.69-1.03,7.94,.03,.64,.11,1.26,.2,1.88-.11-.09-.23-.18-.35-.25-.22-.15-.45-.28-.68-.39-.46-.23-.94-.42-1.42-.57-.02,0-.04-.01-.07-.02l-.19,.31s.08,.05,.12,.07c.43,.28,.86,.58,1.25,.92,.2,.17,.38,.37,.58,.55,.76,.71,1.06,1.48,1.14,1.68,.09,.58,.18,1.17,.27,1.75l.13,.97c.04,.31,.07,.62,.09,.93,.09,1.24,.08,2.5-.01,3.76-.09,1.26-.37,3.83-.57,5.07-.42,2.57-.97,3.16-.98,3.97-.03,1.88,3.76,1.65,3.92-.43,.04-.55,.04-.76,.07-1.52,.03-.76,.08-.95,.11-1.63,.07-1.37,.17-4.05,.1-5.42-.02-.3-.04-.6-.06-.91h0s-.01-.91,.66-1.89c.15-.21,.28-.44,.44-.65,.32-.41,.67-.8,1.05-1.16,.03-.03,.07-.06,.1-.09l-.31-.25Z"/>
        </g>
      </g>
    </g>
  </g>
</svg>