<svg id="Layer_2" data-name="Layer 2" xmlns="http://www.w3.org/2000/svg" viewBox="0 0 753.79 422.76"><defs><style>.cls-1{fill:#fff}.cls-3{fill:#87c846}.cls-4{fill:#2e2a2e}.cls-5{fill:#00b8f1}</style></defs><g id="Layer_1-2" data-name="Layer 1"><path class="cls-4" d="M689.64 32.54v388.77h-569.1V32.54h569.1Zm1.45-1.45H119.08v391.67h572.01V31.08Z"/><circle class="cls-5" cx="134.3" cy="43.85" r="6.28"/><circle class="cls-5" cx="152.49" cy="43.85" r="6.28"/><circle class="cls-5" cx="170.67" cy="43.85" r="6.28"/><path class="cls-1" d="M326.69 164.92H168.62c-9.3 0-16.86-7.56-16.86-16.86v-4.05c0-9.3 7.56-16.86 16.86-16.86h158.07c9.3 0 16.86 7.56 16.86 16.86v4.05c0 9.3-7.56 16.86-16.86 16.86ZM168.62 128.6c-8.5 0-15.41 6.91-15.41 15.41v4.05c0 8.5 6.91 15.41 15.41 15.41h158.07c8.5 0 15.41-6.91 15.41-15.41v-4.05c0-8.5-6.91-15.41-15.41-15.41H168.62Z"/><path class="cls-4" d="M320.91 152.83c-.78 0-1.57-.11-2.35-.32a8.649 8.649 0 0 1-5.25-4.11 8.692 8.692 0 0 1-.81-6.62c.62-2.24 2.08-4.1 4.11-5.25a8.692 8.692 0 0 1 6.62-.81c2.24.62 4.1 2.08 5.25 4.11a8.692 8.692 0 0 1 .81 6.62 8.649 8.649 0 0 1-4.11 5.25 8.633 8.633 0 0 1-4.27 1.13Zm-.02-15.97c-1.23 0-2.45.32-3.56.94-1.69.95-2.9 2.51-3.42 4.37-1.07 3.85 1.19 7.86 5.04 8.93 1.87.52 3.82.28 5.51-.67 1.69-.95 2.9-2.51 3.42-4.37.52-1.87.28-3.82-.67-5.51a7.203 7.203 0 0 0-4.37-3.42c-.65-.18-1.3-.27-1.96-.27Z"/><path class="cls-4" d="M305.74 156.65a.72.72 0 0 1-.57-.28.721.721 0 0 1 .13-1.02l8.87-6.88c.32-.25.77-.19 1.02.13s.19.77-.13 1.02l-8.87 6.88c-.13.1-.29.15-.45.15Z"/><rect class="cls-5" x="163.79" y="136.87" width="133.56" height="18.33" rx="6.78" ry="6.78"/><path class="cls-4" d="M174.18 225.22h-22.03c-.4 0-.73-.33-.73-.73v-22.03c0-.4.33-.73.73-.73h22.03c.4 0 .73.33.73.73v22.03c0 .4-.33.73-.73.73Zm-21.31-1.45h20.58v-20.58h-20.58v20.58Z"/><path class="cls-4" d="M169.84 224.49v4.34h-22.03V206.8h4.33v17.69h17.7zM341.02 216.37H194.3c-.4 0-.73-.33-.73-.73s.33-.73.73-.73h146.72c.4 0 .73.33.73.73s-.33.73-.73.73ZM174.18 278.97h-22.03c-.4 0-.73-.33-.73-.73v-22.03c0-.4.33-.73.73-.73h22.03c.4 0 .73.33.73.73v22.03c0 .4-.33.73-.73.73Zm-21.31-1.45h20.58v-20.58h-20.58v20.58Z"/><path class="cls-4" d="M169.84 278.25v4.33h-22.03v-22.03h4.33v17.7h17.7zM341.02 270.13H194.3c-.4 0-.73-.33-.73-.73s.33-.73.73-.73h146.72c.4 0 .73.33.73.73s-.33.73-.73.73ZM174.18 332.73h-22.03c-.4 0-.73-.33-.73-.73v-22.03c0-.4.33-.73.73-.73h22.03c.4 0 .73.33.73.73V332c0 .4-.33.73-.73.73Zm-21.31-1.45h20.58V310.7h-20.58v20.58Z"/><path class="cls-4" d="M169.84 332v4.34h-22.03V314.3h4.33V332h17.7zM341.02 323.88H194.3c-.4 0-.73-.33-.73-.73s.33-.73.73-.73h146.72c.4 0 .73.33.73.73s-.33.73-.73.73Z"/><path class="cls-3" d="m423.53 372.24 153.25-.58s-10.66-41.97-28.93-44.85c-22.74-3.59-32.44 22.27-47.42 10.52-14.98-11.75-22.42-44.87-40.12-44.48-24.09.54-36.78 79.38-36.78 79.38Z"/><ellipse class="cls-3" cx="519.9" cy="294.28" rx="12" ry="12.19"/><path class="cls-4" d="M590.91 398.91H409.26c-.4 0-.73-.33-.73-.73V255.92c0-.4.33-.73.73-.73h181.65c.4 0 .73.33.73.73v142.26c0 .4-.33.73-.73.73Zm-180.93-1.45h180.2V256.65h-180.2v140.81Z"/><path class="cls-4" d="M590.91 256.65H409.26c-.4 0-.73-.33-.73-.73v-20.4c0-.4.33-.73.73-.73h181.65c.4 0 .73.33.73.73v20.4c0 .4-.33.73-.73.73Zm-180.93-1.45h180.2v-18.95h-180.2v18.95Z"/><path class="cls-5" d="M616.54 220.05h58.75v50.83h-58.75z"/><path class="cls-1" d="M610.1 213.51h58.75v50.83H610.1z"/><path class="cls-4" d="M668.85 265.06H610.1c-.4 0-.73-.33-.73-.73V213.5c0-.4.33-.73.73-.73h58.75c.4 0 .73.33.73.73v50.83c0 .4-.33.73-.73.73Zm-58.02-1.45h57.3v-49.37h-57.3v49.37Z"/><path class="cls-5" d="m636.41 249.64-2.62-7.39h-10.02l-2.56 7.39h-4.52l9.81-26.73h4.66l9.81 26.73h-4.55Zm-3.75-11.14-2.46-7.25c-.18-.49-.43-1.25-.74-2.29a46.17 46.17 0 0 1-.65-2.29c-.32 1.49-.79 3.13-1.42 4.9l-2.37 6.94h7.64ZM656.38 249.64l-.84-2.8h-.14c-.96 1.23-1.92 2.06-2.89 2.5-.97.44-2.21.66-3.73.66-1.95 0-3.47-.53-4.56-1.6-1.09-1.07-1.64-2.58-1.64-4.53 0-2.08.76-3.64 2.28-4.7 1.52-1.06 3.83-1.63 6.94-1.73l3.42-.11v-1.07c0-1.29-.3-2.25-.89-2.89-.59-.64-1.51-.96-2.75-.96-1.02 0-1.99.15-2.92.46-.93.3-1.83.66-2.69 1.07l-1.36-3.06c1.08-.57 2.25-1 3.53-1.3 1.28-.3 2.49-.45 3.62-.45 2.52 0 4.42.56 5.71 1.68 1.28 1.12 1.93 2.87 1.93 5.26v13.57h-3.01Zm-6.27-2.91c1.53 0 2.76-.43 3.68-1.3.93-.87 1.39-2.08 1.39-3.65v-1.75l-2.55.11c-1.98.07-3.43.41-4.33 1.01-.9.6-1.35 1.52-1.35 2.76 0 .9.26 1.59.79 2.08s1.31.74 2.37.74Z"/><path class="cls-3" d="M617.2 352.13c-2.46 0-4.46-2-4.46-4.46v-49.02c0-2.46 2-4.46 4.46-4.46s4.46 2 4.46 4.46v49.02c0 2.46-2 4.46-4.46 4.46Z"/><path class="cls-5" d="M641.85 352.13c-2.46 0-4.46-2-4.46-4.46v-49.02c0-2.46 2-4.46 4.46-4.46s4.46 2 4.46 4.46v49.02c0 2.46-2 4.46-4.46 4.46Z"/><path d="M666.49 352.13c-2.46 0-4.46-2-4.46-4.46v-49.02c0-2.46 2-4.46 4.46-4.46s4.46 2 4.46 4.46v49.02c0 2.46-2 4.46-4.46 4.46Z" style="fill:#cbd941"/><ellipse class="cls-1" cx="617.2" cy="310.63" rx="5.96" ry="6.06"/><path class="cls-4" d="M617.2 317.42c-3.69 0-6.69-3.04-6.69-6.78s3-6.78 6.69-6.78 6.69 3.04 6.69 6.78-3 6.78-6.69 6.78Zm0-12.11c-2.89 0-5.24 2.39-5.24 5.33s2.35 5.33 5.24 5.33 5.24-2.39 5.24-5.33-2.35-5.33-5.24-5.33Z"/><ellipse class="cls-1" cx="641.85" cy="330.96" rx="5.96" ry="6.06"/><path class="cls-4" d="M641.85 337.75c-3.69 0-6.69-3.04-6.69-6.78s3-6.78 6.69-6.78 6.69 3.04 6.69 6.78-3 6.78-6.69 6.78Zm0-12.11c-2.89 0-5.24 2.39-5.24 5.33s2.35 5.33 5.24 5.33 5.24-2.39 5.24-5.33-2.35-5.33-5.24-5.33Z"/><ellipse class="cls-1" cx="666.49" cy="315.2" rx="5.96" ry="6.06"/><path class="cls-4" d="M666.49 321.99c-3.69 0-6.69-3.04-6.69-6.78s3-6.78 6.69-6.78 6.69 3.04 6.69 6.78-3 6.78-6.69 6.78Zm0-12.11c-2.89 0-5.24 2.39-5.24 5.33s2.35 5.33 5.24 5.33 5.24-2.39 5.24-5.33-2.35-5.33-5.24-5.33ZM691.09 57.34H119.08c-.4 0-.73-.33-.73-.73s.33-.73.73-.73h572.01c.4 0 .73.33.73.73s-.33.73-.73.73Z"/><path class="cls-4" d="M210.55 113.23H34.33c-.4 0-.73-.33-.73-.73V.73c0-.4.33-.73.73-.73h176.22c.4 0 .73.33.73.73V112.5c0 .4-.33.73-.73.73Zm-175.49-1.45h174.77V1.45H35.06v110.33Z"/><path class="cls-4" d="M210.55 16.22H34.33c-.4 0-.73-.33-.73-.73s.33-.73.73-.73h176.22c.4 0 .73.33.73.73s-.33.73-.73.73Z"/><path class="cls-1" d="M.73 46.49h101.32v42.13H.73z"/><path class="cls-4" d="M102.05 89.35H.73c-.4 0-.73-.33-.73-.73V46.49c0-.4.33-.73.73-.73h101.32c.4 0 .73.33.73.73v42.13c0 .4-.33.73-.73.73ZM1.45 87.89h99.87V47.22H1.45v40.67Z"/><path class="cls-5" d="M9.82 54.28h28.83v26.54H9.82z"/><path class="cls-1" d="M17.43 75.08a.71.71 0 0 1-.51-.21.736.736 0 0 1 0-1.03l13.61-13.61c.28-.28.74-.28 1.03 0 .28.28.28.74 0 1.03L17.95 74.87c-.14.14-.33.21-.51.21Z"/><path class="cls-1" d="M31.04 75.08a.71.71 0 0 1-.51-.21L16.92 61.26a.736.736 0 0 1 0-1.03c.28-.28.74-.28 1.03 0l13.61 13.61c.28.28.28.74 0 1.03-.14.14-.33.21-.51.21Z"/><path class="cls-4" d="M91.54 60.92H51.39c-.4 0-.73-.33-.73-.73s.33-.73.73-.73h40.15c.4 0 .73.33.73.73s-.33.73-.73.73ZM91.54 68.28H51.39c-.4 0-.73-.33-.73-.73s.33-.73.73-.73h40.15c.4 0 .73.33.73.73s-.33.73-.73.73ZM91.54 75.64H51.39c-.4 0-.73-.33-.73-.73s.33-.73.73-.73h40.15c.4 0 .73.33.73.73s-.33.73-.73.73ZM753.06 179.45h-97.89c-.4 0-.73-.33-.73-.73V112.5c0-.4.33-.73.73-.73h97.89c.4 0 .73.33.73.73v66.22c0 .4-.33.73-.73.73ZM655.9 178h96.43v-64.77H655.9v64.76Z"/><path class="cls-4" d="M743.47 139.37h-42.93c-.4 0-.73-.33-.73-.73v-11.28c0-.4.33-.73.73-.73h42.93c.4 0 .73.33.73.73v11.28c0 .4-.33.73-.73.73Zm-42.2-1.45h41.47v-9.82h-41.47v9.82ZM728.45 164.09a.71.71 0 0 1-.51-.21.736.736 0 0 1 0-1.03l13.66-13.66c.28-.28.74-.28 1.03 0 .28.28.28.74 0 1.03l-13.66 13.66c-.14.14-.33.21-.51.21Z"/><path class="cls-4" d="M742.11 164.09a.71.71 0 0 1-.51-.21l-13.66-13.66a.736.736 0 0 1 0-1.03c.28-.28.74-.28 1.03 0l13.66 13.66c.28.28.28.74 0 1.03-.14.14-.33.21-.51.21ZM710.63 166.56c-5.21 0-9.44-4.24-9.44-9.44s4.24-9.44 9.44-9.44 9.44 4.24 9.44 9.44-4.24 9.44-9.44 9.44Zm0-17.43c-4.41 0-7.99 3.58-7.99 7.99s3.58 7.99 7.99 7.99 7.99-3.58 7.99-7.99-3.58-7.99-7.99-7.99Z"/></g></svg>