<svg id="Layer_2" data-name="Layer 2" xmlns="http://www.w3.org/2000/svg" xmlns:xlink="http://www.w3.org/1999/xlink" viewBox="0 0 127.71 147.15"><defs><linearGradient id="linear-gradient" x1="-3919.7" y1="1187.77" x2="-3873.89" y2="1187.77" gradientTransform="matrix(-1 0 0 1 -3850.37 -1161.14)" gradientUnits="userSpaceOnUse"><stop offset="0" stop-color="#0071bc"/><stop offset="1" stop-color="#fbb03b"/></linearGradient><linearGradient id="linear-gradient-2" x1="-3889.82" y1="1204.89" x2="-3844.01" y2="1204.89" gradientTransform="matrix(-1 0 0 1 -3827.29 -1144.5)" xlink:href="#linear-gradient"/><linearGradient id="linear-gradient-3" x1="-3859.99" y1="1221.99" x2="-3814.18" y2="1221.99" gradientTransform="matrix(-1 0 0 1 -3804.25 -1127.89)" xlink:href="#linear-gradient"/><clipPath id="clippath"><path class="cls-15" d="m22.6 11.2-6.15 31.41 48.22 21.72 6.02-31.14L22.6 11.2z"/></clipPath><clipPath id="clippath-1"><path class="cls-15" d="M15.79 44.95 9.64 76.36l48.22 21.72 6.02-31.13-48.09-22z"/></clipPath><clipPath id="clippath-2"><path class="cls-15" d="m8.99 78.66-6.15 31.42 48.22 21.71 6.03-31.13-48.1-22z"/></clipPath><style>.cls-1{fill:#ddd}.cls-2{fill:#a0a595;stroke:#fff;stroke-miterlimit:10}.cls-3{fill:#f4f4f4}.cls-4{fill:#fff}.cls-5{fill:#90bad0}.cls-11{fill:#eaeaea}.cls-12{fill:#02213a}.cls-15{fill:none}.cls-16{fill:#f9fafc}.cls-17{fill:#dbe8ee}</style></defs><g id="Layer_5" data-name="Layer 5"><ellipse cx="118.08" cy="134.41" rx="12.35" ry="6.85" transform="rotate(-48.79 118.059 134.4)" style="fill:#3f720f"/><ellipse class="cls-16" cx="112.83" cy="137.56" rx="9.54" ry="5.29" transform="rotate(-48.79 112.814 137.551)"/><path class="cls-5" d="m106.42 144.62.12.12c2.2 1.92 6.79.27 10.26-3.69s4.5-8.73 2.31-10.66l1.95 1.71c2.05 1.99 1 6.66-2.42 10.56s-8.06 5.61-10.26 3.69l-1.97-1.72Z"/><path class="cls-17" d="M116.32 132.87 40.23 70.78l-3.91 2.96 72.28 67.86c.59.62 1.68.82 2.99.38 2.47-.84 4.87-3.61 5.38-6.17.26-1.31-.04-2.31-.71-2.87l.05-.07Z"/><path class="cls-5" d="M40.99 71.61 37 74.6l20.56 19.3c1.32.15 2.6.02 3.92-.43 1.04-.36 2.64-1.26 3.7-2.06l-24.19-19.8Z"/><path class="cls-17" d="m21.63 9.8-6.7 33.47L65.3 66.71l6.8-33.77L21.63 9.8z"/><path class="cls-4" d="m22.41 11.03-6.16 31.41 48.33 21.91 6.03-31.13-48.2-22.19z"/><path class="cls-12" d="m48.6 30.45 1.09-5.51c.1-.51 0-1.24-.52-1.54l-5.19-2.45c-.44-.21-.83.02-.94.53l-1.15 5.83c-.1.51.13 1 .59 1.21l5.19 2.45c.36.16.83-.01.93-.52ZM47.09 38.14l1.09-5.51c.1-.51 0-1.24-.52-1.54l-5.19-2.45c-.44-.21-.83.02-.93.53L40.39 35c-.1.51.13 1 .59 1.21l5.19 2.45c.36.16.83-.01.93-.52ZM41.73 27.39l1.09-5.51c.1-.51 0-1.24-.52-1.54l-5.19-2.45c-.44-.21-.83.02-.94.53l-1.15 5.83c-.1.51.13 1 .59 1.21l5.19 2.45c.36.16.83-.01.93-.52ZM40.21 35.09l1.09-5.51c.1-.51 0-1.24-.52-1.54l-5.19-2.45c-.44-.21-.83.02-.93.53l-1.15 5.83c-.1.51.13 1 .59 1.21l5.19 2.45c.36.16.83-.01.93-.52ZM34.89 24.19l1.09-5.51c.1-.51 0-1.24-.52-1.54l-5.19-2.45c-.44-.21-.83.02-.93.53l-1.15 5.83c-.1.51.13 1 .59 1.21l5.19 2.45c.36.16.83-.01.93-.52ZM33.37 31.89l1.09-5.51c.1-.51 0-1.24-.52-1.54l-5.19-2.45c-.44-.21-.83.02-.93.53l-1.15 5.83c-.1.51.13 1 .59 1.21l5.19 2.45c.36.16.83-.01.93-.52ZM28.07 21.11l1.09-5.51c.1-.51 0-1.24-.52-1.54l-5.19-2.45c-.44-.21-.83.02-.94.53l-1.15 5.83c-.1.51.13 1 .59 1.21l5.19 2.45c.36.16.83-.01.93-.52ZM26.56 28.81l1.09-5.51c.1-.51 0-1.24-.52-1.54l-5.19-2.45c-.44-.21-.83.02-.94.53l-1.15 5.83c-.1.51.13 1 .59 1.21l5.19 2.45c.36.16.83-.01.93-.52ZM45.56 45.9l1.09-5.51c.1-.51 0-1.24-.52-1.54l-5.19-2.45c-.44-.21-.83.02-.93.53l-1.15 5.83c-.1.51.13 1 .59 1.21l5.19 2.45c.36.16.83-.01.93-.52ZM44.05 53.66l1.09-5.51c.1-.51 0-1.24-.52-1.54l-5.19-2.45c-.44-.21-.83.02-.93.53l-1.15 5.83c-.1.51.13 1 .59 1.21l5.19 2.45c.36.16.83-.01.93-.52ZM38.68 42.85l1.09-5.51c.1-.51 0-1.24-.52-1.54l-5.19-2.45c-.44-.21-.83.02-.94.53l-1.15 5.83c-.1.51.13 1 .59 1.21l5.19 2.45c.36.16.83-.01.93-.52ZM37.17 50.6l1.09-5.51c.1-.51 0-1.24-.52-1.54l-5.19-2.45c-.44-.21-.83.02-.94.53l-1.15 5.83c-.1.51.13 1 .59 1.21l5.19 2.45c.36.16.83-.01.93-.52ZM31.84 39.65l1.09-5.51c.1-.51 0-1.24-.52-1.54l-5.19-2.45c-.44-.21-.83.02-.94.53l-1.15 5.83c-.1.51.13 1 .59 1.21l5.19 2.45c.36.16.83-.01.93-.52ZM30.33 47.4l1.09-5.51c.1-.51 0-1.24-.52-1.54l-5.19-2.45c-.44-.21-.83.02-.93.53l-1.15 5.83c-.1.51.13 1 .59 1.21l5.19 2.45c.36.16.83-.01.93-.52ZM25.02 36.57l1.09-5.51c.1-.51 0-1.24-.52-1.54l-5.19-2.45c-.44-.21-.83.02-.94.53l-1.15 5.83c-.1.51.13 1 .59 1.21l5.19 2.45c.36.16.83-.01.93-.52ZM23.48 44.28l1.09-5.51c.1-.51 0-1.24-.52-1.54l-5.19-2.45c-.44-.21-.83.02-.94.53l-1.15 5.83c-.1.51.13 1 .59 1.21l5.19 2.45c.36.16.83-.01.93-.52ZM69.26 39.95l1.09-5.51c.1-.51 0-1.24-.52-1.54l-5.19-2.45c-.44-.21-.83.02-.94.53l-1.15 5.83c-.1.51.13 1 .59 1.21l5.19 2.45c.36.16.83-.01.93-.52ZM67.75 47.65l1.09-5.51c.1-.51 0-1.24-.52-1.54l-5.19-2.45c-.44-.21-.83.02-.93.53l-1.15 5.83c-.1.51.13 1 .59 1.21l5.19 2.45c.36.16.83-.01.93-.52ZM62.36 36.84l1.09-5.51c.1-.51 0-1.24-.52-1.54l-5.19-2.45c-.44-.21-.83.02-.94.53l-1.15 5.83c-.1.51.13 1 .59 1.21l5.19 2.45c.36.16.83-.01.93-.52ZM60.85 44.54l1.09-5.51c.1-.51 0-1.24-.52-1.54l-5.19-2.45c-.44-.21-.83.02-.94.53l-1.15 5.83c-.1.51.13 1 .59 1.21l5.19 2.45c.36.16.83-.01.93-.52ZM55.42 33.61l1.09-5.51c.1-.51 0-1.24-.52-1.54l-5.19-2.45c-.44-.21-.83.02-.94.53l-1.15 5.83c-.1.51.13 1 .59 1.21l5.19 2.45c.36.16.83-.01.93-.52ZM53.91 41.3 55 35.79c.1-.51 0-1.24-.52-1.54l-5.19-2.45c-.44-.21-.83.02-.93.53l-1.15 5.83c-.1.51.13 1 .59 1.21l5.19 2.45c.36.16.83-.01.93-.52ZM66.22 55.41l1.09-5.51c.1-.51 0-1.24-.52-1.54l-5.19-2.45c-.44-.21-.83.02-.93.53l-1.15 5.83c-.1.51.13 1 .59 1.21l5.19 2.45c.36.16.83-.01.93-.52ZM64.71 63.16l1.09-5.51c.1-.51 0-1.24-.52-1.54l-5.19-2.45c-.44-.21-.83.02-.93.53l-1.15 5.83c-.1.51.13 1 .59 1.21l5.19 2.45c.36.16.83-.01.93-.52ZM59.31 52.3l1.09-5.51c.1-.51 0-1.24-.52-1.54l-5.19-2.45c-.44-.21-.83.02-.93.53l-1.15 5.83c-.1.51.13 1 .59 1.21l5.19 2.45c.36.16.83-.01.93-.52ZM57.81 60.05l1.09-5.51c.1-.51 0-1.24-.52-1.54l-5.19-2.45c-.44-.21-.83.02-.93.53l-1.15 5.83c-.1.51.13 1 .59 1.21l5.19 2.45c.36.16.83-.01.93-.52ZM52.37 49.06l1.09-5.51c.1-.51 0-1.24-.52-1.54l-5.19-2.45c-.44-.21-.83.02-.93.53l-1.15 5.83c-.1.51.13 1 .59 1.21l5.19 2.45c.36.16.83-.01.93-.52ZM50.83 56.78l1.09-5.51c.1-.51 0-1.24-.52-1.54l-5.19-2.45c-.44-.21-.83.02-.94.53l-1.15 5.83c-.1.51.13 1 .59 1.21l5.19 2.45c.36.16.83-.01.93-.52Z"/><path class="cls-2" d="M22.01 13.49 70.04 35.9 22.01 13.49ZM21.66 15.5l48.03 22.41L21.66 15.5ZM20.54 21.32l48.03 22.41-48.03-22.41ZM20.2 23.33l48.03 22.41L20.2 23.33ZM19 29.09 67.03 51.5 19 29.09ZM18.66 31.09 66.69 53.5 18.66 31.09ZM17.46 36.85l48.03 22.41-48.03-22.41ZM17.12 38.86l48.03 22.41-48.03-22.41Z"/><path class="cls-4" d="m22.34 10.9.15-.06-6.24 31.6-.14.05 6.23-31.59z"/><path class="cls-11" d="m22.49 10.84.15.07-6.25 31.41-.09-.05 6.19-31.43z"/><path class="cls-1" d="m16.25 42.44-.14.05 48.33 22.13.33-.1-48.52-22.08z"/><path class="cls-3" d="m16.25 42.44.03-.15L64.8 64.38l-.03.14-48.52-22.08z"/><path class="cls-1" d="m22.59 11.13-.02.13 48.2 22.04.17-.09-48.35-22.08z"/><path class="cls-3" d="m22.44 11.06.05-.22 48.5 22.13-.05.24-48.5-22.15z"/><path class="cls-4" d="m70.6 33.23.15-.1-6.08 31.2-.11-.05 6.04-31.05z"/><path class="cls-11" d="m70.75 33.13.19.08-6.14 31.17-.13-.05 6.08-31.2z"/><path class="cls-5" d="m14.93 43.27-1.33.71 49.95 23.24 1.75-.51-50.37-23.44z"/><path class="cls-16" d="m14.93 43.27-1.33.71 6.6-33.17 1.43-1.01-6.7 33.47z"/><g style="clip-path:url(#clippath)"><ellipse cx="46.43" cy="26.63" rx="22.91" ry="30.81" transform="rotate(-48.79 46.426 26.624)" style="fill:url(#linear-gradient);opacity:.26"/></g><path class="cls-17" d="m14.82 43.56-6.7 33.46 50.37 23.44 6.8-33.76-50.47-23.14z"/><path class="cls-4" d="M15.6 44.79 9.44 76.2l48.33 21.91 6.03-31.13-48.2-22.19z"/><path class="cls-12" d="m41.8 64.2 1.09-5.51c.1-.51 0-1.24-.52-1.54l-5.19-2.45c-.44-.21-.83.02-.94.53l-1.15 5.83c-.1.51.13 1 .59 1.21l5.19 2.45c.36.16.83-.01.93-.52ZM40.28 71.9l1.09-5.51c.1-.51 0-1.24-.52-1.54l-5.19-2.45c-.44-.21-.83.02-.93.53l-1.15 5.83c-.1.51.13 1 .59 1.21l5.19 2.45c.36.16.83-.01.93-.52ZM34.92 61.15l1.09-5.51c.1-.51 0-1.24-.52-1.54l-5.19-2.45c-.44-.21-.83.02-.94.53l-1.15 5.83c-.1.51.13 1 .59 1.21l5.19 2.45c.36.16.83-.01.93-.52ZM33.4 68.85l1.09-5.51c.1-.51 0-1.24-.52-1.54l-5.19-2.45c-.44-.21-.83.02-.93.53l-1.15 5.83c-.1.51.13 1 .59 1.21l5.19 2.45c.36.16.83-.01.93-.52ZM28.08 57.95l1.09-5.51c.1-.51 0-1.24-.52-1.54l-5.19-2.45c-.44-.21-.83.02-.94.53l-1.15 5.83c-.1.51.13 1 .59 1.21l5.19 2.45c.36.16.83-.01.93-.52ZM26.56 65.64l1.09-5.51c.1-.51 0-1.24-.52-1.54l-5.19-2.45c-.44-.21-.83.02-.94.53l-1.15 5.83c-.1.51.13 1 .59 1.21l5.19 2.45c.36.16.83-.01.93-.52ZM21.26 54.87l1.09-5.51c.1-.51 0-1.24-.52-1.54l-5.19-2.45c-.44-.21-.83.02-.94.53l-1.15 5.83c-.1.51.13 1 .59 1.21l5.19 2.45c.36.16.83-.01.93-.52ZM19.75 62.56l1.09-5.51c.1-.51 0-1.24-.52-1.54l-5.19-2.45c-.44-.21-.83.02-.94.53l-1.15 5.83c-.1.51.13 1 .59 1.21l5.19 2.45c.36.16.83-.01.93-.52ZM38.75 79.66l1.09-5.51c.1-.51 0-1.24-.52-1.54l-5.19-2.45c-.44-.21-.83.02-.93.53l-1.15 5.83c-.1.51.13 1 .59 1.21l5.19 2.45c.36.16.83-.01.93-.52ZM37.24 87.41l1.09-5.51c.1-.51 0-1.24-.52-1.54l-5.19-2.45c-.44-.21-.83.02-.93.53l-1.15 5.83c-.1.51.13 1 .59 1.21l5.19 2.45c.36.16.83-.01.93-.52ZM31.87 76.61l1.09-5.51c.1-.51 0-1.24-.52-1.54l-5.19-2.45c-.44-.21-.83.02-.94.53l-1.15 5.83c-.1.51.13 1 .59 1.21l5.19 2.45c.36.16.83-.01.93-.52ZM30.36 84.36l1.09-5.51c.1-.51 0-1.24-.52-1.54l-5.19-2.45c-.44-.21-.83.02-.94.53l-1.15 5.83c-.1.51.13 1 .59 1.21l5.19 2.45c.36.16.83-.01.93-.52ZM25.03 73.4l1.09-5.51c.1-.51 0-1.24-.52-1.54l-5.19-2.45c-.44-.21-.83.02-.94.53l-1.15 5.83c-.1.51.13 1 .59 1.21l5.19 2.45c.36.16.83-.01.93-.52ZM23.52 81.16l1.09-5.51c.1-.51 0-1.24-.52-1.54l-5.19-2.45c-.44-.21-.83.02-.94.53l-1.15 5.83c-.1.51.13 1 .59 1.21l5.19 2.45c.36.16.83-.01.93-.52ZM18.21 70.32l1.09-5.51c.1-.51 0-1.24-.52-1.54l-5.19-2.45c-.44-.21-.83.02-.94.53l-1.15 5.83c-.1.51.13 1 .59 1.21l5.19 2.45c.36.16.83-.01.93-.52ZM16.67 78.04l1.09-5.51c.1-.51 0-1.24-.52-1.54l-5.19-2.45c-.44-.21-.83.02-.93.53L9.97 74.9c-.1.51.13 1 .59 1.21l5.19 2.45c.36.16.83-.01.93-.52ZM62.46 73.71l1.09-5.51c.1-.51 0-1.24-.52-1.54l-5.19-2.45c-.44-.21-.83.02-.94.53l-1.15 5.83c-.1.51.13 1 .59 1.21l5.19 2.45c.36.16.83-.01.93-.52ZM60.94 81.41l1.09-5.51c.1-.51 0-1.24-.52-1.54l-5.19-2.45c-.44-.21-.83.02-.94.53l-1.15 5.83c-.1.51.13 1 .59 1.21l5.19 2.45c.36.16.83-.01.93-.52ZM55.55 70.6l1.09-5.51c.1-.51 0-1.24-.52-1.54l-5.19-2.45c-.44-.21-.83.02-.94.53l-1.15 5.83c-.1.51.13 1 .59 1.21l5.19 2.45c.36.16.83-.01.93-.52ZM54.04 78.3l1.09-5.51c.1-.51 0-1.24-.52-1.54l-5.19-2.45c-.44-.21-.83.02-.94.53l-1.15 5.83c-.1.51.13 1 .59 1.21l5.19 2.45c.36.16.83-.01.93-.52ZM48.61 67.36l1.09-5.51c.1-.51 0-1.24-.52-1.54l-5.19-2.45c-.44-.21-.83.02-.94.53l-1.15 5.83c-.1.51.13 1 .59 1.21l5.19 2.45c.36.16.83-.01.93-.52ZM47.1 75.06l1.09-5.51c.1-.51 0-1.24-.52-1.54l-5.19-2.45c-.44-.21-.83.02-.93.53l-1.15 5.83c-.1.51.13 1 .59 1.21l5.19 2.45c.36.16.83-.01.93-.52ZM59.41 89.16l1.09-5.51c.1-.51 0-1.24-.52-1.54l-5.19-2.45c-.44-.21-.83.02-.94.53l-1.15 5.83c-.1.51.13 1 .59 1.21l5.19 2.45c.36.16.83-.01.93-.52ZM57.9 96.92l1.09-5.51c.1-.51 0-1.24-.52-1.54l-5.19-2.45c-.44-.21-.83.02-.94.53l-1.15 5.83c-.1.51.13 1 .59 1.21l5.19 2.45c.36.16.83-.01.93-.52ZM52.5 86.06l1.09-5.51c.1-.51 0-1.24-.52-1.54l-5.19-2.45c-.44-.21-.83.02-.93.53l-1.15 5.83c-.1.51.13 1 .59 1.21l5.19 2.45c.36.16.83-.01.93-.52ZM51 93.81l1.09-5.51c.1-.51 0-1.24-.52-1.54l-5.19-2.45c-.44-.21-.83.02-.94.53l-1.15 5.83c-.1.51.13 1 .59 1.21l5.19 2.45c.36.16.83-.01.93-.52ZM45.57 82.82l1.09-5.51c.1-.51 0-1.24-.52-1.54l-5.19-2.45c-.44-.21-.83.02-.94.53l-1.15 5.83c-.1.51.13 1 .59 1.21l5.19 2.45c.36.16.83-.01.93-.52ZM44.02 90.53l1.09-5.51c.1-.51 0-1.24-.52-1.54l-5.19-2.45c-.44-.21-.83.02-.93.53l-1.15 5.83c-.1.51.13 1 .59 1.21l5.19 2.45c.36.16.83-.01.93-.52Z"/><path class="cls-2" d="m15.2 47.25 48.03 22.41L15.2 47.25ZM14.85 49.26l48.03 22.41-48.03-22.41ZM13.73 55.08l48.03 22.41-48.03-22.41ZM13.39 57.08l48.03 22.41-48.03-22.41ZM12.19 62.84l48.03 22.41-48.03-22.41ZM11.85 64.85l48.03 22.41-48.03-22.41ZM10.65 70.61l48.03 22.41-48.03-22.41ZM10.31 72.61l48.03 22.41-48.03-22.41Z"/><path class="cls-4" d="m15.53 44.66.15-.06-6.24 31.6-.14.04 6.23-31.58z"/><path class="cls-11" d="m15.68 44.6.15.07-6.25 31.41-.09-.05 6.19-31.43z"/><path class="cls-1" d="m9.44 76.19-.14.05 48.33 22.14.33-.11L9.44 76.19z"/><path class="cls-3" d="m9.44 76.19.03-.14 48.52 22.09-.03.13L9.44 76.19z"/><path class="cls-1" d="m15.79 44.89-.03.13 48.2 22.04.17-.09-48.34-22.08z"/><path class="cls-3" d="m15.63 44.82.05-.22 48.5 22.13-.05.24-48.5-22.15z"/><path class="cls-4" d="m63.79 66.98.15-.09-6.08 31.19-.11-.05 6.04-31.05z"/><path class="cls-11" d="m63.94 66.89.19.08-6.14 31.17-.13-.06 6.08-31.19z"/><path class="cls-5" d="m8.12 77.02-1.32.71 49.94 23.25 1.75-.52L8.12 77.02z"/><path class="cls-16" d="m8.12 77.02-1.32.71 6.6-33.17 1.42-1-6.7 33.46z"/><g style="clip-path:url(#clippath-1)"><ellipse cx="39.62" cy="60.39" rx="22.91" ry="30.81" transform="rotate(-48.79 39.611 60.38)" style="fill:url(#linear-gradient-2);opacity:.26"/></g><path class="cls-17" d="m8.02 77.27-6.7 33.47 50.37 23.43 6.8-33.76L8.02 77.27z"/><path class="cls-4" d="m8.8 78.5-6.15 31.41 48.33 21.91L57 100.69 8.8 78.5z"/><path class="cls-12" d="m35 97.91 1.09-5.51c.1-.51 0-1.24-.52-1.54l-5.19-2.45c-.44-.21-.83.02-.93.53l-1.15 5.83c-.1.51.13 1 .59 1.21l5.19 2.45c.36.16.83-.01.93-.52ZM33.49 105.61l1.09-5.51c.1-.51 0-1.24-.52-1.54l-5.19-2.45c-.44-.21-.83.02-.94.53l-1.15 5.83c-.1.51.13 1 .59 1.21l5.19 2.45c.36.16.83-.01.93-.52ZM28.12 94.86l1.09-5.51c.1-.51 0-1.24-.52-1.54l-5.19-2.45c-.44-.21-.83.02-.94.53l-1.15 5.83c-.1.51.13 1 .59 1.21l5.19 2.45c.36.16.83-.01.93-.52ZM26.61 102.56l1.09-5.51c.1-.51 0-1.24-.52-1.54l-5.19-2.45c-.44-.21-.83.02-.94.53l-1.15 5.83c-.1.51.13 1 .59 1.21l5.19 2.45c.36.16.83-.01.93-.52ZM21.28 91.66l1.09-5.51c.1-.51 0-1.24-.52-1.54l-5.19-2.45c-.44-.21-.83.02-.94.53l-1.15 5.83c-.1.51.13 1 .59 1.21l5.19 2.45c.36.16.83-.01.93-.52ZM19.77 99.36l1.09-5.51c.1-.51 0-1.24-.52-1.54l-5.19-2.45c-.44-.21-.83.02-.94.53l-1.15 5.83c-.1.51.13 1 .59 1.21l5.19 2.45c.36.16.83-.01.93-.52ZM14.47 88.58l1.09-5.51c.1-.51 0-1.24-.52-1.54l-5.19-2.45c-.44-.21-.83.02-.94.53l-1.15 5.83c-.1.51.13 1 .59 1.21l5.19 2.45c.36.16.83-.01.93-.52ZM12.95 96.27l1.09-5.51c.1-.51 0-1.24-.52-1.54l-5.19-2.45c-.44-.21-.83.02-.94.53l-1.15 5.83c-.1.51.13 1 .59 1.21l5.19 2.45c.36.16.83-.01.93-.52ZM31.95 113.37l1.09-5.51c.1-.51 0-1.24-.52-1.54l-5.19-2.45c-.44-.21-.83.02-.94.53l-1.15 5.83c-.1.51.13 1 .59 1.21l5.19 2.45c.36.16.83-.01.93-.52ZM30.45 121.13l1.09-5.51c.1-.51 0-1.24-.52-1.54l-5.19-2.45c-.44-.21-.83.02-.93.53l-1.15 5.83c-.1.51.13 1 .59 1.21l5.19 2.45c.36.16.83-.01.93-.52ZM25.07 110.32l1.09-5.51c.1-.51 0-1.24-.52-1.54l-5.19-2.45c-.44-.21-.83.02-.94.53l-1.15 5.83c-.1.51.13 1 .59 1.21l5.19 2.45c.36.16.83-.01.93-.52ZM23.57 118.07l1.09-5.51c.1-.51 0-1.24-.52-1.54l-5.19-2.45c-.44-.21-.83.02-.94.53l-1.15 5.83c-.1.51.13 1 .59 1.21l5.19 2.45c.36.16.83-.01.93-.52ZM18.23 107.11l1.09-5.51c.1-.51 0-1.24-.52-1.54l-5.19-2.45c-.44-.21-.83.02-.94.53l-1.15 5.83c-.1.51.13 1 .59 1.21l5.19 2.45c.36.16.83-.01.93-.52ZM16.73 114.87l1.09-5.51c.1-.51 0-1.24-.52-1.54l-5.19-2.45c-.44-.21-.83.02-.93.53l-1.15 5.83c-.1.51.13 1 .59 1.21l5.19 2.45c.36.16.83-.01.93-.52ZM11.42 104.03l1.09-5.51c.1-.51 0-1.24-.52-1.54L6.8 94.53c-.44-.21-.83.02-.93.53l-1.15 5.83c-.1.51.13 1 .59 1.21l5.19 2.45c.36.16.83-.01.93-.52ZM9.87 111.75l1.09-5.51c.1-.51 0-1.24-.52-1.54l-5.19-2.45c-.44-.21-.83.02-.94.53l-1.15 5.83c-.1.51.13 1 .59 1.21l5.19 2.45c.36.16.83-.01.93-.52ZM55.66 107.42l1.09-5.51c.1-.51 0-1.24-.52-1.54l-5.19-2.45c-.44-.21-.83.02-.94.53l-1.15 5.83c-.1.51.13 1 .59 1.21l5.19 2.45c.36.16.83-.01.93-.52ZM54.15 115.12l1.09-5.51c.1-.51 0-1.24-.52-1.54l-5.19-2.45c-.44-.21-.83.02-.94.53l-1.15 5.83c-.1.51.13 1 .59 1.21l5.19 2.45c.36.16.83-.01.93-.52ZM48.76 104.31l1.09-5.51c.1-.51 0-1.24-.52-1.54l-5.19-2.45c-.44-.21-.83.02-.93.53l-1.15 5.83c-.1.51.13 1 .59 1.21l5.19 2.45c.36.16.83-.01.93-.52ZM47.24 112.01l1.09-5.51c.1-.51 0-1.24-.52-1.54l-5.19-2.45c-.44-.21-.83.02-.94.53l-1.15 5.83c-.1.51.13 1 .59 1.21l5.19 2.45c.36.16.83-.01.93-.52ZM41.82 101.07l1.09-5.51c.1-.51 0-1.24-.52-1.54l-5.19-2.45c-.44-.21-.83.02-.94.53l-1.15 5.83c-.1.51.13 1 .59 1.21l5.19 2.45c.36.16.83-.01.93-.52ZM40.3 108.77l1.09-5.51c.1-.51 0-1.24-.52-1.54l-5.19-2.45c-.44-.21-.83.02-.94.53l-1.15 5.83c-.1.51.13 1 .59 1.21l5.19 2.45c.36.16.83-.01.93-.52ZM52.61 122.87l1.09-5.51c.1-.51 0-1.24-.52-1.54l-5.19-2.45c-.44-.21-.83.02-.94.53l-1.15 5.83c-.1.51.13 1 .59 1.21l5.19 2.45c.36.16.83-.01.93-.52ZM51.11 130.63l1.09-5.51c.1-.51 0-1.24-.52-1.54l-5.19-2.45c-.44-.21-.83.02-.94.53l-1.15 5.83c-.1.51.13 1 .59 1.21l5.19 2.45c.36.16.83-.01.93-.52ZM45.71 119.77l1.09-5.51c.1-.51 0-1.24-.52-1.54l-5.19-2.45c-.44-.21-.83.02-.94.53L39 116.63c-.1.51.13 1 .59 1.21l5.19 2.45c.36.16.83-.01.93-.52ZM44.21 127.52l1.09-5.51c.1-.51 0-1.24-.52-1.54l-5.19-2.45c-.44-.21-.83.02-.94.53l-1.15 5.83c-.1.51.13 1 .59 1.21l5.19 2.45c.36.16.83-.01.93-.52ZM38.77 116.53l1.09-5.51c.1-.51 0-1.24-.52-1.54l-5.19-2.45c-.44-.21-.83.02-.93.53l-1.15 5.83c-.1.51.13 1 .59 1.21l5.19 2.45c.36.16.83-.01.93-.52ZM37.22 124.24l1.09-5.51c.1-.51 0-1.24-.52-1.54l-5.19-2.45c-.44-.21-.83.02-.93.53l-1.15 5.83c-.1.51.13 1 .59 1.21l5.19 2.45c.36.16.83-.01.93-.52Z"/><path class="cls-2" d="m8.4 80.96 48.03 22.41L8.4 80.96ZM8.06 82.97l48.03 22.41L8.06 82.97ZM6.94 88.79l48.03 22.41L6.94 88.79ZM6.59 90.8l48.03 22.41L6.59 90.8ZM5.4 96.55l48.03 22.41L5.4 96.55ZM5.05 98.56l48.03 22.41L5.05 98.56ZM3.86 104.32l48.03 22.41-48.03-22.41ZM3.51 106.32l48.03 22.41-48.03-22.41Z"/><path class="cls-4" d="m8.73 78.37.16-.06-6.24 31.6-.15.04 6.23-31.58z"/><path class="cls-11" d="m8.89 78.31.15.07-6.25 31.41-.1-.05 6.2-31.43z"/><path class="cls-1" d="m2.65 109.91-.15.04 48.34 22.14.32-.1-48.51-22.08z"/><path class="cls-3" d="m2.65 109.91.03-.15 48.51 22.09-.03.14-48.51-22.08z"/><path class="cls-1" d="m8.99 78.6-.03.13 48.21 22.04.16-.09L8.99 78.6z"/><path class="cls-3" d="m8.84 78.53.04-.22 48.5 22.13-.05.24L8.84 78.53z"/><path class="cls-4" d="m57 100.69.15-.09-6.09 31.19-.1-.05L57 100.69z"/><path class="cls-11" d="m57.15 100.6.18.08-6.14 31.17-.13-.06 6.09-31.19z"/><path class="cls-5" d="m1.32 110.73-1.32.72 49.95 23.24 1.74-.52-50.37-23.44z"/><path class="cls-16" d="m1.32 110.73-1.32.72 6.6-33.17 1.42-1.01-6.7 33.46z"/><g style="clip-path:url(#clippath-2)"><ellipse cx="32.83" cy="94.1" rx="22.91" ry="30.81" transform="rotate(-48.79 32.816 94.093)" style="opacity:.26;fill:url(#linear-gradient-3)"/></g></g></svg>