<svg id="Layer_2" data-name="Layer 2" xmlns="http://www.w3.org/2000/svg" viewBox="0 0 94.92 118.76"><defs><style>.cls-1{fill:#38383a}.cls-2{fill:#d3d3d8}.cls-3{fill:#4d8b17}.cls-4{fill:#dbdae1}.cls-5{fill:#3f720f}.cls-6{fill:#f4f1f1}.cls-7{fill:#9a999e}.cls-8{fill:#ffe36e}.cls-9{fill:#f4c500}.cls-11{fill:#c6c6c6}.cls-12{fill:#ffd524}</style></defs><g id="Layer_5" data-name="Layer 5"><path class="cls-5" d="M41.09 95.32a7.2 7.2 0 0 0 .71-1.69l29.42-69.92c-1.49 2.59-4.59 4.44-9.09 5.01-9.93 1.25-22.88-4.2-28.93-12.17-2.86-3.77-3.66-7.43-2.66-10.38h-.02l-30.3 72 .06.03c-.79 2.87.06 6.36 2.79 9.96 6.05 7.97 19 13.42 28.93 12.17 4.48-.56 7.57-2.4 9.07-4.97s.02-.04.02-.04Z"/><ellipse class="cls-3" cx="51.04" cy="14.62" rx="12.81" ry="22.19" transform="rotate(-67.18 51.037 14.617)"/><ellipse class="cls-3" cx="51.04" cy="14.62" rx="12.81" ry="22.19" transform="rotate(-67.18 51.037 14.617)"/><ellipse class="cls-5" cx="55.2" cy="16.55" rx="8.06" ry="13.96" transform="rotate(-67.18 55.201 16.547)"/><ellipse class="cls-5" cx="55.2" cy="16.55" rx="8.06" ry="13.96" transform="rotate(-67.18 55.201 16.547)"/><ellipse class="cls-7" cx="51.42" cy="13.7" rx="7.98" ry="13.82" transform="rotate(-67.18 51.419 13.699)"/><ellipse class="cls-7" cx="51.42" cy="13.7" rx="7.98" ry="13.82" transform="rotate(-67.18 51.419 13.699)"/><ellipse class="cls-2" cx="52" cy="12.32" rx="7.98" ry="13.82" transform="rotate(-67.18 52.003 12.33)"/><ellipse class="cls-2" cx="52" cy="12.32" rx="7.98" ry="13.82" transform="rotate(-67.18 52.003 12.33)"/><ellipse class="cls-11" cx="54.89" cy="13.54" rx="3.96" ry="6.87" transform="rotate(-67.18 54.888 13.54)"/><ellipse class="cls-11" cx="54.89" cy="13.54" rx="3.96" ry="6.87" transform="rotate(-67.18 54.888 13.54)"/><ellipse class="cls-4" cx="53.04" cy="9.86" rx="3.44" ry="5.96" transform="rotate(-67.18 53.031 9.866)"/><ellipse class="cls-4" cx="53.04" cy="9.86" rx="3.44" ry="5.96" transform="rotate(-67.18 53.031 9.866)"/><path class="cls-7" d="M55.98 13.74c-2.66.34-6.14-1.13-7.76-3.27-.81-1.07-1.01-2.11-.66-2.92l-.95 2.25c-.34.81-.15 1.85.66 2.92 1.62 2.14 5.1 3.6 7.76 3.27 1.22-.15 2.05-.66 2.44-1.36h.02l1.04-2.45c-.34.81-1.22 1.4-2.55 1.56Z"/><path class="cls-6" d="M50.1 5.99c-2.07.26-3.04 1.53-2.6 3.09 1.73 1.1 3.94 1.71 5.76 1.48 2.07-.26 3.04-1.53 2.6-3.09-1.73-1.1-3.94-1.71-5.76-1.48Z"/><path d="M31.22 18.77c4.09 5.39 11.34 9.63 18.68 11.42L39.25 55.51 22.56 95.17c-7.31-1.79-14.39-6.33-18.49-11.69l-.28-.12.07-.17 13.89-33.01 13.31-31.64c.06.08.11.15.16.23Z" style="fill:#d4d5d5"/><path class="cls-9" d="M10.39 67.64 3.86 83.17c.22.33.45.66.7.99 3.95 5.2 10.84 9.33 17.9 11.22l9.67-22.97c-6.3-3.73-14.06-5.77-20.54-4.95-.41.05-.8.12-1.19.19Z"/><path class="cls-1" d="M12 63.83 5.47 79.36c.22.33.45.66.7.99 3.95 5.2 10.84 9.33 17.9 11.22l9.67-22.97c-6.3-3.73-14.06-5.77-20.54-4.95-.41.05-.8.12-1.19.19Z"/><path class="cls-9" d="M12.7 62.17 6.17 77.7c.22.33.45.66.7.99 3.95 5.2 10.84 9.33 17.9 11.22l9.67-22.97c-6.3-3.73-14.06-5.77-20.54-4.95-.41.05-.8.12-1.19.19Z"/><path class="cls-1" d="M15.49 55.54 8.96 71.07c.22.33.45.66.7.99 3.95 5.2 10.84 9.33 17.9 11.22l9.67-22.97c-6.3-3.73-14.06-5.77-20.54-4.95-.41.05-.8.12-1.19.19Z"/><path class="cls-9" d="M16.18 53.88 9.65 69.41c.22.33.45.66.7.99 3.95 5.2 10.84 9.33 17.9 11.22l9.67-22.97c-6.3-3.73-14.06-5.77-20.54-4.95-.41.05-.8.12-1.19.19Z"/><path class="cls-1" d="M20.17 47.06c-.41.05-.8.12-1.19.19l-1.23 2.93-5.3 12.59c.22.33.45.66.7.99 3.95 5.2 10.84 9.33 17.9 11.22l8.2-19.48 1.47-3.5c-6.3-3.73-14.06-5.77-20.54-4.95Z"/><path class="cls-9" d="M20.86 45.4c-.41.05-.8.12-1.19.19l-1.93 4.59-4.6 10.94c.22.33.45.66.7.99 3.95 5.2 10.84 9.33 17.9 11.22l7.5-17.82 2.17-5.15c-6.3-3.73-14.06-5.77-20.54-4.95Z"/><path class="cls-1" d="M23.65 38.77c-.41.05-.8.12-1.19.19l-4.72 11.22-1.81 4.31c.22.33.45.66.7.99 3.95 5.2 10.84 9.33 17.9 11.22l4.71-11.19 4.96-11.78c-6.3-3.73-14.06-5.77-20.54-4.95Z"/><path class="cls-9" d="M24.35 37.12c-.41.05-.8.12-1.19.19l-5.42 12.88-1.11 2.65c.22.33.45.66.7.99 3.95 5.2 10.84 9.33 17.9 11.22l4.01-9.53 5.66-13.44c-6.3-3.73-14.06-5.77-20.54-4.95Z"/><path class="cls-1" d="M26.73 31.47c-.41.05-.8.12-1.19.19l-6.53 15.53c.22.33.45.66.7.99 3.95 5.2 10.84 9.33 17.9 11.22l1.64-3.89 8.03-19.08c-6.3-3.73-14.06-5.77-20.54-4.95Z"/><path class="cls-9" d="M27.42 29.82c-.41.05-.8.12-1.19.19L19.7 45.54c.22.33.45.66.7.99 3.95 5.2 10.84 9.33 17.9 11.22l.94-2.23 8.73-20.74c-6.3-3.73-14.06-5.77-20.54-4.95Z"/><path class="cls-1" d="M38.51 25.31c-3.09-.63-6.16-.82-8.99-.47-.41.05-.8.12-1.19.19L21.8 40.56c.22.33.45.66.7.99 3.95 5.2 10.84 9.33 17.9 11.22l1.64-3.89 7.86-18.69c-3.99-.97-7.94-2.67-11.39-4.88Z"/><path class="cls-9" d="M35.47 23.11c-1.81-.15-3.58-.14-5.26.07-.41.05-.8.12-1.19.19L22.49 38.9c.22.33.45.66.7.99 3.95 5.2 10.84 9.33 17.9 11.22l8.8-20.92c-5.22-1.28-10.4-3.79-14.42-7.08Z"/><path class="cls-6" d="M33.51 21.35c-.88.01-1.75.07-2.6.17-.41.05-.8.12-1.19.19l-3.05 7.24c.22.33.45.66.7.99 3.95 5.2 10.84 9.33 17.9 11.22l4.62-10.97c-6.12-1.49-12.17-4.69-16.38-8.84Z"/><path class="cls-1" d="M31.22 18.77c-.06-.08-.11-.15-.16-.23l-5.77 13.72c.22.33.45.66.7.99 3.95 5.2 10.84 9.33 17.9 11.22l1.64-3.89 4.38-10.4c-7.34-1.79-14.59-6.03-18.68-11.42Z"/><path class="cls-9" d="M31.22 18.77c-.06-.08-.11-.15-.16-.23l-5.08 12.07c.22.33.45.66.7.99 3.95 5.2 10.84 9.33 17.9 11.22l5.31-12.63c-7.34-1.79-14.59-6.03-18.68-11.42Z"/><path class="cls-1" d="M31.22 18.77c-.06-.08-.11-.15-.16-.23l-1.59 3.78c.22.33.45.66.7.99 3.95 5.2 10.84 9.33 17.9 11.22l1.83-4.34c-7.34-1.79-14.59-6.03-18.68-11.42Z"/><path class="cls-9" d="M31.22 18.77c-.06-.08-.11-.15-.16-.23l-.89 2.12c.22.33.45.66.7.99 3.95 5.2 10.84 9.33 17.9 11.22l1.13-2.68c-7.34-1.79-14.59-6.03-18.68-11.42Z"/><path class="cls-1" d="m18.16 52.9 13.31-31.64c.06.08.11.15.16.23 3.83 5.05 10.43 9.08 17.27 11.05l.98-2.34c-7.34-1.79-14.59-6.03-18.68-11.42-.06-.08-.11-.15-.16-.23L17.73 50.19 3.85 83.2l-.07.17.28.12c.26.34.53.67.81 1L18.16 52.9Z"/><path class="cls-9" d="M92.66 33.62 46.71 71.73l20.99-2.65-31.38 27.34 19.86-4.04-22.69 26.38 49.9-41.33-17.82 2.89 29.35-26.18-21.8 3.33 19.54-23.85z"/><path class="cls-12" d="m85.37 23.83 7.29 9.79-45.89 38.06-7.43-9.83 46.03-38.02z"/><path class="cls-8" d="m94.92 54.14-7.54-10.11-3.58.4-10.68 13.04 21.8-3.33zM83.39 77.43l-5.88-7.8-11.94 10.69 17.82-2.89z"/><path class="cls-12" d="m36.37 96.42-7.18-9.84 16.84-15.9.75 1 20.97-2.58-31.38 27.32zM33.49 118.76l-7.52-9.9 13.4-13.06 16.81-3.42-22.69 26.38z"/></g></svg>