<svg id="Layer_2" data-name="Layer 2" xmlns="http://www.w3.org/2000/svg" viewBox="0 0 86.12 214.11"><defs><style>.cls-1{fill:#90bad0}.cls-3{fill:#dbe8ee}.cls-4{fill:#3285a9}</style></defs><g id="Layer_5" data-name="Layer 5"><ellipse cx="70.2" cy="190.86" rx="9.17" ry="5.08" transform="rotate(-22.6 70.194 190.843)" style="fill:#eaf1f4"/><path class="cls-1" d="M72.15 195.55c-4.67 1.95-9.34 1.42-10.41-1.17l7.23 17.38c1.08 2.59 5.74 3.11 10.41 1.17s7.59-5.62 6.51-8.21l-7.23-17.38c1.08 2.59-1.84 6.27-6.51 8.21Z"/><path class="cls-3" d="M77.5 186.96 18.72 61.22l-6.77 1.43 50.41 130.82h.01c.35 1.12 1.6 2.01 3.55 2.25 3.66.45 8.4-1.64 10.62-4.58 1.13-1.51 1.37-2.99.85-4.11l.1-.07Z"/><path class="cls-1" d="m19.18 62.73-6.92 1.35 14.33 37.19c1.59 1 3.3 1.63 5.25 1.86 1.54.18 4.14.02 5.98-.34L19.18 62.73Z"/><path class="cls-1" d="m0 63.03 19.05 3.21 2.48 5.82-19.84-5.05L0 63.03z"/><path class="cls-3" d="m24.7 58.72-5.65 7.52L0 63.03l4.49-6.26 20.21 1.95z"/><path class="cls-4" d="m27.08 64.53-5.55 7.53-2.48-5.82 5.57-7.48 2.46 5.77z"/><path class="cls-3" d="M26.16 60.99s7.38 1.54 9.07 1.78c2.01.29 7.18-3.65 7.18-3.65l32.35-17.77S55.1 50.22 45.05 52.87c-5.63 1.49-10.08 1.63-11.54 3.05-1.86 1.8-7.34 5.07-7.34 5.07Z"/><path class="cls-4" d="M41.59 59.07c5.73-2.41 33.16-17.72 33.16-17.72 3.18-.2-21.08 10.64-31.58 20.29-1.84 1.69-9.26 3.55-9.26 3.55l.79-2.29s5.82-3.39 6.89-3.84Z"/><path class="cls-4" d="M37.48 61.35c1.14 2.69.65 6.76-1.11 9.1-1.76 2.34-4.11 2.05-5.25-.64-1.14-2.69-.65-6.76 1.11-9.1 1.76-2.34 4.11-2.05 5.25.64Z"/><path d="M36.92 64.06c.47 1.09.26 2.75-.45 3.7-.71.95-1.67.83-2.14-.26-.47-1.09-.26-2.75.45-3.7.71-.95 1.67-.83 2.14.26Z" style="fill:#ededed"/><path class="cls-3" d="M33.54 72.01c-.96-.11-1.84-.85-2.42-2.21-1.14-2.69-.65-6.76 1.11-9.1.81-1.08 1.75-1.6 2.64-1.58l-8.43-1.59c-.16-.08-.32-.13-.48-.18h-.02c-1.18-.3-2.49.26-3.59 1.73-2.02 2.68-2.58 7.35-1.27 10.44.83 1.94 2.2 2.79 3.61 2.49s8.86 0 8.86 0Z"/><path class="cls-4" d="M28.19 52.2S4.86.51 4.99.21c1.3-3 12.32 26.48 18.05 35.82 2.87 4.67 7.25 11 8.36 13.54 1.15 2.64.09 9.71.09 9.71l-1.21 1.6-2.09-8.68Z"/><path class="cls-1" d="M23.27 60.78s-8.5-4.77-7.1-6.79c6.6-9.59 12.05-1.71 12.05-1.71l2.09 8.68-7.04-.18Z"/><path class="cls-3" d="M16.13 54.55c5.92-9.34 12.09-2.27 12.09-2.27L5.01.25s9.02 37.19 10.63 47.04c.62 3.79-.15 8.29.5 7.26Z"/><path class="cls-4" d="M23.32 80.31c-6.41 15.4-15.26 57.84-14.87 58.05 1.09.57 3.38-8.06 8.18-28.36 2.56-10.83 9.84-25.68 10.59-28.31.83-2.9 3.5-9.97 3.5-9.97l-1.92-1.39s-4.23 6.96-5.48 9.99Z"/><path class="cls-3" d="m22.07 70.17 6.74.15-5.48 9.99s-8.08 9.25-8.56-3.09c-.15-3.68 7.31-7.05 7.31-7.05Z"/><path class="cls-1" d="M15.13 79.02c-.16-1.64-.27-2.62-.33-2.4-.7 2.51-6.34 61.75-6.34 61.75s8.51-40.49 14.87-58.05c.87-2.4-7.37 6.86-8.19-1.29Z"/></g></svg>